{"glyphs":{"0":{"ha":525,"x_min":39,"x_max":485,"o":"m 485 326 q 426 87 485 186 q 260 -12 368 -12 q 97 87 156 -12 q 39 326 39 186 q 97 566 39 467 q 260 665 156 665 q 426 566 368 665 q 485 326 485 467 m 396 326 q 363 516 396 443 q 263 589 329 589 q 161 516 194 589 q 128 326 128 443 q 161 137 128 210 q 261 64 194 64 q 363 137 329 64 q 396 326 396 210 z "},"1":{"ha":525,"x_min":97,"x_max":426,"o":"m 426 0 l 133 0 l 133 71 l 236 71 l 236 532 l 149 458 l 97 515 l 274 664 q 325 597 325 664 l 325 71 l 426 71 l 426 0 z "},"2":{"ha":525,"x_min":33,"x_max":500,"o":"m 483 0 l 33 0 q 57 100 44 61 q 278 317 93 144 q 392 492 392 424 q 283 583 392 583 q 156 460 176 583 l 74 481 q 143 618 83 569 q 285 664 199 664 q 425 614 369 664 q 481 488 481 564 q 408 333 481 419 q 260 190 364 282 q 146 78 167 108 l 500 78 l 483 0 z "},"3":{"ha":525,"x_min":36,"x_max":479,"o":"m 479 229 q 402 55 479 121 q 200 -11 325 -11 q 36 47 106 -11 l 75 118 q 214 74 138 74 q 339 119 286 74 q 392 226 392 165 q 363 301 392 271 q 292 332 335 332 q 193 292 240 332 l 156 353 q 276 440 224 392 q 339 535 339 499 q 263 589 339 589 q 170 557 213 589 q 110 482 128 525 l 47 514 q 133 624 74 583 q 267 664 192 664 q 378 629 333 664 q 422 536 422 594 q 336 406 422 479 q 440 346 401 393 q 479 229 479 299 z "},"4":{"ha":525,"x_min":39,"x_max":496,"o":"m 318 222 l 318 561 q 198 421 251 518 q 126 222 144 324 l 318 222 m 407 0 l 318 0 l 318 147 l 39 147 q 149 494 39 321 q 407 679 258 667 l 407 222 l 496 222 l 486 147 l 407 147 l 407 0 z "},"5":{"ha":525,"x_min":36,"x_max":481,"o":"m 481 233 q 404 57 481 125 q 207 -11 328 -11 q 36 49 104 -11 l 74 113 q 217 64 151 64 q 340 112 289 64 q 392 232 392 160 q 353 324 392 292 q 249 357 314 357 q 164 311 183 357 l 108 308 l 132 661 l 463 661 l 447 586 l 217 586 l 207 425 q 267 436 232 436 q 419 379 358 436 q 481 233 481 322 z "},"6":{"ha":525,"x_min":50,"x_max":474,"o":"m 474 208 q 417 52 474 115 q 274 -11 361 -11 q 113 57 176 -11 q 50 238 50 125 q 156 519 50 397 q 431 675 261 642 l 439 606 q 272 520 351 582 q 158 382 193 458 q 276 425 201 425 q 417 363 360 425 q 474 208 474 300 m 393 208 q 357 307 393 264 q 271 350 321 350 q 181 309 218 350 q 144 208 144 268 q 181 108 144 150 q 271 67 218 67 q 357 110 321 67 q 393 208 393 153 z "},"7":{"ha":525,"x_min":39,"x_max":492,"o":"m 274 0 l 183 0 q 379 586 194 388 l 39 586 l 60 661 l 492 661 l 479 586 q 326 331 372 453 q 274 0 274 190 z "},"8":{"ha":525,"x_min":43,"x_max":482,"o":"m 397 182 q 363 275 397 233 q 263 321 328 317 q 163 275 197 317 q 128 182 128 233 q 165 96 128 128 q 263 64 203 64 q 360 96 322 64 q 397 182 397 128 m 378 493 q 346 563 378 535 q 263 590 314 590 q 179 563 211 590 q 147 493 147 535 q 261 393 147 425 q 378 493 378 425 m 482 186 q 422 42 482 94 q 261 -11 363 -11 q 102 42 161 -11 q 43 186 43 94 q 74 289 43 242 q 154 358 106 336 q 64 489 64 407 q 120 615 64 565 q 263 665 176 665 q 405 615 349 665 q 461 489 461 565 q 371 358 461 407 q 451 289 419 336 q 482 186 482 242 z "},"9":{"ha":525,"x_min":50,"x_max":474,"o":"m 474 415 q 368 133 474 256 q 93 -22 263 11 l 85 47 q 253 136 169 69 q 371 272 338 203 q 247 228 331 228 q 107 290 164 228 q 50 444 50 353 q 106 601 50 538 q 250 664 163 664 q 410 596 347 664 q 474 415 474 528 m 379 444 q 342 544 379 503 q 253 586 306 586 q 167 543 203 586 q 131 444 131 500 q 167 346 131 389 q 253 303 203 303 q 342 344 306 303 q 379 444 379 385 z "}," ":{"ha":314,"x_min":0,"x_max":0,"o":""},"!":{"ha":233,"x_min":50,"x_max":183,"o":"m 154 193 l 76 193 l 67 661 l 167 661 l 154 193 m 183 54 q 164 7 183 26 q 117 -12 144 -12 q 69 7 89 -12 q 50 54 50 26 q 69 101 50 82 q 117 121 89 121 q 164 101 144 121 q 183 54 183 82 z "},"\"":{"ha":404,"x_min":68,"x_max":335,"o":"m 318 463 l 254 463 l 236 731 l 335 731 l 318 463 m 149 463 l 86 463 l 68 731 l 167 731 l 149 463 z "},"#":{"ha":642,"x_min":46,"x_max":594,"o":"m 447 0 l 365 0 l 393 197 l 214 197 l 190 0 l 108 0 l 132 197 l 46 197 l 46 271 l 142 271 l 158 394 l 64 394 l 64 469 l 167 469 l 193 660 l 272 660 l 249 469 l 425 469 l 449 660 l 531 660 l 507 469 l 594 469 l 594 394 l 496 394 l 481 271 l 574 271 l 574 197 l 474 197 l 447 0 m 400 271 l 417 394 l 239 394 l 224 271 l 400 271 z "},"$":{"ha":510,"x_min":60,"x_max":450,"o":"m 450 192 q 408 86 450 133 q 296 24 367 39 l 296 -76 l 214 -76 l 214 21 q 60 78 122 29 l 97 144 q 243 96 158 96 q 332 122 299 96 q 365 189 365 147 q 253 301 365 254 q 76 478 76 376 q 116 581 76 538 q 225 638 156 624 l 225 740 l 306 740 l 306 639 q 439 593 371 631 l 397 525 q 268 565 350 565 q 192 544 222 565 q 161 485 161 522 q 283 378 161 432 q 413 296 375 338 q 450 192 450 254 z "},"%":{"ha":956,"x_min":54,"x_max":901,"o":"m 301 -12 l 217 -12 l 640 661 l 725 661 l 301 -12 m 383 469 q 218 267 383 267 q 54 469 54 267 q 218 674 54 674 q 383 469 383 674 m 301 469 q 218 600 301 600 q 138 469 138 600 q 218 342 138 342 q 301 469 301 342 m 901 193 q 735 -11 901 -11 q 569 193 569 -11 q 735 396 569 396 q 901 193 901 396 m 818 193 q 735 324 818 324 q 653 193 653 324 q 735 64 653 64 q 818 193 818 64 z "},"&":{"ha":675,"x_min":49,"x_max":658,"o":"m 583 -19 l 489 67 q 267 -12 379 -12 q 110 46 172 -12 q 49 186 49 104 q 181 382 49 310 q 129 511 129 449 q 180 633 129 583 q 310 683 231 683 q 422 642 378 683 q 465 538 465 601 q 307 354 465 428 q 483 175 369 285 q 561 369 551 264 l 635 369 q 542 124 615 219 q 658 19 607 64 l 583 -19 m 385 533 q 306 613 385 613 q 239 585 264 613 q 214 517 214 557 q 265 414 214 476 q 385 533 385 474 m 433 118 q 232 324 433 118 q 136 192 136 269 q 176 99 136 135 q 278 63 217 63 q 433 118 369 63 z "},"'":{"ha":235,"x_min":68,"x_max":167,"o":"m 149 463 l 86 463 l 68 731 l 167 731 l 149 463 z "},"(":{"ha":339,"x_min":61,"x_max":324,"o":"m 225 -76 q 61 326 61 93 q 221 736 61 544 l 324 736 q 147 326 147 543 q 322 -76 147 121 l 225 -76 z "},")":{"ha":339,"x_min":15,"x_max":276,"o":"m 276 331 q 113 -76 276 103 l 17 -76 q 190 331 190 131 q 15 736 190 532 l 111 736 q 276 331 276 560 z "},"*":{"ha":476,"x_min":54,"x_max":421,"o":"m 369 385 l 299 343 l 238 463 l 176 343 l 106 385 l 192 492 l 54 479 l 54 551 l 192 540 l 106 647 l 176 689 l 238 569 l 299 689 l 369 647 l 283 540 l 421 551 l 421 481 l 283 492 l 369 385 z "},"+":{"ha":579,"x_min":40,"x_max":539,"o":"m 333 0 l 246 0 l 246 218 l 40 218 l 40 294 l 246 294 l 246 504 l 333 504 l 333 294 l 539 294 l 539 218 l 333 218 l 333 0 z "},",":{"ha":239,"x_min":35,"x_max":190,"o":"m 190 51 q 64 -149 190 -86 l 35 -108 q 119 -11 108 -64 q 53 58 53 -7 q 73 108 53 88 q 121 128 93 128 q 170 106 150 128 q 190 51 190 85 z "},"-":{"ha":314,"x_min":18,"x_max":296,"o":"m 296 218 l 18 218 l 18 293 l 296 293 l 296 218 z "},".":{"ha":239,"x_min":53,"x_max":186,"o":"m 186 54 q 167 7 186 26 q 119 -12 147 -12 q 72 7 92 -12 q 53 54 53 26 q 72 101 53 82 q 119 121 92 121 q 167 101 147 121 q 186 54 186 82 z "},"/":{"ha":383,"x_min":-42,"x_max":418,"o":"m 47 -39 l -42 -39 l 329 683 l 418 683 l 47 -39 z "},":":{"ha":239,"x_min":53,"x_max":186,"o":"m 186 54 q 167 7 186 26 q 119 -12 147 -12 q 72 7 92 -12 q 53 54 53 26 q 72 101 53 82 q 119 121 92 121 q 167 101 147 121 q 186 54 186 82 m 186 396 q 167 349 186 368 q 119 329 147 329 q 72 349 92 329 q 53 396 53 368 q 72 443 53 424 q 119 463 92 463 q 167 443 147 463 q 186 396 186 424 z "},";":{"ha":239,"x_min":35,"x_max":190,"o":"m 186 396 q 167 349 186 368 q 119 329 147 329 q 72 349 92 329 q 53 396 53 368 q 72 443 53 424 q 119 463 92 463 q 167 443 147 463 q 186 396 186 424 m 190 51 q 64 -149 190 -86 l 35 -108 q 119 -11 108 -64 q 53 58 53 -7 q 73 108 53 88 q 121 128 93 128 q 170 106 150 128 q 190 51 190 85 z "},"<":{"ha":579,"x_min":50,"x_max":529,"o":"m 529 -14 l 50 236 l 50 293 l 529 542 l 529 454 l 161 264 l 529 74 l 529 -14 z "},"=":{"ha":579,"x_min":64,"x_max":515,"o":"m 515 310 l 64 310 l 64 382 l 515 382 l 515 310 m 515 135 l 64 135 l 64 208 l 515 208 l 515 135 z "},">":{"ha":579,"x_min":50,"x_max":529,"o":"m 529 236 l 50 -14 l 50 74 l 419 265 l 50 454 l 50 542 l 529 293 l 529 236 z "},"?":{"ha":401,"x_min":33,"x_max":368,"o":"m 368 515 q 276 347 368 440 q 213 221 214 285 q 222 163 213 200 l 143 163 q 129 225 129 204 q 205 381 129 293 q 281 513 281 468 q 183 592 281 592 q 68 551 124 592 l 33 619 q 193 671 115 671 q 320 628 272 671 q 368 515 368 586 m 254 54 q 235 7 254 26 q 188 -12 215 -12 q 140 7 160 -12 q 121 54 121 26 q 140 101 121 82 q 188 121 160 121 q 235 101 215 121 q 254 54 254 82 z "},"@":{"ha":794,"x_min":42,"x_max":750,"o":"m 750 246 q 669 68 750 135 q 501 10 599 10 l 493 60 q 344 1 428 1 q 242 35 285 1 q 200 121 200 69 q 476 279 200 272 q 376 385 476 385 q 276 356 322 385 l 253 404 q 399 443 319 443 q 512 394 472 443 q 551 263 551 346 l 551 118 q 553 74 551 86 l 569 74 q 651 137 618 88 q 685 243 685 186 q 613 422 685 350 q 419 493 540 493 q 198 406 283 493 q 113 189 113 319 q 188 0 113 75 q 375 -75 264 -75 q 544 -31 460 -75 l 571 -86 q 371 -132 474 -132 q 140 -43 235 -132 q 42 185 42 47 q 151 446 42 342 q 426 550 261 550 q 659 465 568 550 q 750 246 750 379 m 481 149 l 481 226 q 269 128 269 218 q 346 63 269 63 q 436 85 397 63 q 481 149 481 110 z "},"A":{"ha":626,"x_min":-1,"x_max":628,"o":"m 628 0 l 532 0 l 444 221 l 179 221 l 93 0 l -1 0 l 276 671 l 351 671 l 628 0 m 411 296 l 314 571 l 211 296 l 411 296 z "},"B":{"ha":550,"x_min":69,"x_max":508,"o":"m 508 192 q 214 -8 508 -8 q 69 10 151 -8 l 69 649 q 228 669 156 669 q 482 494 482 669 q 399 354 482 406 q 508 192 508 303 m 394 493 q 228 593 394 593 q 157 589 199 593 l 157 386 l 256 386 q 356 415 317 386 q 394 493 394 443 m 422 190 q 358 289 422 257 q 238 313 310 313 l 157 313 l 157 71 q 226 67 181 67 q 369 99 317 67 q 422 190 422 131 z "},"C":{"ha":600,"x_min":36,"x_max":569,"o":"m 569 35 q 328 -10 468 -10 q 116 84 196 -10 q 36 329 36 178 q 114 571 36 479 q 354 671 200 671 q 569 631 472 671 l 542 561 q 357 596 458 596 q 169 501 229 596 q 125 326 125 432 q 174 157 125 229 q 346 65 235 65 q 546 107 461 65 l 569 35 z "},"D":{"ha":638,"x_min":69,"x_max":601,"o":"m 601 344 q 529 104 601 194 q 256 -6 440 -6 q 69 8 199 -6 l 69 650 q 283 668 228 668 q 535 567 453 668 q 601 344 601 485 m 513 344 q 279 593 513 593 q 157 585 240 593 l 157 74 q 272 69 203 69 q 468 165 407 69 q 513 344 513 236 z "},"E":{"ha":497,"x_min":69,"x_max":463,"o":"m 463 0 l 69 0 l 69 661 l 463 661 l 463 586 l 157 586 l 157 386 l 429 386 l 429 311 l 157 311 l 157 75 l 463 75 l 463 0 z "},"F":{"ha":497,"x_min":69,"x_max":476,"o":"m 157 0 l 69 0 l 69 661 l 476 661 l 476 586 l 157 586 l 157 378 l 457 378 l 457 304 l 157 304 l 157 0 z "},"G":{"ha":631,"x_min":36,"x_max":575,"o":"m 575 15 l 531 26 q 328 -10 450 -10 q 116 84 196 -10 q 36 329 36 178 q 114 571 36 479 q 354 671 200 671 q 569 631 472 671 l 542 561 q 357 596 458 596 q 169 501 229 596 q 125 326 125 432 q 174 157 125 229 q 346 65 235 65 q 488 88 428 65 l 488 275 l 321 275 l 321 349 l 575 349 l 575 15 z "},"H":{"ha":656,"x_min":69,"x_max":586,"o":"m 586 0 l 499 0 l 499 314 l 157 314 l 157 0 l 69 0 l 69 661 l 157 661 l 157 389 l 499 389 l 499 661 l 586 661 l 586 0 z "},"I":{"ha":226,"x_min":69,"x_max":157,"o":"m 157 0 l 69 0 l 69 661 l 157 661 l 157 0 z "},"J":{"ha":392,"x_min":-8,"x_max":322,"o":"m 322 222 q 110 -12 322 -12 q -8 14 56 -12 l 15 86 q 110 63 56 63 q 205 101 175 63 q 235 236 235 140 l 235 661 l 322 661 l 322 222 z "},"K":{"ha":571,"x_min":69,"x_max":581,"o":"m 581 21 l 497 -10 l 211 318 l 157 265 l 157 0 l 69 0 l 69 661 l 157 661 l 157 369 l 472 672 l 557 650 l 271 376 l 581 21 z "},"L":{"ha":499,"x_min":69,"x_max":481,"o":"m 481 0 l 69 0 l 69 661 l 157 661 l 157 75 l 481 75 l 481 0 z "},"M":{"ha":797,"x_min":40,"x_max":757,"o":"m 757 0 l 672 0 l 636 513 l 428 0 l 369 0 l 161 513 l 125 0 l 40 0 l 88 661 l 179 661 l 399 111 l 618 661 l 710 661 l 757 0 z "},"N":{"ha":656,"x_min":69,"x_max":586,"o":"m 586 0 l 503 0 l 157 536 l 157 0 l 69 0 l 69 661 l 157 661 l 499 139 l 499 661 l 586 661 l 586 0 z "},"O":{"ha":719,"x_min":36,"x_max":683,"o":"m 597 331 q 532 522 597 444 q 360 599 467 599 q 188 522 253 599 q 122 331 122 444 q 188 140 122 217 q 360 63 253 63 q 532 140 467 63 q 597 331 597 217 m 683 329 q 593 85 683 183 q 360 -14 503 -14 q 126 85 217 -14 q 36 329 36 183 q 126 574 36 475 q 360 674 217 674 q 593 574 503 674 q 683 329 683 475 z "},"P":{"ha":542,"x_min":69,"x_max":507,"o":"m 507 471 q 430 316 507 375 q 226 257 353 257 q 157 261 194 257 l 157 0 l 69 0 l 69 651 q 246 668 169 668 q 438 613 368 668 q 507 471 507 558 m 419 467 q 244 593 419 593 q 157 589 197 593 l 157 340 q 236 332 204 332 q 419 467 419 332 z "},"Q":{"ha":719,"x_min":36,"x_max":689,"o":"m 597 331 q 532 522 597 444 q 360 599 467 599 q 188 522 253 599 q 122 331 122 444 q 188 140 122 217 q 360 63 253 63 q 532 140 467 63 q 597 331 597 217 m 683 329 q 631 137 683 218 q 488 24 579 56 l 488 18 q 689 -24 599 -10 l 661 -99 q 396 -19 556 -71 q 360 -14 389 -17 q 126 85 217 -14 q 36 329 36 183 q 126 574 36 475 q 360 674 217 674 q 593 574 503 674 q 683 329 683 475 z "},"R":{"ha":549,"x_min":69,"x_max":528,"o":"m 528 0 l 440 0 q 268 288 403 288 l 157 288 l 157 0 l 69 0 l 69 650 q 249 668 169 668 q 436 618 367 668 q 506 482 506 568 q 397 318 506 368 q 477 217 449 283 q 528 0 506 150 m 421 476 q 249 592 421 592 q 157 588 193 592 l 157 360 l 264 360 q 421 476 421 360 z "},"S":{"ha":507,"x_min":26,"x_max":471,"o":"m 471 181 q 402 41 471 94 q 231 -12 333 -12 q 26 47 121 -12 l 64 126 q 236 67 143 67 q 343 97 304 67 q 382 176 382 126 q 249 303 382 260 q 53 494 53 365 q 115 623 53 572 q 275 674 176 674 q 446 629 374 674 l 408 560 q 274 594 339 594 q 177 567 214 594 q 140 501 140 540 q 274 382 140 425 q 426 301 382 347 q 471 181 471 256 z "},"T":{"ha":585,"x_min":6,"x_max":579,"o":"m 338 0 l 250 0 l 250 586 l 6 586 l 6 661 l 579 661 l 579 586 l 338 586 l 338 0 z "},"U":{"ha":669,"x_min":69,"x_max":600,"o":"m 600 282 q 335 -12 600 -12 q 69 282 69 -12 l 69 661 l 158 661 l 158 282 q 335 63 158 63 q 511 282 511 63 l 511 661 l 600 661 l 600 282 z "},"V":{"ha":586,"x_min":-1,"x_max":588,"o":"m 333 0 l 253 0 l -1 661 l 93 661 l 293 119 l 493 661 l 588 661 l 333 0 z "},"W":{"ha":850,"x_min":-6,"x_max":856,"o":"m 672 0 l 592 0 l 425 540 l 258 0 l 178 0 l -6 661 l 90 661 l 219 133 l 383 661 l 467 661 l 631 133 l 760 661 l 856 661 l 672 0 z "},"X":{"ha":592,"x_min":-1,"x_max":594,"o":"m 594 0 l 490 0 l 299 268 l 104 0 l -1 0 l 244 339 l 8 661 l 115 661 l 299 403 l 478 661 l 586 661 l 350 339 l 594 0 z "},"Y":{"ha":550,"x_min":-8,"x_max":558,"o":"m 319 0 l 233 0 l 233 289 l -8 661 l 93 661 l 276 364 l 458 661 l 558 661 l 319 290 l 319 0 z "},"Z":{"ha":626,"x_min":38,"x_max":608,"o":"m 592 0 l 38 0 l 38 56 l 467 586 l 60 586 l 75 661 l 588 661 l 588 604 l 158 75 l 608 75 l 592 0 z "},"[":{"ha":325,"x_min":64,"x_max":283,"o":"m 283 -107 l 64 -107 l 64 733 l 283 733 l 283 661 l 146 661 l 146 -36 l 283 -36 l 283 -107 z "},"\\":{"ha":372,"x_min":-31,"x_max":419,"o":"m 419 -37 l 331 -37 l -31 671 l 60 671 l 419 -37 z "},"]":{"ha":325,"x_min":42,"x_max":261,"o":"m 261 -107 l 42 -107 l 42 -36 l 179 -36 l 179 661 l 42 661 l 42 733 l 261 733 l 261 -107 z "},"^":{"ha":581,"x_min":44,"x_max":547,"o":"m 547 211 l 457 211 l 296 563 l 135 211 l 44 211 l 261 667 l 332 667 l 547 211 z "},"_":{"ha":522,"x_min":0,"x_max":522,"o":"m 522 -243 l 0 -243 l 0 -169 l 522 -169 l 522 -243 z "},"`":{"ha":292,"x_min":47,"x_max":231,"o":"m 231 521 l 164 521 l 47 656 l 126 681 l 231 521 z "},"a":{"ha":510,"x_min":36,"x_max":458,"o":"m 458 4 l 376 -12 l 363 49 q 203 -12 292 -12 q 85 26 132 -12 q 36 129 38 64 q 351 310 36 306 q 238 414 338 414 q 72 379 163 414 l 63 458 q 242 486 157 486 q 439 283 439 486 l 439 126 q 458 4 439 74 m 351 150 l 351 233 q 125 138 125 229 q 207 64 125 64 q 299 86 253 64 q 351 150 351 113 z "},"b":{"ha":604,"x_min":69,"x_max":568,"o":"m 568 246 q 498 60 568 133 q 325 -12 428 -12 q 157 51 222 -12 q 153 0 157 15 l 69 0 q 75 126 75 68 l 75 700 l 163 700 l 163 425 q 332 490 228 490 q 501 420 433 490 q 568 246 568 350 m 482 246 q 439 369 482 321 q 324 418 396 418 q 214 379 265 418 q 163 288 163 340 l 163 179 q 206 95 163 126 q 318 64 249 64 q 439 113 396 64 q 482 246 482 161 z "},"c":{"ha":482,"x_min":36,"x_max":447,"o":"m 447 29 q 285 -12 381 -12 q 104 58 172 -12 q 36 239 36 128 q 104 421 36 351 q 285 490 172 490 q 447 449 379 490 l 417 376 q 282 417 351 417 q 168 367 211 417 q 125 239 125 318 q 168 110 125 158 q 282 61 211 61 q 417 101 351 61 l 447 29 z "},"d":{"ha":604,"x_min":36,"x_max":535,"o":"m 535 0 l 451 0 q 447 51 447 15 q 279 -12 382 -12 q 106 60 176 -12 q 36 246 36 133 q 103 420 36 350 q 272 490 171 490 q 442 425 376 490 l 442 700 l 529 700 l 529 126 q 535 0 529 68 m 442 179 l 442 288 q 390 379 442 340 q 281 418 339 418 q 165 369 208 418 q 122 246 122 321 q 165 113 122 161 q 286 64 208 64 q 399 95 356 64 q 442 179 442 126 z "},"e":{"ha":543,"x_min":36,"x_max":507,"o":"m 488 25 q 294 -12 386 -12 q 109 55 182 -12 q 36 229 36 122 q 108 421 36 347 q 289 490 179 490 q 507 222 503 490 l 122 222 q 176 106 128 147 q 300 65 224 65 q 478 101 378 65 l 488 25 m 421 296 q 376 384 414 350 q 281 418 339 418 q 181 384 225 418 q 128 296 138 350 l 421 296 z "},"f":{"ha":353,"x_min":24,"x_max":388,"o":"m 190 0 l 103 0 l 103 400 l 24 400 l 24 472 l 104 472 q 289 710 104 710 q 388 679 347 710 l 363 614 q 286 635 314 635 q 190 472 190 635 l 325 472 l 325 400 l 190 400 l 190 0 z "},"g":{"ha":461,"x_min":44,"x_max":419,"o":"m 406 -62 q 358 -168 406 -128 q 221 -208 311 -208 q 67 -161 146 -208 l 97 -92 q 226 -135 171 -135 q 298 -115 269 -135 q 326 -67 326 -94 q 249 7 326 -25 q 136 60 190 31 q 82 136 82 89 q 94 193 82 158 q 44 308 44 247 q 96 433 44 385 q 219 482 147 482 l 419 482 l 419 422 l 350 422 q 390 376 375 413 q 403 318 403 347 q 358 188 403 236 q 228 140 313 140 q 168 150 197 140 q 161 132 161 143 q 261 83 161 111 q 406 -62 406 43 m 329 311 q 299 382 329 353 q 228 411 269 411 q 156 382 186 411 q 126 311 126 353 q 156 241 126 269 q 228 213 186 213 q 303 241 278 213 q 329 311 329 269 z "},"h":{"ha":588,"x_min":69,"x_max":518,"o":"m 518 0 l 431 0 l 431 265 q 397 369 431 328 q 304 410 363 410 q 201 368 246 410 q 157 276 157 326 l 157 0 l 69 0 l 69 700 l 157 700 l 157 421 q 317 485 221 485 q 465 426 411 485 q 518 267 518 367 l 518 0 z "},"i":{"ha":226,"x_min":44,"x_max":178,"o":"m 157 0 l 69 0 l 69 472 l 157 472 l 157 0 m 178 611 q 158 564 178 583 q 111 544 139 544 q 64 564 83 544 q 44 611 44 583 q 64 658 44 639 q 111 678 83 678 q 158 658 139 678 q 178 611 178 639 z "},"j":{"ha":238,"x_min":-67,"x_max":190,"o":"m 168 25 q -57 -196 168 -190 l -67 -125 q 54 -83 28 -118 q 81 61 81 -49 l 81 472 l 168 472 l 168 25 m 190 611 q 171 564 190 583 q 124 544 151 544 q 76 564 96 544 q 57 611 57 583 q 76 658 57 639 q 124 678 96 678 q 171 658 151 678 q 190 611 190 639 z "},"k":{"ha":472,"x_min":69,"x_max":497,"o":"m 497 8 l 407 -14 l 190 228 l 157 200 l 157 0 l 69 0 l 69 700 l 157 700 l 157 301 l 368 482 l 464 465 l 251 278 l 497 8 z "},"l":{"ha":296,"x_min":69,"x_max":286,"o":"m 276 -11 q 69 243 69 0 l 69 700 l 157 700 l 157 263 q 190 111 157 156 q 286 68 219 74 l 276 -11 z "},"m":{"ha":883,"x_min":58,"x_max":814,"o":"m 814 0 l 726 0 l 726 261 q 697 367 726 325 q 610 413 664 413 q 524 376 564 413 q 485 299 485 340 l 485 0 l 397 0 l 397 285 q 290 413 397 413 q 200 370 243 413 q 157 282 157 328 l 157 0 l 69 0 l 69 347 q 58 474 69 433 l 140 474 q 150 419 150 450 q 214 467 169 447 q 301 486 258 486 q 449 408 393 486 q 626 486 522 486 q 761 424 708 486 q 814 263 814 363 l 814 0 z "},"n":{"ha":588,"x_min":58,"x_max":518,"o":"m 518 0 l 431 0 l 431 268 q 299 413 431 413 q 203 369 250 413 q 157 282 157 325 l 157 0 l 69 0 l 69 347 q 58 474 69 433 l 140 474 q 150 417 150 450 q 311 486 217 486 q 462 428 406 486 q 518 268 518 369 l 518 0 z "},"o":{"ha":572,"x_min":36,"x_max":536,"o":"m 536 239 q 465 61 536 133 q 286 -11 394 -11 q 107 61 178 -11 q 36 239 36 133 q 107 417 36 344 q 286 490 178 490 q 465 417 394 490 q 536 239 536 344 m 450 239 q 404 365 450 314 q 286 415 358 415 q 168 365 214 415 q 122 239 122 314 q 168 113 122 164 q 286 63 214 63 q 404 113 358 63 q 450 239 450 164 z "},"p":{"ha":599,"x_min":64,"x_max":563,"o":"m 563 249 q 492 60 563 133 q 315 -12 421 -12 q 157 44 218 -12 l 157 -199 l 69 -199 l 69 319 q 64 481 69 435 l 150 481 l 160 429 q 326 490 233 490 q 496 421 429 490 q 563 249 563 351 m 478 247 q 433 369 478 319 q 318 418 388 418 q 210 374 263 418 q 157 275 157 329 l 157 197 q 202 103 157 143 q 313 64 247 64 q 434 113 390 64 q 478 247 478 163 z "},"q":{"ha":599,"x_min":36,"x_max":535,"o":"m 529 -199 l 442 -199 l 442 44 q 283 -12 381 -12 q 107 60 178 -12 q 36 249 36 133 q 103 421 36 351 q 272 490 169 490 q 439 429 365 490 l 449 481 l 535 481 q 529 319 529 435 l 529 -199 m 442 197 l 442 275 q 389 374 442 329 q 281 418 336 418 q 166 369 211 418 q 121 247 121 319 q 165 113 121 163 q 286 64 208 64 q 397 103 351 64 q 442 197 442 143 z "},"r":{"ha":342,"x_min":53,"x_max":321,"o":"m 157 0 l 69 0 l 69 313 q 53 479 69 424 l 131 479 q 146 413 146 454 q 198 463 158 439 q 276 486 238 486 q 321 482 304 486 l 321 407 q 289 410 310 410 q 157 251 157 410 l 157 0 z "},"s":{"ha":411,"x_min":36,"x_max":376,"o":"m 376 135 q 326 28 376 69 q 189 -12 275 -12 q 36 33 118 -12 l 71 103 q 193 64 128 64 q 290 131 290 64 q 196 211 290 182 q 57 343 57 254 q 103 444 57 403 q 229 485 150 485 q 365 444 310 485 l 333 381 q 224 417 285 417 q 163 398 188 417 q 139 350 139 379 q 240 279 139 314 q 376 135 376 232 z "},"t":{"ha":358,"x_min":13,"x_max":346,"o":"m 336 7 q 244 -12 290 -12 q 144 31 181 -12 q 107 149 107 74 l 107 400 l 13 400 l 13 472 l 107 472 l 107 601 l 194 639 l 194 472 l 346 472 l 346 400 l 194 400 l 194 150 q 249 65 194 65 q 326 81 283 65 l 336 7 z "},"u":{"ha":581,"x_min":69,"x_max":540,"o":"m 540 6 l 456 -11 q 431 69 442 22 q 265 -12 347 -12 q 69 214 69 -12 l 69 472 l 157 472 l 157 222 q 276 65 157 65 q 375 103 326 65 q 424 193 424 142 l 424 472 l 511 472 l 511 126 q 540 6 511 79 z "},"v":{"ha":497,"x_min":-6,"x_max":503,"o":"m 283 0 l 214 0 l -6 472 l 86 472 l 249 108 l 411 472 l 503 472 l 283 0 z "},"w":{"ha":667,"x_min":-6,"x_max":672,"o":"m 554 0 l 481 0 l 333 379 l 186 0 l 113 0 l -6 472 l 85 472 l 156 115 l 297 472 l 369 472 l 511 115 l 582 472 l 672 472 l 554 0 z "},"x":{"ha":485,"x_min":-15,"x_max":500,"o":"m 500 0 l 393 0 l 242 182 l 92 0 l -15 0 l 190 242 l -3 472 l 103 472 l 243 306 l 382 472 l 488 472 l 294 242 l 500 0 z "},"y":{"ha":501,"x_min":-6,"x_max":506,"o":"m 44 -210 l 22 -137 q 204 35 146 -110 l -6 472 l 90 472 l 254 122 l 410 472 l 506 472 l 289 10 q 44 -210 201 -175 z "},"z":{"ha":497,"x_min":28,"x_max":471,"o":"m 458 0 l 28 0 l 28 53 l 342 399 l 42 399 l 58 472 l 461 472 l 461 415 l 149 74 l 471 74 l 458 0 z "},"{":{"ha":354,"x_min":42,"x_max":307,"o":"m 307 -122 l 275 -122 q 108 19 108 -122 q 118 109 108 47 q 128 196 128 171 q 42 249 128 246 l 42 321 q 128 372 128 324 q 118 463 128 401 q 108 550 108 525 q 275 692 108 692 l 307 692 l 307 619 l 271 619 q 190 547 194 619 q 210 376 210 429 q 192 319 210 346 q 151 285 175 292 q 210 192 210 261 q 190 22 210 140 q 271 -51 193 -51 l 307 -51 l 307 -122 z "},"|":{"ha":246,"x_min":83,"x_max":163,"o":"m 163 -231 l 83 -231 l 83 731 l 163 731 l 163 -231 z "},"}":{"ha":354,"x_min":51,"x_max":317,"o":"m 317 249 q 231 196 231 246 q 240 109 231 171 q 250 19 250 47 q 83 -122 250 -122 l 51 -122 l 51 -51 l 88 -51 q 168 17 168 -51 q 158 106 168 49 q 149 192 149 164 q 207 285 149 261 q 166 319 183 292 q 149 376 149 346 q 158 465 149 407 q 168 553 168 524 q 88 619 168 619 l 51 619 l 51 692 l 83 692 q 250 550 250 692 q 240 463 250 525 q 231 372 231 401 q 317 321 231 324 l 317 249 z "},"~":{"ha":586,"x_min":31,"x_max":567,"o":"m 567 338 q 532 237 567 274 q 442 200 497 200 q 295 243 408 200 q 158 286 182 286 q 107 200 110 286 l 31 200 l 31 226 q 67 324 31 288 q 158 360 104 360 q 307 319 196 360 q 444 278 418 278 q 492 360 488 278 l 567 360 l 567 338 z "},"¡":{"ha":233,"x_min":50,"x_max":183,"o":"m 167 -196 l 67 -196 l 76 272 l 154 272 l 167 -196 m 183 411 q 164 364 183 383 q 117 344 144 344 q 69 364 89 344 q 50 411 50 383 q 69 458 50 439 q 117 478 89 478 q 164 458 144 478 q 183 411 183 439 z "},"¢":{"ha":667,"x_min":85,"x_max":581,"o":"m 581 72 q 396 29 507 32 l 396 -78 l 319 -78 l 319 33 q 148 128 211 53 q 85 318 85 204 q 148 508 85 432 q 319 603 211 583 l 319 714 l 396 714 l 396 607 q 581 564 507 604 l 551 497 q 479 521 517 513 q 401 529 442 529 q 230 474 292 529 q 168 318 168 418 q 230 163 168 218 q 401 107 292 107 q 479 115 442 107 q 551 139 517 124 l 581 72 z "},"£":{"ha":667,"x_min":124,"x_max":543,"o":"m 543 0 l 124 0 l 124 51 q 238 224 238 122 q 236 253 238 235 q 232 290 235 271 l 125 290 l 125 354 l 224 354 q 219 408 221 383 q 217 456 217 432 q 399 650 217 650 q 525 618 454 650 l 500 560 q 396 585 439 585 q 285 456 285 585 q 294 354 285 403 l 449 354 l 449 290 l 306 290 q 308 263 307 279 q 308 233 308 247 q 250 65 308 132 l 543 65 l 543 0 z "},"¤":{"ha":667,"x_min":69,"x_max":597,"o":"m 593 314 q 546 167 593 232 l 597 113 l 538 49 l 483 106 q 332 57 422 57 q 183 106 244 57 l 129 49 l 69 113 l 121 167 q 74 314 74 232 q 121 461 74 396 l 69 515 l 129 579 l 183 522 q 332 571 244 571 q 483 522 422 571 l 538 579 l 597 515 l 546 461 q 593 314 593 396 m 507 314 q 456 436 507 385 q 333 488 404 488 q 210 436 260 488 q 160 314 160 385 q 210 190 160 240 q 333 140 260 140 q 456 190 404 140 q 507 314 507 240 z "},"¥":{"ha":667,"x_min":78,"x_max":589,"o":"m 533 126 l 374 126 l 374 25 l 293 25 l 293 126 l 133 126 l 133 196 l 293 196 l 293 240 l 133 240 l 133 310 l 279 310 l 78 640 l 175 640 l 332 376 l 490 640 l 589 640 l 386 311 l 533 311 l 533 240 l 374 240 l 374 196 l 533 196 l 533 126 z "},"¦":{"ha":224,"x_min":78,"x_max":144,"o":"m 144 306 l 78 306 l 78 661 l 144 661 l 144 306 m 144 -165 l 78 -165 l 78 192 l 144 192 l 144 -165 z "},"§":{"ha":528,"x_min":75,"x_max":451,"o":"m 426 99 q 376 -12 426 28 q 247 -53 325 -53 q 94 0 160 -53 l 126 58 q 185 21 154 32 q 250 10 215 10 q 330 33 300 10 q 360 92 360 56 q 293 174 360 140 q 221 202 258 188 q 149 232 183 217 q 75 346 75 268 q 129 454 75 406 q 104 526 104 486 q 151 628 104 589 q 276 667 199 667 q 349 656 313 667 q 422 625 386 644 l 388 565 q 269 606 332 606 q 201 585 229 606 q 174 535 174 565 q 183 507 174 519 q 207 483 192 494 q 243 466 218 476 q 301 444 268 456 q 412 381 372 419 q 451 294 451 343 q 438 234 451 263 q 400 179 424 206 q 426 99 426 147 m 381 288 q 353 335 381 311 q 285 375 326 360 q 222 399 249 388 q 176 418 194 410 q 142 349 142 388 q 153 319 142 332 q 183 292 164 306 q 220 274 197 285 q 279 251 243 264 q 324 234 306 242 q 354 218 342 226 q 375 253 369 236 q 381 288 381 269 z "},"¨":{"ha":474,"x_min":74,"x_max":400,"o":"m 194 590 q 176 547 194 564 q 135 529 158 529 q 92 547 110 529 q 74 590 74 564 q 92 633 74 615 q 135 651 110 651 q 176 633 158 651 q 194 590 194 615 m 400 590 q 382 547 400 564 q 340 529 364 529 q 298 547 317 529 q 279 590 279 564 q 298 633 279 615 q 340 651 317 651 q 382 633 364 651 q 400 590 400 615 z "},"©":{"ha":750,"x_min":38,"x_max":713,"o":"m 515 163 q 372 122 463 122 q 225 181 279 122 q 171 324 171 239 q 228 477 171 421 q 379 533 285 533 q 508 500 464 533 l 492 450 q 379 481 439 481 q 235 331 235 481 q 381 179 235 179 q 497 214 449 179 l 515 163 m 713 333 q 613 95 713 194 q 375 -4 514 -4 q 137 95 236 -4 q 38 333 38 194 q 137 572 38 472 q 375 671 236 671 q 613 572 514 671 q 713 333 713 472 m 654 333 q 572 531 654 449 q 375 613 490 613 q 178 531 260 613 q 96 333 96 449 q 178 136 96 218 q 375 54 260 54 q 572 136 490 54 q 654 333 654 218 z "},"ª":{"ha":350,"x_min":36,"x_max":313,"o":"m 313 344 l 253 344 q 249 360 250 351 q 244 381 247 369 q 147 340 206 340 q 36 440 36 340 q 240 556 36 551 q 216 605 238 590 q 167 619 194 619 q 119 614 143 619 q 71 592 94 608 l 51 639 q 113 667 81 658 q 176 675 144 675 q 301 522 301 675 l 301 406 q 303 383 301 399 q 313 344 306 367 m 240 450 l 240 504 q 131 488 165 504 q 97 440 97 472 q 156 392 97 392 q 183 396 168 392 q 210 408 197 400 q 232 426 224 415 q 240 450 240 436 z "},"«":{"ha":494,"x_min":42,"x_max":453,"o":"m 453 65 l 369 65 l 211 249 l 369 436 l 451 436 l 294 250 l 453 65 m 283 65 l 199 65 l 42 249 l 196 438 l 282 438 l 124 249 l 283 65 z "},"¬":{"ha":622,"x_min":47,"x_max":560,"o":"m 560 122 l 493 122 l 493 325 l 47 325 l 47 388 l 560 388 l 560 122 z "},"®":{"ha":750,"x_min":38,"x_max":713,"o":"m 526 124 l 472 124 q 364 306 447 306 l 294 306 l 294 124 l 238 124 l 238 533 q 351 544 301 544 q 469 513 425 544 q 513 428 513 482 q 444 325 513 356 q 495 260 478 301 q 526 124 513 218 m 461 424 q 351 496 461 496 q 294 493 317 496 l 294 351 l 360 351 q 461 424 461 351 m 713 333 q 613 95 713 194 q 375 -4 514 -4 q 137 95 236 -4 q 38 333 38 194 q 137 572 38 472 q 375 671 236 671 q 613 572 514 671 q 713 333 713 472 m 654 333 q 572 531 654 449 q 375 613 490 613 q 178 531 260 613 q 96 333 96 449 q 178 136 96 218 q 375 54 260 54 q 572 136 490 54 q 654 333 654 218 z "},"¯":{"ha":522,"x_min":0,"x_max":522,"o":"m 522 733 l 0 733 l 0 807 l 522 807 l 522 733 z "},"°":{"ha":385,"x_min":68,"x_max":315,"o":"m 315 551 q 279 464 315 500 q 192 428 243 428 q 104 464 140 428 q 68 551 68 500 q 104 639 68 603 q 192 675 140 675 q 279 639 243 675 q 315 551 315 603 m 271 551 q 247 607 271 583 q 192 631 224 631 q 136 607 160 631 q 113 551 113 583 q 136 496 113 519 q 192 472 160 472 q 247 496 224 472 q 271 551 271 519 z "},"±":{"ha":611,"x_min":50,"x_max":563,"o":"m 563 0 l 50 0 l 50 76 l 563 76 l 563 0 m 556 301 l 350 301 l 350 108 l 263 108 l 263 301 l 57 301 l 57 378 l 263 378 l 263 588 l 350 588 l 350 378 l 556 378 l 556 301 z "},"²":{"ha":361,"x_min":38,"x_max":310,"o":"m 301 264 l 38 264 q 69 347 38 307 q 137 422 100 386 q 205 492 174 458 q 236 558 236 526 q 223 594 236 582 q 189 607 210 607 q 142 588 163 607 q 118 531 121 568 l 60 542 q 100 637 67 604 q 185 669 133 669 q 270 640 238 669 q 303 558 303 610 q 285 494 303 529 q 228 419 267 460 l 138 326 l 310 326 l 301 264 z "},"³":{"ha":361,"x_min":50,"x_max":317,"o":"m 317 408 q 273 301 317 342 q 154 260 229 261 q 50 294 97 260 l 78 353 q 117 331 97 336 q 156 325 136 325 q 226 348 200 325 q 251 407 251 371 q 237 443 251 431 q 203 456 222 456 q 169 449 186 456 q 142 435 153 443 l 119 476 q 201 528 174 501 q 228 578 228 556 q 189 608 228 608 q 143 592 165 608 q 110 544 121 576 l 58 571 q 193 671 101 671 q 289 589 289 671 q 244 503 289 542 q 317 408 317 482 z "},"´":{"ha":360,"x_min":74,"x_max":286,"o":"m 139 508 l 74 508 l 178 668 l 286 668 l 139 508 z "},"µ":{"ha":575,"x_min":65,"x_max":536,"o":"m 536 6 l 451 -11 q 440 20 444 4 q 431 56 435 36 q 351 6 392 25 q 261 -12 310 -12 q 201 -1 229 -12 q 153 33 172 10 l 153 -196 l 65 -196 l 65 475 l 153 475 l 153 222 q 272 65 153 65 q 372 101 324 65 q 419 193 419 136 l 419 475 l 507 475 l 507 126 q 515 71 507 101 q 536 6 522 40 z "},"¶":{"ha":528,"x_min":67,"x_max":450,"o":"m 450 -87 l 403 -87 l 403 615 l 336 615 l 336 -87 l 288 -87 l 288 250 l 282 250 q 133 302 199 250 q 67 446 67 354 q 342 660 67 660 q 450 653 415 660 l 450 -87 z "},"·":{"ha":239,"x_min":53,"x_max":186,"o":"m 186 253 q 167 206 186 225 q 119 186 147 186 q 72 206 92 186 q 53 253 53 225 q 72 300 53 281 q 119 319 92 319 q 167 300 147 319 q 186 253 186 281 z "},"¸":{"ha":346,"x_min":74,"x_max":272,"o":"m 272 -125 q 243 -195 272 -169 q 161 -221 214 -221 q 118 -215 142 -221 q 74 -196 94 -208 l 93 -151 q 133 -167 113 -161 q 164 -172 153 -172 q 208 -131 208 -172 q 119 -76 208 -92 l 179 15 l 239 15 l 200 -39 q 255 -72 238 -50 q 272 -125 272 -93 z "},"¹":{"ha":361,"x_min":75,"x_max":292,"o":"m 292 271 l 106 271 l 106 325 l 165 325 l 165 575 l 110 522 l 75 569 l 190 672 q 222 659 211 672 q 233 625 233 646 l 233 325 l 292 325 l 292 271 z "},"º":{"ha":408,"x_min":26,"x_max":381,"o":"m 381 499 q 328 373 381 424 q 203 322 276 322 q 77 373 128 322 q 26 499 26 424 q 77 624 26 572 q 203 676 128 676 q 328 624 276 676 q 381 499 381 572 m 319 499 q 285 581 319 546 q 203 615 250 615 q 122 581 156 615 q 88 499 88 546 q 122 417 88 451 q 203 383 156 383 q 285 417 250 383 q 319 499 319 451 z "},"»":{"ha":494,"x_min":42,"x_max":453,"o":"m 125 65 l 42 65 l 200 250 l 43 436 l 125 436 l 283 249 l 125 65 m 296 65 l 211 65 l 371 249 l 213 438 l 299 438 l 453 249 l 296 65 z "},"¼":{"ha":753,"x_min":32,"x_max":703,"o":"m 250 244 l 64 244 l 64 299 l 124 299 l 124 540 l 71 494 l 32 544 l 149 647 q 192 599 192 644 l 192 299 l 250 299 l 250 244 m 219 -12 l 150 -12 l 549 658 l 618 658 l 219 -12 m 576 150 l 576 314 q 522 240 544 286 q 493 150 499 193 l 576 150 m 644 0 l 576 0 l 576 83 l 421 83 q 435 183 421 128 q 476 288 449 239 q 548 372 504 338 q 644 407 592 406 l 644 150 l 703 150 l 700 83 l 644 83 l 644 0 z "},"½":{"ha":753,"x_min":32,"x_max":731,"o":"m 722 0 l 458 0 q 494 93 463 53 q 560 165 525 133 q 594 198 576 182 q 625 231 611 214 q 648 263 639 247 q 657 294 657 279 q 645 328 657 314 q 610 342 633 342 q 543 267 553 342 l 481 278 q 520 373 486 340 q 606 406 554 406 q 692 376 658 406 q 725 294 725 347 q 705 229 725 260 q 658 170 685 199 q 603 115 631 142 q 558 64 575 89 l 731 64 l 722 0 m 219 -12 l 150 -12 l 549 658 l 618 658 l 219 -12 m 250 244 l 64 244 l 64 299 l 124 299 l 124 540 l 71 494 l 32 544 l 149 647 q 192 599 192 644 l 192 299 l 250 299 l 250 244 z "},"¾":{"ha":753,"x_min":43,"x_max":703,"o":"m 219 -12 l 150 -12 l 549 658 l 618 658 l 219 -12 m 310 396 q 296 332 310 360 q 260 285 282 304 q 208 257 238 267 q 147 247 178 247 q 43 282 90 247 l 71 342 q 110 319 90 326 q 149 311 129 311 q 219 335 193 311 q 244 394 244 358 q 199 443 244 443 q 135 418 164 443 l 113 460 q 195 517 174 492 q 217 569 217 542 q 208 588 217 581 q 182 596 200 596 q 103 528 126 596 l 51 554 q 186 654 93 654 q 258 632 235 654 q 281 579 281 610 q 238 493 281 532 q 292 461 275 488 q 310 396 310 435 m 576 150 l 576 314 q 522 240 544 286 q 493 150 499 193 l 576 150 m 644 0 l 576 0 l 576 83 l 421 83 q 435 183 421 128 q 476 288 449 239 q 548 372 504 338 q 644 407 592 406 l 644 150 l 703 150 l 700 83 l 644 83 l 644 0 z "},"¿":{"ha":401,"x_min":33,"x_max":368,"o":"m 368 -158 q 208 -210 286 -210 q 81 -167 129 -210 q 33 -54 33 -125 q 125 114 33 19 q 172 178 157 146 q 189 240 188 211 q 179 299 189 264 l 258 299 q 269 263 265 279 q 272 236 272 247 q 192 75 272 160 q 121 -51 121 0 q 218 -131 121 -131 q 333 -90 278 -131 l 368 -158 m 279 407 q 260 360 279 379 q 214 340 240 340 q 168 360 188 340 q 149 407 149 379 q 168 454 149 435 q 214 474 188 474 q 260 454 240 474 q 279 407 279 435 z "},"À":{"ha":626,"x_min":-1,"x_max":628,"o":"m 628 0 l 532 0 l 444 221 l 179 221 l 93 0 l -1 0 l 276 671 l 351 671 l 628 0 m 411 296 l 314 571 l 211 296 l 411 296 m 11847 4060 l 11781 4060 l 11664 4194 l 11743 4219 l 11847 4060 z "},"Á":{"ha":626,"x_min":-1,"x_max":628,"o":"m 628 0 l 532 0 l 444 221 l 179 221 l 93 0 l -1 0 l 276 671 l 351 671 l 628 0 m 411 296 l 314 571 l 211 296 l 411 296 m 13953 4429 l 14032 4404 l 13915 4269 l 13849 4269 l 13953 4429 z "},"Â":{"ha":626,"x_min":-1,"x_max":628,"o":"m 628 0 l 532 0 l 444 221 l 179 221 l 93 0 l -1 0 l 276 671 l 351 671 l 628 0 m 411 296 l 314 571 l 211 296 l 411 296 m 1515 1668 l 1440 1668 l 1383 1767 l 1328 1668 l 1251 1668 l 1360 1828 l 1408 1828 l 1515 1668 z "},"Ã":{"ha":626,"x_min":-1,"x_max":628,"o":"m 628 0 l 532 0 l 444 221 l 179 221 l 93 0 l -1 0 l 276 671 l 351 671 l 628 0 m 411 296 l 314 571 l 211 296 l 411 296 m 12469 4928 q 12448 4851 12468 4879 q 12388 4822 12428 4822 q 12360 4828 12376 4822 q 12327 4842 12344 4835 q 12294 4856 12310 4850 q 12269 4863 12279 4863 q 12256 4852 12258 4863 q 12253 4829 12253 4842 l 12192 4829 q 12212 4899 12192 4871 q 12269 4928 12232 4928 q 12298 4922 12282 4928 q 12329 4909 12314 4917 q 12359 4896 12344 4901 q 12383 4890 12374 4890 q 12410 4928 12410 4890 l 12469 4928 z "},"Ä":{"ha":626,"x_min":-1,"x_max":628,"o":"m 628 0 l 532 0 l 444 221 l 179 221 l 93 0 l -1 0 l 276 671 l 351 671 l 628 0 m 411 296 l 314 571 l 211 296 l 411 296 m 271 779 q 253 735 271 753 q 211 718 235 718 q 168 735 186 718 q 150 779 150 753 q 168 822 150 804 q 211 840 186 840 q 253 822 235 840 q 271 779 271 804 m 476 779 q 458 735 476 753 q 417 718 440 718 q 374 735 393 718 q 356 779 356 753 q 374 822 356 804 q 417 840 393 840 q 458 822 440 840 q 476 779 476 804 z "},"Å":{"ha":626,"x_min":-1,"x_max":628,"o":"m 628 0 l 532 0 l 444 221 l 179 221 l 93 0 l -1 0 l 276 671 l 351 671 l 628 0 m 411 296 l 314 571 l 211 296 l 411 296 m 621 1022 q 588 944 621 976 q 510 911 556 911 q 431 944 464 911 q 399 1022 399 976 q 431 1101 399 1068 q 510 1133 464 1133 q 588 1101 556 1133 q 621 1022 621 1068 m 563 1022 q 547 1060 563 1044 q 510 1075 532 1075 q 472 1060 488 1075 q 456 1022 456 1044 q 472 984 456 1000 q 510 968 488 968 q 547 984 532 968 q 563 1022 563 1000 z "},"Æ":{"ha":810,"x_min":-14,"x_max":771,"o":"m 771 0 l 453 0 l 415 264 l 221 264 l 81 0 l -14 0 l 346 671 l 754 671 l 754 594 l 451 594 l 478 390 l 740 390 l 740 314 l 490 314 l 526 76 l 771 76 l 771 0 m 404 339 l 378 563 l 258 339 l 404 339 z "},"Ç":{"ha":600,"x_min":36,"x_max":569,"o":"m 569 35 q 328 -10 468 -10 q 116 84 196 -10 q 36 329 36 178 q 114 571 36 479 q 354 671 200 671 q 569 631 472 671 l 542 561 q 357 596 458 596 q 169 501 229 596 q 125 326 125 432 q 174 157 125 229 q 346 65 235 65 q 546 107 461 65 l 569 35 m 399 -125 q 369 -195 399 -169 q 288 -221 340 -221 q 244 -215 268 -221 q 200 -196 221 -208 l 219 -151 q 259 -167 239 -161 q 290 -172 279 -172 q 335 -131 335 -172 q 246 -76 335 -92 l 306 15 l 365 15 l 326 -39 q 381 -72 364 -50 q 399 -125 399 -93 z "},"È":{"ha":497,"x_min":69,"x_max":818,"o":"m 463 0 l 69 0 l 69 661 l 463 661 l 463 586 l 157 586 l 157 386 l 429 386 l 429 311 l 157 311 l 157 75 l 463 75 l 463 0 m 11783 4060 l 11717 4060 l 11600 4194 l 11679 4219 l 11783 4060 z "},"É":{"ha":497,"x_min":69,"x_max":849,"o":"m 463 0 l 69 0 l 69 661 l 463 661 l 463 586 l 157 586 l 157 386 l 429 386 l 429 311 l 157 311 l 157 75 l 463 75 l 463 0 m 13889 4429 l 13968 4404 l 13851 4269 l 13785 4269 l 13889 4429 z "},"Ê":{"ha":497,"x_min":69,"x_max":542,"o":"m 463 0 l 69 0 l 69 661 l 463 661 l 463 586 l 157 586 l 157 386 l 429 386 l 429 311 l 157 311 l 157 75 l 463 75 l 463 0 m 1451 1668 l 1376 1668 l 1319 1767 l 1264 1668 l 1188 1668 l 1296 1828 l 1344 1828 l 1451 1668 z "},"Ë":{"ha":497,"x_min":69,"x_max":488,"o":"m 463 0 l 69 0 l 69 661 l 463 661 l 463 586 l 157 586 l 157 386 l 429 386 l 429 311 l 157 311 l 157 75 l 463 75 l 463 0 m 206 779 q 188 735 206 753 q 146 718 169 718 q 103 735 121 718 q 85 779 85 753 q 103 822 85 804 q 146 840 121 840 q 188 822 169 840 q 206 779 206 804 m 411 779 q 393 735 411 753 q 351 718 375 718 q 309 735 328 718 q 290 779 290 753 q 309 822 290 804 q 351 840 328 840 q 393 822 375 840 q 411 779 411 804 z "},"Ì":{"ha":226,"x_min":69,"x_max":1096,"o":"m 157 0 l 69 0 l 69 661 l 157 661 l 157 0 m 11647 4060 l 11581 4060 l 11464 4194 l 11543 4219 l 11647 4060 z "},"Í":{"ha":226,"x_min":69,"x_max":1157,"o":"m 157 0 l 69 0 l 69 661 l 157 661 l 157 0 m 13753 4429 l 13832 4404 l 13715 4269 l 13649 4269 l 13753 4429 z "},"Î":{"ha":226,"x_min":69,"x_max":513,"o":"m 157 0 l 69 0 l 69 661 l 157 661 l 157 0 m 1325 1668 l 1250 1668 l 1193 1767 l 1138 1668 l 1061 1668 l 1169 1828 l 1218 1828 l 1325 1668 z "},"Ï":{"ha":226,"x_min":46,"x_max":372,"o":"m 157 0 l 69 0 l 69 661 l 157 661 l 157 0 m 79 779 q 61 735 79 753 q 19 718 43 718 q -24 735 -6 718 q -42 779 -42 753 q -24 822 -42 804 q 19 840 -6 840 q 61 822 43 840 q 79 779 79 804 m 285 779 q 267 735 285 753 q 225 718 249 718 q 183 735 201 718 q 164 779 164 753 q 183 822 164 804 q 225 840 201 840 q 267 822 249 840 q 285 779 285 804 z "},"Ð":{"ha":638,"x_min":13,"x_max":601,"o":"m 601 344 q 529 104 601 194 q 256 -6 440 -6 q 69 8 199 -6 l 69 286 l 13 286 l 13 361 l 69 361 l 69 650 q 283 668 228 668 q 535 567 453 668 q 601 344 601 485 m 513 344 q 279 593 513 593 q 157 585 240 593 l 157 361 l 379 361 l 379 286 l 157 286 l 157 74 q 272 69 203 69 q 468 165 407 69 q 513 344 513 236 z "},"Ñ":{"ha":656,"x_min":69,"x_max":960,"o":"m 586 0 l 503 0 l 157 536 l 157 0 l 69 0 l 69 661 l 157 661 l 499 139 l 499 661 l 586 661 l 586 0 m 12485 4928 q 12463 4851 12483 4879 q 12403 4822 12443 4822 q 12376 4828 12392 4822 q 12342 4842 12360 4835 q 12310 4856 12325 4850 q 12285 4863 12294 4863 q 12271 4852 12274 4863 q 12268 4829 12268 4842 l 12207 4829 q 12227 4899 12207 4871 q 12285 4928 12247 4928 q 12313 4922 12297 4928 q 12344 4909 12329 4917 q 12374 4896 12360 4901 q 12399 4890 12389 4890 q 12425 4928 12425 4890 l 12485 4928 z "},"Ò":{"ha":719,"x_min":36,"x_max":1621,"o":"m 597 331 q 532 522 597 444 q 360 599 467 599 q 188 522 253 599 q 122 331 122 444 q 188 140 122 217 q 360 63 253 63 q 532 140 467 63 q 597 331 597 217 m 683 329 q 593 85 683 183 q 360 -14 503 -14 q 126 85 217 -14 q 36 329 36 183 q 126 574 36 475 q 360 674 217 674 q 593 574 503 674 q 683 329 683 475 m 11894 4060 l 11828 4060 l 11711 4194 l 11790 4219 l 11894 4060 z "},"Ó":{"ha":719,"x_min":36,"x_max":1713,"o":"m 597 331 q 532 522 597 444 q 360 599 467 599 q 188 522 253 599 q 122 331 122 444 q 188 140 122 217 q 360 63 253 63 q 532 140 467 63 q 597 331 597 217 m 683 329 q 593 85 683 183 q 360 -14 503 -14 q 126 85 217 -14 q 36 329 36 183 q 126 574 36 475 q 360 674 217 674 q 593 574 503 674 q 683 329 683 475 m 14000 4429 l 14079 4404 l 13963 4269 l 13896 4269 l 14000 4429 z "},"Ô":{"ha":719,"x_min":36,"x_max":721,"o":"m 597 331 q 532 522 597 444 q 360 599 467 599 q 188 522 253 599 q 122 331 122 444 q 188 140 122 217 q 360 63 253 63 q 532 140 467 63 q 597 331 597 217 m 683 329 q 593 85 683 183 q 360 -14 503 -14 q 126 85 217 -14 q 36 329 36 183 q 126 574 36 475 q 360 674 217 674 q 593 574 503 674 q 683 329 683 475 m 1563 1668 l 1488 1668 l 1431 1767 l 1375 1668 l 1299 1668 l 1407 1828 l 1456 1828 l 1563 1668 z "},"Õ":{"ha":719,"x_min":36,"x_max":1500,"o":"m 597 331 q 532 522 597 444 q 360 599 467 599 q 188 522 253 599 q 122 331 122 444 q 188 140 122 217 q 360 63 253 63 q 532 140 467 63 q 597 331 597 217 m 683 329 q 593 85 683 183 q 360 -14 503 -14 q 126 85 217 -14 q 36 329 36 183 q 126 574 36 475 q 360 674 217 674 q 593 574 503 674 q 683 329 683 475 m 12517 4928 q 12495 4851 12515 4879 q 12435 4822 12475 4822 q 12408 4828 12424 4822 q 12374 4842 12392 4835 q 12342 4856 12357 4850 q 12317 4863 12326 4863 q 12303 4852 12306 4863 q 12300 4829 12300 4842 l 12239 4829 q 12259 4899 12239 4871 q 12317 4928 12279 4928 q 12345 4922 12329 4928 q 12376 4909 12361 4917 q 12406 4896 12392 4901 q 12431 4890 12421 4890 q 12457 4928 12457 4890 l 12517 4928 z "},"Ö":{"ha":719,"x_min":36,"x_max":683,"o":"m 597 331 q 532 522 597 444 q 360 599 467 599 q 188 522 253 599 q 122 331 122 444 q 188 140 122 217 q 360 63 253 63 q 532 140 467 63 q 597 331 597 217 m 683 329 q 593 85 683 183 q 360 -14 503 -14 q 126 85 217 -14 q 36 329 36 183 q 126 574 36 475 q 360 674 217 674 q 593 574 503 674 q 683 329 683 475 m 317 779 q 299 735 317 753 q 257 718 281 718 q 214 735 232 718 q 196 779 196 753 q 214 822 196 804 q 257 840 232 840 q 299 822 281 840 q 317 779 317 804 m 522 779 q 504 735 522 753 q 463 718 486 718 q 420 735 439 718 q 401 779 401 753 q 420 822 401 804 q 463 840 439 840 q 504 822 486 840 q 522 779 522 804 z "},"×":{"ha":579,"x_min":38,"x_max":542,"o":"m 542 47 l 486 -7 l 289 199 q 190 96 240 150 q 93 -7 140 42 l 38 47 l 235 253 q 136 358 186 304 q 38 463 86 411 l 93 517 l 290 311 q 389 415 338 361 q 486 517 440 468 l 542 463 l 343 254 l 542 47 z "},"Ø":{"ha":719,"x_min":36,"x_max":683,"o":"m 683 329 q 593 85 683 183 q 360 -14 503 -14 q 240 6 294 -14 l 218 -39 l 129 -39 l 171 43 q 126 85 147 61 q 36 329 36 183 q 126 574 36 475 q 360 674 217 674 q 483 651 428 674 l 500 683 l 589 683 l 551 611 q 593 574 574 594 q 683 329 683 475 m 449 582 q 360 599 408 599 q 188 522 253 599 q 122 331 122 444 q 188 139 122 217 q 208 117 197 126 l 449 582 m 597 331 q 532 521 597 444 q 515 539 524 531 l 276 76 q 360 63 314 63 q 532 140 467 63 q 597 331 597 217 z "},"Ù":{"ha":669,"x_min":69,"x_max":2121,"o":"m 600 282 q 335 -12 600 -12 q 69 282 69 -12 l 69 661 l 158 661 l 158 282 q 335 63 158 63 q 511 282 511 63 l 511 661 l 600 661 l 600 282 m 11869 4060 l 11803 4060 l 11686 4194 l 11765 4219 l 11869 4060 z "},"Ú":{"ha":669,"x_min":69,"x_max":2243,"o":"m 600 282 q 335 -12 600 -12 q 69 282 69 -12 l 69 661 l 158 661 l 158 282 q 335 63 158 63 q 511 282 511 63 l 511 661 l 600 661 l 600 282 m 13975 4429 l 14054 4404 l 13938 4269 l 13871 4269 l 13975 4429 z "},"Û":{"ha":669,"x_min":69,"x_max":904,"o":"m 600 282 q 335 -12 600 -12 q 69 282 69 -12 l 69 661 l 158 661 l 158 282 q 335 63 158 63 q 511 282 511 63 l 511 661 l 600 661 l 600 282 m 1538 1668 l 1463 1668 l 1406 1767 l 1350 1668 l 1274 1668 l 1382 1828 l 1431 1828 l 1538 1668 z "},"Ü":{"ha":669,"x_min":69,"x_max":600,"o":"m 600 282 q 335 -12 600 -12 q 69 282 69 -12 l 69 661 l 158 661 l 158 282 q 335 63 158 63 q 511 282 511 63 l 511 661 l 600 661 l 600 282 m 292 779 q 274 735 292 753 q 232 718 256 718 q 189 735 207 718 q 171 779 171 753 q 189 822 171 804 q 232 840 207 840 q 274 822 256 840 q 292 779 292 804 m 497 779 q 479 735 497 753 q 438 718 461 718 q 395 735 414 718 q 376 779 376 753 q 395 822 376 804 q 438 840 414 840 q 479 822 461 840 q 497 779 497 804 z "},"Ý":{"ha":550,"x_min":-8,"x_max":2714,"o":"m 319 0 l 233 0 l 233 289 l -8 661 l 93 661 l 276 364 l 458 661 l 558 661 l 319 290 l 319 0 m 13915 4429 l 13994 4404 l 13878 4269 l 13811 4269 l 13915 4429 z "},"Þ":{"ha":547,"x_min":74,"x_max":496,"o":"m 496 346 q 425 183 496 239 q 228 126 354 126 q 156 132 183 126 l 156 0 l 74 0 l 74 661 l 156 661 l 156 560 q 228 565 183 565 q 425 509 354 565 q 496 346 496 453 m 415 346 q 231 493 415 493 q 156 482 188 493 l 156 210 q 231 199 188 199 q 415 346 415 199 z "},"ß":{"ha":590,"x_min":64,"x_max":522,"o":"m 522 151 q 474 31 522 75 q 346 -12 426 -12 q 277 -3 310 -12 q 213 22 244 6 l 240 97 q 347 64 303 64 q 417 87 392 64 q 442 143 442 110 q 421 197 442 174 q 374 244 400 221 q 328 292 349 267 q 307 350 307 317 q 321 390 307 368 q 352 433 335 411 q 383 474 369 454 q 397 511 397 494 q 297 604 397 604 q 181 390 181 604 l 181 -56 q 172 -128 181 -92 q 143 -199 163 -164 l 64 -178 q 90 -113 82 -143 q 97 -56 97 -83 l 97 413 q 307 683 97 683 q 430 638 382 683 q 478 514 478 593 q 464 456 478 482 q 434 410 450 431 q 404 374 418 389 q 390 346 390 358 q 411 313 390 332 q 456 269 432 294 q 501 215 481 244 q 522 151 522 186 z "},"à":{"ha":510,"x_min":36,"x_max":2540,"o":"m 458 4 l 376 -12 l 363 49 q 203 -12 292 -12 q 85 26 132 -12 q 36 129 38 64 q 351 310 36 306 q 238 414 338 414 q 72 379 163 414 l 63 458 q 242 486 157 486 q 439 283 439 486 l 439 126 q 458 4 439 74 m 351 150 l 351 233 q 125 138 125 229 q 207 64 125 64 q 299 86 253 64 q 351 150 351 113 m 11789 3871 l 11722 3871 l 11606 4006 l 11685 4031 l 11789 3871 z "},"á":{"ha":510,"x_min":36,"x_max":3164,"o":"m 458 4 l 376 -12 l 363 49 q 203 -12 292 -12 q 85 26 132 -12 q 36 129 38 64 q 351 310 36 306 q 238 414 338 414 q 72 379 163 414 l 63 458 q 242 486 157 486 q 439 283 439 486 l 439 126 q 458 4 439 74 m 351 150 l 351 233 q 125 138 125 229 q 207 64 125 64 q 299 86 253 64 q 351 150 351 113 m 13894 4240 l 13974 4215 l 13857 4081 l 13790 4081 l 13894 4240 z "},"â":{"ha":510,"x_min":36,"x_max":990,"o":"m 458 4 l 376 -12 l 363 49 q 203 -12 292 -12 q 85 26 132 -12 q 36 129 38 64 q 351 310 36 306 q 238 414 338 414 q 72 379 163 414 l 63 458 q 242 486 157 486 q 439 283 439 486 l 439 126 q 458 4 439 74 m 351 150 l 351 233 q 125 138 125 229 q 207 64 125 64 q 299 86 253 64 q 351 150 351 113 m 1440 1479 l 1365 1479 l 1308 1578 l 1253 1479 l 1176 1479 l 1285 1639 l 1333 1639 l 1440 1479 z "},"ã":{"ha":510,"x_min":36,"x_max":1935,"o":"m 458 4 l 376 -12 l 363 49 q 203 -12 292 -12 q 85 26 132 -12 q 36 129 38 64 q 351 310 36 306 q 238 414 338 414 q 72 379 163 414 l 63 458 q 242 486 157 486 q 439 283 439 486 l 439 126 q 458 4 439 74 m 351 150 l 351 233 q 125 138 125 229 q 207 64 125 64 q 299 86 253 64 q 351 150 351 113 m 12411 4739 q 12390 4662 12410 4690 q 12329 4633 12369 4633 q 12302 4640 12318 4633 q 12269 4653 12286 4646 q 12236 4667 12251 4661 q 12211 4674 12221 4674 q 12197 4663 12200 4674 q 12194 4640 12194 4653 l 12133 4640 q 12153 4710 12133 4682 q 12211 4739 12174 4739 q 12240 4733 12224 4739 q 12271 4720 12256 4728 q 12301 4707 12286 4713 q 12325 4701 12315 4701 q 12351 4739 12351 4701 l 12411 4739 z "},"ä":{"ha":510,"x_min":36,"x_max":610,"o":"m 458 4 l 376 -12 l 363 49 q 203 -12 292 -12 q 85 26 132 -12 q 36 129 38 64 q 351 310 36 306 q 238 414 338 414 q 72 379 163 414 l 63 458 q 242 486 157 486 q 439 283 439 486 l 439 126 q 458 4 439 74 m 351 150 l 351 233 q 125 138 125 229 q 207 64 125 64 q 299 86 253 64 q 351 150 351 113 m 213 590 q 194 547 213 564 q 153 529 176 529 q 110 547 128 529 q 92 590 92 564 q 110 633 92 615 q 153 651 128 651 q 194 633 176 651 q 213 590 213 615 m 418 590 q 400 547 418 564 q 358 529 382 529 q 316 547 335 529 q 297 590 297 564 q 316 633 297 615 q 358 651 335 651 q 400 633 382 651 q 418 590 418 615 z "},"å":{"ha":510,"x_min":36,"x_max":493,"o":"m 458 4 l 376 -12 l 363 49 q 203 -12 292 -12 q 85 26 132 -12 q 36 129 38 64 q 351 310 36 306 q 238 414 338 414 q 72 379 163 414 l 63 458 q 242 486 157 486 q 439 283 439 486 l 439 126 q 458 4 439 74 m 351 150 l 351 233 q 125 138 125 229 q 207 64 125 64 q 299 86 253 64 q 351 150 351 113 m 563 833 q 530 755 563 788 q 451 722 497 722 q 373 755 406 722 q 340 833 340 788 q 373 912 340 879 q 451 944 406 944 q 530 912 497 944 q 563 833 563 879 m 504 833 q 489 871 504 856 q 451 886 474 886 q 413 871 429 886 q 397 833 397 856 q 413 795 397 811 q 451 779 429 779 q 489 795 474 779 q 504 833 504 811 z "},"æ":{"ha":863,"x_min":36,"x_max":826,"o":"m 806 25 q 611 -12 711 -12 q 403 85 475 -12 q 204 -12 351 -12 q 139 -3 169 -12 q 85 25 108 7 q 49 69 63 43 q 36 129 36 96 q 353 313 36 310 q 321 390 350 360 q 239 419 292 419 q 75 383 194 419 l 64 463 q 244 492 161 492 q 348 473 307 492 q 413 407 389 454 q 606 492 479 492 q 826 222 819 492 l 439 222 q 494 106 446 146 q 617 65 542 65 q 799 101 697 65 l 806 25 m 353 236 q 181 210 235 235 q 128 138 128 186 q 151 83 128 101 q 207 64 174 64 q 313 101 274 64 q 353 206 353 139 l 353 236 m 740 296 q 694 383 731 347 q 600 419 658 419 q 499 387 539 419 q 447 296 460 354 l 740 296 z "},"ç":{"ha":482,"x_min":36,"x_max":467,"o":"m 447 29 q 285 -12 381 -12 q 104 58 172 -12 q 36 239 36 128 q 104 421 36 351 q 285 490 172 490 q 447 449 379 490 l 417 376 q 282 417 351 417 q 168 367 211 417 q 125 239 125 318 q 168 110 125 158 q 282 61 211 61 q 417 101 351 61 l 447 29 m 340 -125 q 311 -195 340 -169 q 229 -221 282 -221 q 186 -215 210 -221 q 142 -196 163 -208 l 161 -151 q 201 -167 181 -161 q 232 -172 221 -172 q 276 -131 276 -172 q 188 -76 276 -92 l 247 15 l 307 15 l 268 -39 q 323 -72 306 -50 q 340 -125 340 -93 z "},"è":{"ha":543,"x_min":36,"x_max":2976,"o":"m 488 25 q 294 -12 386 -12 q 109 55 182 -12 q 36 229 36 122 q 108 421 36 347 q 289 490 179 490 q 507 222 503 490 l 122 222 q 176 106 128 147 q 300 65 224 65 q 478 101 378 65 l 488 25 m 421 296 q 376 384 414 350 q 281 418 339 418 q 181 384 225 418 q 128 296 138 350 l 421 296 m 11806 3871 l 11739 3871 l 11622 4006 l 11701 4031 l 11806 3871 z "},"é":{"ha":543,"x_min":36,"x_max":3631,"o":"m 488 25 q 294 -12 386 -12 q 109 55 182 -12 q 36 229 36 122 q 108 421 36 347 q 289 490 179 490 q 507 222 503 490 l 122 222 q 176 106 128 147 q 300 65 224 65 q 478 101 378 65 l 488 25 m 421 296 q 376 384 414 350 q 281 418 339 418 q 181 384 225 418 q 128 296 138 350 l 421 296 m 13911 4240 l 13990 4215 l 13874 4081 l 13807 4081 l 13911 4240 z "},"ê":{"ha":543,"x_min":36,"x_max":1110,"o":"m 488 25 q 294 -12 386 -12 q 109 55 182 -12 q 36 229 36 122 q 108 421 36 347 q 289 490 179 490 q 507 222 503 490 l 122 222 q 176 106 128 147 q 300 65 224 65 q 478 101 378 65 l 488 25 m 421 296 q 376 384 414 350 q 281 418 339 418 q 181 384 225 418 q 128 296 138 350 l 421 296 m 1474 1479 l 1399 1479 l 1342 1578 l 1286 1479 l 1210 1479 l 1318 1639 l 1367 1639 l 1474 1479 z "},"ë":{"ha":543,"x_min":36,"x_max":644,"o":"m 488 25 q 294 -12 386 -12 q 109 55 182 -12 q 36 229 36 122 q 108 421 36 347 q 289 490 179 490 q 507 222 503 490 l 122 222 q 176 106 128 147 q 300 65 224 65 q 478 101 378 65 l 488 25 m 421 296 q 376 384 414 350 q 281 418 339 418 q 181 384 225 418 q 128 296 138 350 l 421 296 m 229 590 q 211 547 229 564 q 169 529 193 529 q 126 547 144 529 q 108 590 108 564 q 126 633 108 615 q 169 651 144 651 q 211 633 193 651 q 229 590 229 615 m 435 590 q 417 547 435 564 q 375 529 399 529 q 333 547 351 529 q 314 590 314 564 q 333 633 314 615 q 375 651 351 651 q 417 633 399 651 q 435 590 435 615 z "},"ì":{"ha":226,"x_min":69,"x_max":3254,"o":"m 157 0 l 69 0 l 69 472 l 157 472 l 157 0 m 11647 3871 l 11581 3871 l 11464 4006 l 11543 4031 l 11647 3871 z "},"í":{"ha":226,"x_min":69,"x_max":3939,"o":"m 157 0 l 69 0 l 69 472 l 157 472 l 157 0 m 13753 4240 l 13832 4215 l 13715 4081 l 13649 4081 l 13753 4240 z "},"î":{"ha":226,"x_min":69,"x_max":1081,"o":"m 157 0 l 69 0 l 69 472 l 157 472 l 157 0 m 1325 1479 l 1250 1479 l 1193 1578 l 1138 1479 l 1061 1479 l 1169 1639 l 1218 1639 l 1325 1479 z "},"ï":{"ha":226,"x_min":69,"x_max":529,"o":"m 157 0 l 69 0 l 69 472 l 157 472 l 157 0 m 79 590 q 61 547 79 564 q 19 529 43 529 q -24 547 -6 529 q -42 590 -42 564 q -24 633 -42 615 q 19 651 -6 651 q 61 633 43 651 q 79 590 79 615 m 285 590 q 267 547 285 564 q 225 529 249 529 q 183 547 201 529 q 164 590 164 564 q 183 633 164 615 q 225 651 201 651 q 267 633 249 651 q 285 590 285 615 z "},"ð":{"ha":525,"x_min":50,"x_max":474,"o":"m 474 226 q 410 46 474 114 q 250 -22 347 -22 q 106 41 163 -22 q 50 197 50 104 q 107 351 50 289 q 247 414 164 414 q 371 369 331 414 q 253 506 338 439 q 250 507 251 507 l 110 435 l 72 496 l 183 553 q 85 594 133 581 l 93 664 q 267 596 190 644 l 393 661 l 424 597 l 329 549 q 474 226 474 410 m 379 197 q 342 298 379 257 q 253 339 306 339 q 167 296 203 339 q 131 197 131 253 q 167 99 131 142 q 253 56 203 56 q 342 97 306 56 q 379 197 379 139 z "},"ñ":{"ha":588,"x_min":58,"x_max":2408,"o":"m 518 0 l 431 0 l 431 268 q 299 413 431 413 q 203 369 250 413 q 157 282 157 325 l 157 0 l 69 0 l 69 347 q 58 474 69 433 l 140 474 q 150 417 150 450 q 311 486 217 486 q 462 428 406 486 q 518 268 518 369 l 518 0 m 12450 4739 q 12428 4662 12449 4690 q 12368 4633 12408 4633 q 12341 4640 12357 4633 q 12308 4653 12325 4646 q 12275 4667 12290 4661 q 12250 4674 12260 4674 q 12236 4663 12239 4674 q 12233 4640 12233 4653 l 12172 4640 q 12192 4710 12172 4682 q 12250 4739 12213 4739 q 12278 4733 12263 4739 q 12310 4720 12294 4728 q 12340 4707 12325 4713 q 12364 4701 12354 4701 q 12390 4739 12390 4701 l 12450 4739 z "},"ò":{"ha":572,"x_min":36,"x_max":3706,"o":"m 536 239 q 465 61 536 133 q 286 -11 394 -11 q 107 61 178 -11 q 36 239 36 133 q 107 417 36 344 q 286 490 178 490 q 465 417 394 490 q 536 239 536 344 m 450 239 q 404 365 450 314 q 286 415 358 415 q 168 365 214 415 q 122 239 122 314 q 168 113 122 164 q 286 63 214 63 q 404 113 358 63 q 450 239 450 164 m 11821 3871 l 11754 3871 l 11638 4006 l 11717 4031 l 11821 3871 z "},"ó":{"ha":572,"x_min":36,"x_max":4421,"o":"m 536 239 q 465 61 536 133 q 286 -11 394 -11 q 107 61 178 -11 q 36 239 36 133 q 107 417 36 344 q 286 490 178 490 q 465 417 394 490 q 536 239 536 344 m 450 239 q 404 365 450 314 q 286 415 358 415 q 168 365 214 415 q 122 239 122 314 q 168 113 122 164 q 286 63 214 63 q 404 113 358 63 q 450 239 450 164 m 13926 4240 l 14006 4215 l 13889 4081 l 13822 4081 l 13926 4240 z "},"ô":{"ha":572,"x_min":36,"x_max":1215,"o":"m 536 239 q 465 61 536 133 q 286 -11 394 -11 q 107 61 178 -11 q 36 239 36 133 q 107 417 36 344 q 286 490 178 490 q 465 417 394 490 q 536 239 536 344 m 450 239 q 404 365 450 314 q 286 415 358 415 q 168 365 214 415 q 122 239 122 314 q 168 113 122 164 q 286 63 214 63 q 404 113 358 63 q 450 239 450 164 m 1489 1479 l 1414 1479 l 1357 1578 l 1301 1479 l 1225 1479 l 1333 1639 l 1382 1639 l 1489 1479 z "},"õ":{"ha":572,"x_min":36,"x_max":2875,"o":"m 536 239 q 465 61 536 133 q 286 -11 394 -11 q 107 61 178 -11 q 36 239 36 133 q 107 417 36 344 q 286 490 178 490 q 465 417 394 490 q 536 239 536 344 m 450 239 q 404 365 450 314 q 286 415 358 415 q 168 365 214 415 q 122 239 122 314 q 168 113 122 164 q 286 63 214 63 q 404 113 358 63 q 450 239 450 164 m 12443 4739 q 12422 4662 12442 4690 q 12361 4633 12401 4633 q 12334 4640 12350 4633 q 12301 4653 12318 4646 q 12268 4667 12283 4661 q 12243 4674 12253 4674 q 12229 4663 12232 4674 q 12226 4640 12226 4653 l 12165 4640 q 12185 4710 12165 4682 q 12243 4739 12206 4739 q 12272 4733 12256 4739 q 12303 4720 12288 4728 q 12333 4707 12318 4713 q 12357 4701 12347 4701 q 12383 4739 12383 4701 l 12443 4739 z "},"ö":{"ha":572,"x_min":36,"x_max":578,"o":"m 536 239 q 465 61 536 133 q 286 -11 394 -11 q 107 61 178 -11 q 36 239 36 133 q 107 417 36 344 q 286 490 178 490 q 465 417 394 490 q 536 239 536 344 m 450 239 q 404 365 450 314 q 286 415 358 415 q 168 365 214 415 q 122 239 122 314 q 168 113 122 164 q 286 63 214 63 q 404 113 358 63 q 450 239 450 164 m 243 590 q 225 547 243 564 q 183 529 207 529 q 140 547 158 529 q 122 590 122 564 q 140 633 122 615 q 183 651 158 651 q 225 633 207 651 q 243 590 243 615 m 449 590 q 431 547 449 564 q 389 529 413 529 q 347 547 365 529 q 328 590 328 564 q 347 633 328 615 q 389 651 365 651 q 431 633 413 651 q 449 590 449 615 z "},"÷":{"ha":579,"x_min":36,"x_max":543,"o":"m 543 218 l 36 218 l 36 293 l 543 293 l 543 218 m 357 78 q 338 31 357 50 q 292 11 318 11 q 246 31 265 11 q 226 78 226 50 q 246 125 226 106 q 292 144 265 144 q 338 125 318 144 q 357 78 357 106 m 357 435 q 338 388 357 407 q 292 368 318 368 q 246 388 265 368 q 226 435 226 407 q 246 482 226 463 q 292 501 265 501 q 338 482 318 501 q 357 435 357 463 z "},"ø":{"ha":572,"x_min":36,"x_max":536,"o":"m 536 239 q 465 61 536 133 q 286 -11 394 -11 q 201 1 240 -11 l 181 -39 l 92 -39 l 132 39 q 107 61 118 49 q 36 239 36 133 q 107 417 36 344 q 286 490 178 490 q 360 481 325 490 l 383 525 l 472 525 l 432 446 q 465 417 449 433 q 536 239 536 344 m 450 239 q 404 364 450 314 q 394 374 399 369 l 236 69 q 286 63 260 63 q 404 113 358 63 q 450 239 450 164 m 324 411 q 286 415 306 415 q 168 365 214 415 q 122 239 122 314 q 168 113 122 164 l 169 111 l 324 411 z "},"ù":{"ha":581,"x_min":69,"x_max":4161,"o":"m 540 6 l 456 -11 q 431 69 442 22 q 265 -12 347 -12 q 69 214 69 -12 l 69 472 l 157 472 l 157 222 q 276 65 157 65 q 375 103 326 65 q 424 193 424 142 l 424 472 l 511 472 l 511 126 q 540 6 511 79 m 11825 3871 l 11758 3871 l 11642 4006 l 11721 4031 l 11825 3871 z "},"ú":{"ha":581,"x_min":69,"x_max":4907,"o":"m 540 6 l 456 -11 q 431 69 442 22 q 265 -12 347 -12 q 69 214 69 -12 l 69 472 l 157 472 l 157 222 q 276 65 157 65 q 375 103 326 65 q 424 193 424 142 l 424 472 l 511 472 l 511 126 q 540 6 511 79 m 13931 4240 l 14010 4215 l 13893 4081 l 13826 4081 l 13931 4240 z "},"û":{"ha":581,"x_min":69,"x_max":1354,"o":"m 540 6 l 456 -11 q 431 69 442 22 q 265 -12 347 -12 q 69 214 69 -12 l 69 472 l 157 472 l 157 222 q 276 65 157 65 q 375 103 326 65 q 424 193 424 142 l 424 472 l 511 472 l 511 126 q 540 6 511 79 m 1493 1479 l 1418 1479 l 1361 1578 l 1306 1479 l 1229 1479 l 1338 1639 l 1386 1639 l 1493 1479 z "},"ü":{"ha":581,"x_min":69,"x_max":631,"o":"m 540 6 l 456 -11 q 431 69 442 22 q 265 -12 347 -12 q 69 214 69 -12 l 69 472 l 157 472 l 157 222 q 276 65 157 65 q 375 103 326 65 q 424 193 424 142 l 424 472 l 511 472 l 511 126 q 540 6 511 79 m 247 590 q 229 547 247 564 q 188 529 211 529 q 144 547 163 529 q 126 590 126 564 q 144 633 126 615 q 188 651 163 651 q 229 633 211 651 q 247 590 247 615 m 453 590 q 435 547 453 564 q 393 529 417 529 q 351 547 369 529 q 332 590 332 564 q 351 633 332 615 q 393 651 369 651 q 435 633 417 651 q 453 590 453 615 z "},"ý":{"ha":501,"x_min":-6,"x_max":5353,"o":"m 44 -210 l 22 -137 q 204 35 146 -110 l -6 472 l 90 472 l 254 122 l 410 472 l 506 472 l 289 10 q 44 -210 201 -175 m 13890 4240 l 13969 4215 l 13853 4081 l 13786 4081 l 13890 4240 z "},"þ":{"ha":608,"x_min":76,"x_max":558,"o":"m 558 249 q 490 60 558 132 q 313 -12 421 -12 q 158 44 219 -12 l 158 -186 l 76 -186 l 76 661 l 158 661 l 158 426 q 326 492 228 492 q 493 423 428 492 q 558 249 558 354 m 478 247 q 433 371 478 322 q 318 419 389 419 q 206 378 253 419 q 158 272 158 338 l 158 193 q 206 102 158 140 q 317 64 254 64 q 433 113 389 64 q 478 247 478 161 z "},"ÿ":{"ha":501,"x_min":-6,"x_max":644,"o":"m 44 -210 l 22 -137 q 204 35 146 -110 l -6 472 l 90 472 l 254 122 l 410 472 l 506 472 l 289 10 q 44 -210 201 -175 m 208 590 q 190 547 208 564 q 149 529 172 529 q 106 547 124 529 q 88 590 88 564 q 106 633 88 615 q 149 651 124 651 q 190 633 172 651 q 208 590 208 615 m 414 590 q 396 547 414 564 q 354 529 378 529 q 312 547 331 529 q 293 590 293 564 q 312 633 293 615 q 354 651 331 651 q 396 633 378 651 q 414 590 414 615 z "},"ı":{"ha":226,"x_min":69,"x_max":157,"o":"m 157 0 l 69 0 l 69 472 l 157 472 l 157 0 z "},"Ł":{"ha":499,"x_min":29,"x_max":481,"o":"m 481 0 l 69 0 l 69 207 l 29 197 l 29 283 l 69 293 l 69 661 l 157 661 l 157 314 l 469 388 l 469 301 l 157 228 l 157 75 l 481 75 l 481 0 z "},"ł":{"ha":301,"x_min":11,"x_max":288,"o":"m 288 68 l 278 -11 q 71 243 71 0 l 71 328 l 11 311 l 11 386 l 71 403 l 71 700 l 158 700 l 158 429 l 288 468 l 288 393 l 158 354 l 158 263 q 192 111 158 156 q 288 68 221 74 z "},"Œ":{"ha":1004,"x_min":36,"x_max":969,"o":"m 969 0 l 576 0 l 576 38 q 388 -14 493 -14 q 135 85 233 -14 q 36 331 36 183 q 135 576 36 476 q 388 675 233 675 q 576 622 493 675 l 576 661 l 969 661 l 969 586 l 664 586 l 664 386 l 936 386 l 936 311 l 664 311 l 664 75 l 969 75 l 969 0 m 576 144 l 576 513 q 388 599 506 599 q 203 517 282 599 q 124 331 124 436 q 202 142 124 222 q 388 61 281 61 q 576 144 506 61 z "},"œ":{"ha":957,"x_min":36,"x_max":921,"o":"m 892 101 l 901 25 q 708 -12 800 -12 q 490 90 568 -12 q 286 -11 417 -11 q 107 61 178 -11 q 36 239 36 133 q 107 417 36 344 q 286 490 178 490 q 492 383 421 490 q 703 490 575 490 q 921 222 917 490 l 536 222 q 590 107 542 149 q 714 65 638 65 q 892 101 790 65 m 450 239 q 404 365 450 314 q 286 415 358 415 q 168 365 214 415 q 122 239 122 314 q 168 113 122 164 q 286 63 214 63 q 404 113 358 63 q 450 239 450 164 m 542 296 l 835 296 q 790 385 828 351 q 694 418 751 418 q 595 384 639 418 q 542 296 551 350 z "},"Š":{"ha":507,"x_min":26,"x_max":471,"o":"m 471 181 q 402 41 471 94 q 231 -12 333 -12 q 26 47 121 -12 l 64 126 q 236 67 143 67 q 343 97 304 67 q 382 176 382 126 q 249 303 382 260 q 53 494 53 365 q 115 623 53 572 q 275 674 176 674 q 446 629 374 674 l 408 560 q 274 594 339 594 q 177 567 214 594 q 140 501 140 540 q 274 382 140 425 q 426 301 382 347 q 471 181 471 256 m 449 1101 l 400 1101 l 293 1261 l 368 1261 l 425 1163 l 481 1261 l 557 1261 l 449 1101 z "},"š":{"ha":411,"x_min":36,"x_max":385,"o":"m 376 135 q 326 28 376 69 q 189 -12 275 -12 q 36 33 118 -12 l 71 103 q 193 64 128 64 q 290 131 290 64 q 196 211 290 182 q 57 343 57 254 q 103 444 57 403 q 229 485 150 485 q 365 444 310 485 l 333 381 q 224 417 285 417 q 163 398 188 417 q 139 350 139 379 q 240 279 139 314 q 376 135 376 232 m 410 913 l 361 913 l 254 1072 l 329 1072 l 386 974 l 442 1072 l 518 1072 l 410 913 z "},"Ÿ":{"ha":550,"x_min":-8,"x_max":682,"o":"m 319 0 l 233 0 l 233 289 l -8 661 l 93 661 l 276 364 l 458 661 l 558 661 l 319 290 l 319 0 m 232 779 q 214 735 232 753 q 172 718 196 718 q 129 735 147 718 q 111 779 111 753 q 129 822 111 804 q 172 840 147 840 q 214 822 196 840 q 232 779 232 804 m 438 779 q 419 735 438 753 q 378 718 401 718 q 335 735 354 718 q 317 779 317 753 q 335 822 317 804 q 378 840 354 840 q 419 822 401 840 q 438 779 438 804 z "},"Ž":{"ha":626,"x_min":38,"x_max":608,"o":"m 592 0 l 38 0 l 38 56 l 467 586 l 60 586 l 75 661 l 588 661 l 588 604 l 158 75 l 608 75 l 592 0 m 508 1101 l 460 1101 l 353 1261 l 428 1261 l 485 1163 l 540 1261 l 617 1261 l 508 1101 z "},"ž":{"ha":497,"x_min":28,"x_max":518,"o":"m 458 0 l 28 0 l 28 53 l 342 399 l 42 399 l 58 472 l 461 472 l 461 415 l 149 74 l 471 74 l 458 0 m 444 913 l 396 913 l 289 1072 l 364 1072 l 421 974 l 476 1072 l 553 1072 l 444 913 z "},"ƒ":{"ha":561,"x_min":-37,"x_max":572,"o":"m 454 353 l 324 353 l 275 129 q 53 -96 226 -96 q -37 -61 -1 -96 l -1 0 q 67 -19 32 -19 q 192 136 157 -19 l 239 353 l 164 353 l 178 425 l 256 425 l 260 447 q 343 614 288 556 q 482 672 399 672 q 572 638 536 672 l 536 576 q 468 596 503 596 q 343 440 376 596 l 339 425 l 468 425 l 454 353 z "},"ˆ":{"ha":303,"x_min":1090,"x_max":1354,"o":"m 1354 1479 l 1279 1479 l 1222 1578 l 1167 1479 l 1090 1479 l 1199 1639 l 1247 1639 l 1354 1479 z "},"ˇ":{"ha":428,"x_min":254,"x_max":518,"o":"m 410 913 l 361 913 l 254 1072 l 329 1072 l 386 974 l 442 1072 l 518 1072 l 410 913 z "},"˘":{"ha":475,"x_min":74,"x_max":401,"o":"m 401 682 q 346 565 388 603 q 238 526 304 526 q 129 565 171 526 q 74 682 88 603 l 149 682 q 177 620 156 647 q 238 593 199 593 q 299 620 276 593 q 328 682 321 647 l 401 682 z "},"˙":{"ha":268,"x_min":74,"x_max":194,"o":"m 194 757 q 176 713 194 731 q 135 696 158 696 q 92 713 111 696 q 74 757 74 731 q 92 800 74 782 q 135 818 111 818 q 176 800 158 818 q 194 757 194 782 z "},"˚":{"ha":369,"x_min":271,"x_max":493,"o":"m 493 833 q 460 755 493 788 q 382 722 428 722 q 303 755 336 722 q 271 833 271 788 q 303 912 271 879 q 382 944 336 944 q 460 912 428 944 q 493 833 493 879 m 435 833 q 419 871 435 856 q 382 886 404 886 q 344 871 360 886 q 328 833 328 856 q 344 795 328 811 q 382 779 360 779 q 419 795 404 779 q 435 833 435 811 z "},"˛":{"ha":354,"x_min":74,"x_max":281,"o":"m 281 -189 q 179 -212 224 -212 q 99 -181 125 -212 q 74 -106 74 -149 q 81 -46 74 -79 q 100 26 89 -12 l 182 26 q 153 -86 153 -47 q 192 -135 153 -131 q 231 -127 207 -135 q 281 -108 256 -119 l 281 -189 z "},"˜":{"ha":360,"x_min":39,"x_max":317,"o":"m 317 615 q 295 538 315 567 q 235 510 275 510 q 208 516 224 510 q 174 530 192 522 q 142 544 157 538 q 117 550 126 550 q 103 540 106 550 q 100 517 100 529 l 39 517 q 59 587 39 558 q 117 615 79 615 q 145 610 129 615 q 176 597 161 604 q 206 583 192 589 q 231 578 221 578 q 257 615 257 578 l 317 615 z "},"˝":{"ha":499,"x_min":74,"x_max":425,"o":"m 307 444 l 249 444 l 336 682 l 425 682 l 307 444 m 132 444 l 74 444 l 161 682 l 249 682 l 132 444 z "},"฀":{"ha":0,"x_min":0,"x_max":0,"o":""},"ก":{"ha":543,"x_min":42,"x_max":472,"o":"m 472 0 l 386 0 l 386 368 q 351 458 386 425 q 260 492 317 492 q 133 421 176 492 q 226 358 199 408 q 156 258 156 317 l 156 0 l 69 0 l 69 264 q 126 356 69 322 q 42 372 92 379 q 108 514 44 458 q 257 565 167 565 q 415 512 357 565 q 472 367 472 458 l 472 0 z "},"ข":{"ha":576,"x_min":28,"x_max":506,"o":"m 506 131 q 463 26 506 63 q 351 -11 421 -11 q 240 26 282 -11 q 197 131 197 63 l 197 221 q 234 328 197 261 q 271 435 271 396 q 249 488 271 467 q 197 508 226 508 q 138 490 153 508 q 205 464 179 489 q 231 400 231 439 q 201 330 231 358 q 132 301 172 301 q 56 335 85 301 q 28 418 28 369 q 78 524 28 482 q 196 565 129 565 q 309 532 265 565 q 353 435 353 499 q 318 318 353 393 q 283 213 283 243 l 283 111 q 305 75 283 88 q 351 63 326 63 q 399 76 378 63 q 419 111 419 89 l 419 554 l 506 554 l 506 131 m 175 397 q 163 428 175 415 q 132 440 150 440 q 101 428 114 440 q 89 397 89 415 q 101 367 89 379 q 132 354 114 354 q 163 367 150 354 q 175 397 175 379 z "},"ฃ":{"ha":599,"x_min":28,"x_max":528,"o":"m 528 131 q 485 26 528 63 q 374 -11 443 -11 q 262 26 304 -11 q 219 131 219 63 l 219 193 q 266 310 219 238 q 313 425 313 383 q 268 499 306 478 l 217 446 l 156 501 q 126 472 142 493 q 108 433 110 450 q 138 438 129 438 q 208 408 179 438 q 238 338 238 379 q 209 267 238 296 q 138 238 181 238 q 58 278 89 238 q 28 365 28 318 q 67 499 28 439 q 169 565 107 560 l 215 518 l 258 567 q 383 419 383 539 q 344 310 383 376 q 306 204 306 243 l 306 111 q 327 75 306 88 q 374 63 349 63 q 421 76 400 63 q 442 111 442 89 l 442 554 l 528 554 l 528 131 m 181 338 q 168 368 181 356 q 138 381 156 381 q 107 368 119 381 q 94 338 94 356 q 107 307 94 319 q 138 294 119 294 q 168 307 156 294 q 181 338 181 319 z "},"ค":{"ha":560,"x_min":43,"x_max":489,"o":"m 489 0 l 403 0 l 403 379 q 360 463 403 429 q 267 492 319 492 q 167 449 204 492 q 129 351 129 407 q 135 301 129 336 q 142 239 142 265 l 142 200 q 147 230 142 201 q 153 274 151 258 q 196 371 167 332 q 279 421 232 421 q 344 394 317 421 q 372 331 372 368 q 344 267 372 294 q 279 240 317 240 q 217 265 244 240 q 175 0 175 139 l 89 0 l 89 89 q 66 231 89 154 q 43 353 43 308 q 113 508 43 449 q 274 565 178 565 q 421 519 361 565 q 489 376 489 467 l 489 0 m 321 331 q 308 361 321 349 q 278 374 296 374 q 248 361 260 374 q 236 331 236 349 q 248 301 236 313 q 278 289 260 289 q 308 301 296 289 q 321 331 321 313 z "},"ฅ":{"ha":560,"x_min":43,"x_max":489,"o":"m 489 0 l 403 0 l 403 379 q 365 490 403 464 l 279 436 l 183 490 q 129 364 129 453 q 137 290 129 338 q 146 196 144 242 l 146 183 q 149 205 146 186 q 156 244 153 224 q 193 342 165 303 q 279 392 228 392 q 344 365 317 392 q 371 301 371 339 q 344 238 371 264 q 279 211 317 211 q 217 235 244 211 q 175 0 175 111 l 89 0 l 89 89 q 66 238 89 157 q 43 360 43 319 q 80 490 43 433 q 186 569 117 546 l 279 515 l 378 569 q 489 401 489 524 l 489 0 m 321 300 q 308 331 321 318 q 278 343 296 343 q 248 331 260 343 q 236 300 236 318 q 248 270 236 282 q 278 258 260 258 q 308 270 296 258 q 321 300 321 282 z "},"ฆ":{"ha":629,"x_min":33,"x_max":558,"o":"m 558 0 l 479 0 q 326 108 397 85 l 326 94 q 293 19 326 50 q 214 -11 260 -11 q 135 22 168 -11 q 103 101 103 54 q 135 180 103 147 q 214 213 168 213 q 231 211 224 213 q 274 317 231 250 q 314 421 314 379 q 269 500 314 475 l 221 447 l 161 501 q 131 472 146 494 q 113 432 115 450 q 142 436 124 436 q 213 407 183 436 q 243 338 243 378 q 213 267 243 296 q 142 238 183 238 q 63 274 93 238 q 33 369 33 310 q 74 502 33 442 q 172 565 114 563 l 218 518 l 263 567 q 388 428 388 536 q 349 310 388 379 q 310 204 310 242 l 310 183 q 472 92 392 154 l 472 554 l 558 554 l 558 0 m 260 100 q 247 133 260 119 q 214 146 233 146 q 182 133 196 146 q 168 100 168 119 q 182 68 168 82 q 214 54 196 54 q 247 68 233 54 q 260 100 260 82 m 186 338 q 174 368 186 356 q 143 381 161 381 q 113 368 125 381 q 100 338 100 356 q 113 307 100 319 q 143 294 125 294 q 174 307 161 294 q 186 338 186 319 z "},"ง":{"ha":442,"x_min":26,"x_max":371,"o":"m 371 0 l 286 0 l 26 293 l 78 353 l 285 119 l 285 358 q 258 357 281 357 q 185 385 215 357 q 156 458 156 414 q 186 534 156 503 q 258 565 217 565 q 339 534 307 565 q 371 453 371 503 l 371 0 m 306 461 q 292 494 306 481 q 258 508 278 508 q 225 494 239 508 q 211 461 211 481 q 225 428 211 442 q 258 414 239 414 q 292 428 278 414 q 306 461 306 442 z "},"จ":{"ha":542,"x_min":26,"x_max":471,"o":"m 471 97 q 438 17 471 46 q 351 -11 404 -11 q 233 79 250 -11 l 213 189 q 178 183 197 183 q 108 213 138 183 q 79 282 79 242 q 108 351 79 322 q 178 381 138 381 q 242 358 214 381 q 276 300 269 335 l 315 88 q 350 63 319 63 q 385 90 385 63 l 385 403 q 342 472 385 449 q 253 492 306 492 q 110 424 133 492 l 26 424 q 246 565 44 564 q 399 531 339 565 q 471 397 471 486 l 471 97 m 221 282 q 208 313 221 300 q 178 325 196 325 q 147 313 160 325 q 135 282 135 300 q 147 251 135 264 q 178 239 160 239 q 208 251 196 239 q 221 282 221 264 z "},"ฉ":{"ha":563,"x_min":35,"x_max":515,"o":"m 515 94 q 485 19 515 50 q 410 -11 454 -11 q 339 16 369 -11 q 306 83 308 43 q 208 0 257 65 l 129 0 l 129 108 q 143 161 129 147 q 124 163 129 161 q 47 256 47 179 q 76 324 47 296 q 144 351 104 351 q 213 324 185 351 q 240 256 240 296 q 228 203 240 236 q 215 150 215 171 l 215 92 q 299 148 238 114 q 385 208 360 182 q 406 274 406 236 l 406 401 q 361 472 406 447 q 269 492 324 492 q 171 469 211 492 q 118 392 122 443 l 35 392 q 268 565 56 565 q 419 529 360 565 q 492 396 492 485 l 492 264 q 461 186 492 211 q 515 94 515 156 m 185 256 q 173 285 185 274 q 143 297 161 297 q 113 285 125 297 q 101 256 101 274 q 113 226 101 238 q 143 214 125 214 q 173 226 161 214 q 185 256 185 238 m 454 93 q 442 124 454 111 q 411 136 429 136 q 381 124 393 136 q 368 93 368 111 q 381 63 368 75 q 411 50 393 50 q 442 63 429 50 q 454 93 454 75 z "},"ช":{"ha":576,"x_min":28,"x_max":538,"o":"m 506 131 q 463 26 506 63 q 351 -11 421 -11 q 240 26 282 -11 q 197 131 197 63 l 197 221 q 234 328 197 261 q 271 435 271 396 q 249 488 271 467 q 197 508 226 508 q 138 490 153 508 q 205 464 179 489 q 231 400 231 439 q 201 330 231 358 q 132 301 172 301 q 56 335 85 301 q 28 418 28 369 q 78 524 28 482 q 196 565 129 565 q 309 532 265 565 q 353 435 353 499 q 318 318 353 393 q 283 213 283 243 l 283 111 q 305 75 283 88 q 351 63 326 63 q 399 76 378 63 q 419 111 419 89 l 419 340 q 379 404 419 392 q 381 453 385 429 q 451 586 451 479 l 538 586 q 464 429 528 479 q 506 342 506 396 l 506 131 m 175 397 q 163 428 175 415 q 132 440 150 440 q 101 428 114 440 q 89 397 89 415 q 101 367 89 379 q 132 354 114 354 q 163 367 150 354 q 175 397 175 379 z "},"ซ":{"ha":599,"x_min":28,"x_max":560,"o":"m 528 131 q 485 26 528 63 q 374 -11 443 -11 q 262 26 304 -11 q 219 131 219 63 l 219 193 q 266 310 219 238 q 313 425 313 383 q 268 499 306 478 l 217 446 l 156 501 q 126 472 142 493 q 108 433 110 450 q 138 438 129 438 q 208 408 179 438 q 238 338 238 379 q 209 267 238 296 q 138 238 181 238 q 58 278 89 238 q 28 365 28 318 q 67 499 28 439 q 169 565 107 560 l 215 518 l 258 567 q 383 419 383 539 q 344 310 383 376 q 306 204 306 243 l 306 111 q 327 75 306 88 q 374 63 349 63 q 421 76 400 63 q 442 111 442 89 l 442 340 q 401 404 442 392 q 403 453 407 429 q 474 586 474 479 l 560 586 q 486 429 550 479 q 528 342 528 396 l 528 131 m 181 338 q 168 368 181 356 q 138 381 156 381 q 107 368 119 381 q 94 338 94 356 q 107 307 94 319 q 138 294 119 294 q 168 307 156 294 q 181 338 181 319 z "},"ฌ":{"ha":785,"x_min":42,"x_max":714,"o":"m 714 0 l 638 0 q 524 108 606 68 q 526 85 526 89 q 495 15 526 40 q 424 -11 464 -11 q 349 19 381 -11 q 318 94 318 50 q 374 190 318 158 l 374 368 q 340 456 374 422 q 256 490 306 490 q 135 421 171 490 q 226 358 199 408 q 156 258 156 319 l 156 199 q 231 168 200 199 q 261 93 261 138 q 231 19 261 50 q 156 -11 200 -11 q 82 19 113 -11 q 51 93 51 50 q 69 153 51 129 l 69 264 q 126 356 69 322 q 42 372 92 379 q 106 514 44 458 q 251 565 163 565 q 402 513 344 565 q 460 367 460 460 l 460 197 q 628 100 569 163 l 628 554 l 714 554 l 714 0 m 201 93 q 188 126 201 113 q 154 140 174 140 q 121 126 135 140 q 107 93 107 113 q 121 60 107 74 q 154 46 135 46 q 188 60 174 46 q 201 93 201 74 m 471 93 q 457 126 471 113 q 424 140 443 140 q 390 126 404 140 q 376 93 376 113 q 390 60 376 74 q 424 46 404 46 q 457 60 443 46 q 471 93 471 74 z "},"ญ":{"ha":785,"x_min":42,"x_max":722,"o":"m 722 -56 q 676 -219 722 -158 q 519 -287 625 -287 q 403 -253 451 -287 q 347 -147 347 -212 q 376 -77 347 -106 q 446 -49 404 -49 q 513 -78 486 -49 q 540 -149 540 -107 q 497 -218 540 -203 q 524 -221 517 -221 q 647 -56 640 -221 l 722 -56 m 714 131 q 660 22 714 61 q 542 -11 613 -11 q 425 22 469 -11 q 374 131 374 60 l 374 368 q 340 456 374 422 q 256 490 306 490 q 135 421 171 490 q 226 358 194 410 q 156 258 156 319 l 156 193 q 182 199 165 199 q 255 169 225 199 q 285 94 285 139 q 254 19 285 50 q 179 -11 224 -11 q 101 21 133 -11 q 69 101 69 53 l 69 264 q 126 356 69 322 q 42 372 92 379 q 106 514 44 458 q 251 565 163 565 q 402 513 344 565 q 460 367 460 460 l 460 118 q 485 76 460 89 q 543 63 510 63 q 601 76 575 63 q 628 118 628 89 l 628 554 l 714 554 l 714 131 m 489 -146 q 476 -115 489 -128 q 444 -103 464 -103 q 413 -115 425 -103 q 401 -146 401 -128 q 413 -177 401 -164 q 444 -190 425 -190 q 476 -177 464 -190 q 489 -146 489 -164 m 229 93 q 215 126 229 113 q 182 140 201 140 q 149 126 163 140 q 135 93 135 113 q 149 60 135 74 q 182 46 163 46 q 215 60 201 46 q 229 93 229 74 z "},"ฎ":{"ha":590,"x_min":11,"x_max":519,"o":"m 519 -319 l 432 -319 q 304 -203 414 -246 q 196 -325 294 -325 q 117 -296 150 -325 q 85 -222 85 -267 q 215 -124 85 -124 q 247 -125 235 -124 q 263 -86 254 -99 q 306 -46 276 -64 l 363 -76 q 311 -139 319 -100 q 433 -208 390 -167 l 433 368 q 397 458 433 424 q 304 492 360 492 q 181 421 219 492 q 274 358 249 407 q 224 324 236 338 q 206 264 206 301 q 213 176 206 233 q 219 94 219 118 q 190 19 219 50 q 117 -11 160 -11 q 42 19 72 -11 q 11 94 11 50 q 42 168 11 138 q 114 199 72 199 q 135 194 131 199 l 126 281 q 174 356 126 329 q 89 372 136 379 q 153 514 90 458 q 303 565 213 565 q 460 511 400 565 q 519 367 519 457 l 519 -319 m 240 -187 q 207 -183 228 -183 q 149 -217 150 -183 q 193 -261 147 -261 q 231 -240 219 -258 q 240 -187 242 -222 m 164 94 q 150 128 164 114 q 117 142 136 142 q 83 128 97 142 q 69 94 69 114 q 83 61 69 75 q 117 47 97 47 q 150 61 136 47 q 164 94 164 75 z "},"ฏ":{"ha":590,"x_min":11,"x_max":519,"o":"m 175 -190 q 136 -183 161 -183 q 92 -221 92 -183 q 128 -256 92 -256 q 175 -190 175 -256 m 164 94 q 150 128 164 114 q 117 142 136 142 q 83 128 97 142 q 69 94 69 114 q 83 61 69 75 q 117 47 97 47 q 150 61 136 47 q 164 94 164 75 m 519 -321 l 442 -321 l 369 -226 l 301 -321 l 238 -233 q 201 -299 232 -272 q 135 -326 171 -326 q 58 -297 89 -326 q 28 -222 28 -267 q 146 -119 28 -119 q 183 -124 172 -119 q 256 -43 200 -72 l 304 -101 q 247 -158 253 -115 l 301 -225 l 368 -140 l 433 -215 l 433 368 q 397 458 433 424 q 304 492 360 492 q 181 421 219 492 q 274 358 249 407 q 224 324 236 338 q 206 264 206 301 q 213 176 206 233 q 219 94 219 118 q 190 19 219 50 q 117 -11 160 -11 q 42 19 72 -11 q 11 94 11 50 q 42 168 11 138 q 114 199 72 199 q 135 194 131 199 l 126 281 q 174 356 126 329 q 89 372 136 379 q 153 514 90 458 q 303 565 213 565 q 460 511 400 565 q 519 367 519 457 l 519 -321 z "},"ฐ":{"ha":517,"x_min":-19,"x_max":486,"o":"m 119 -190 q 88 -183 101 -183 q 35 -219 35 -183 q 71 -254 35 -254 q 119 -190 119 -254 m 436 -226 q 343 -319 436 -319 l 229 -319 l 168 -236 q 139 -293 165 -269 q 79 -317 113 -317 q 7 -289 33 -317 q -19 -218 -19 -261 q 10 -148 -19 -175 q 88 -121 39 -121 q 126 -128 115 -121 q 176 -57 131 -82 l 219 -82 q 178 -160 178 -101 l 246 -251 l 318 -251 q 363 -228 363 -251 l 363 -210 l 346 -210 q 283 -187 308 -210 q 257 -131 257 -164 q 283 -75 257 -99 q 346 -51 308 -51 q 409 -75 382 -51 q 436 -131 436 -99 l 436 -226 m 436 115 q 304 -11 436 -11 q 176 108 176 -11 l 176 154 q 157 151 165 151 q 90 178 117 151 q 64 244 64 206 q 94 311 64 285 q 161 338 124 338 q 233 312 203 338 q 263 246 263 286 l 263 111 q 306 61 263 61 q 350 111 350 61 l 350 311 q 219 369 350 340 q 47 393 107 393 q 113 528 56 482 q 229 565 160 565 q 308 551 256 565 q 389 538 360 538 q 415 571 410 538 l 486 553 q 385 457 461 457 q 308 474 358 457 q 229 492 257 492 q 181 481 208 492 q 146 454 154 469 q 382 393 306 428 q 436 319 436 368 l 436 115 m 197 244 q 185 273 197 261 q 157 285 174 285 q 128 273 140 285 q 117 244 117 261 q 128 216 117 228 q 157 204 140 204 q 185 216 174 204 q 197 244 197 228 m 375 -131 q 366 -110 375 -118 q 343 -101 357 -101 q 321 -110 329 -101 q 313 -131 313 -118 q 321 -152 313 -143 q 343 -161 329 -161 q 366 -152 357 -161 q 375 -131 375 -143 z "},"ฑ":{"ha":683,"x_min":28,"x_max":613,"o":"m 613 0 l 526 0 l 526 446 q 504 483 526 483 q 478 464 485 483 l 315 0 l 218 0 l 218 149 q 255 295 218 204 q 292 435 292 386 q 264 500 292 482 l 213 446 l 154 501 q 124 472 140 494 q 106 433 108 450 q 136 438 115 438 q 207 408 178 438 q 236 338 236 378 q 207 267 236 296 q 136 238 178 238 q 59 276 90 238 q 28 371 28 315 q 67 501 28 443 q 167 565 106 560 l 213 518 l 257 567 q 360 433 360 544 q 328 305 360 389 q 297 167 297 221 q 286 88 286 100 l 424 482 q 515 565 453 565 q 613 449 613 565 l 613 0 m 181 338 q 168 368 181 356 q 138 381 156 381 q 107 368 119 381 q 94 338 94 356 q 107 307 94 319 q 138 294 119 294 q 168 307 156 294 q 181 338 181 319 z "},"ฒ":{"ha":765,"x_min":43,"x_max":694,"o":"m 694 0 l 614 0 q 526 90 579 60 q 498 18 526 47 q 421 -11 469 -11 q 347 20 376 -11 q 318 97 318 51 q 340 157 318 129 q 392 193 361 185 l 392 364 q 350 490 392 458 l 265 429 l 188 490 q 128 354 128 460 q 148 263 128 333 q 168 158 168 193 q 161 119 168 138 q 253 226 192 189 q 194 256 215 229 q 172 315 172 282 q 199 378 172 353 q 263 404 225 404 q 326 378 299 404 q 353 315 353 351 q 270 155 353 247 q 188 0 188 63 l 97 0 q 99 89 99 39 q 82 211 99 169 q 43 353 43 308 q 81 489 43 431 q 192 567 119 547 l 265 504 l 333 567 q 478 367 478 546 l 478 182 q 549 149 506 174 q 608 106 593 124 l 608 554 l 694 554 l 694 0 m 306 315 q 293 346 306 333 q 263 358 281 358 q 232 346 244 358 q 219 315 219 333 q 232 285 219 297 q 263 272 244 272 q 293 285 281 272 q 306 315 306 297 m 465 93 q 453 125 465 113 q 421 138 440 138 q 390 125 401 138 q 378 93 378 113 q 390 62 378 74 q 421 50 401 50 q 453 62 440 50 q 465 93 465 74 z "},"ณ":{"ha":800,"x_min":42,"x_max":754,"o":"m 754 94 q 726 20 754 51 q 653 -11 699 -11 q 582 15 613 -11 q 544 79 551 40 q 461 0 507 54 l 374 0 l 374 368 q 340 456 374 422 q 256 490 306 490 q 135 421 171 490 q 226 358 189 417 q 156 258 156 319 l 156 193 q 182 199 165 199 q 255 169 225 199 q 285 94 285 139 q 254 19 285 50 q 179 -11 224 -11 q 101 21 133 -11 q 69 101 69 53 l 69 264 q 126 356 69 322 q 42 372 92 379 q 106 514 44 458 q 251 565 163 565 q 402 513 344 565 q 460 368 460 461 l 460 88 q 535 156 481 113 q 624 226 610 214 q 643 292 643 251 l 643 554 l 729 554 l 729 263 q 700 186 729 208 q 754 94 754 156 m 697 96 q 683 129 697 115 q 650 143 669 143 q 617 129 631 143 q 603 96 603 115 q 617 63 603 76 q 650 49 631 49 q 683 63 669 49 q 697 96 697 76 m 229 93 q 215 126 229 113 q 182 140 201 140 q 149 126 163 140 q 135 93 135 113 q 149 60 135 74 q 182 46 163 46 q 215 60 201 46 q 229 93 229 74 z "},"ด":{"ha":563,"x_min":43,"x_max":492,"o":"m 492 0 l 406 0 l 406 372 q 366 458 406 425 q 272 492 326 492 q 171 452 214 492 q 128 357 128 413 q 151 258 128 322 q 174 163 174 194 q 171 136 174 153 q 261 246 211 201 q 200 276 222 249 q 179 335 179 300 q 206 398 179 371 q 271 425 233 425 q 335 398 308 425 q 361 335 361 371 q 300 196 361 272 q 204 71 215 92 q 183 0 183 35 l 96 0 q 97 94 97 51 q 81 210 97 169 q 56 284 68 246 q 43 351 43 322 q 109 506 43 446 q 269 565 175 565 q 426 515 365 565 q 492 367 492 461 l 492 0 m 313 335 q 301 365 313 353 q 271 376 289 376 q 241 365 253 376 q 229 335 229 353 q 241 305 229 317 q 271 293 253 293 q 301 305 289 293 q 313 335 313 317 z "},"ต":{"ha":563,"x_min":43,"x_max":492,"o":"m 492 0 l 406 0 l 406 364 q 357 492 406 453 l 271 429 l 186 492 q 128 360 128 463 q 148 261 128 326 q 168 164 168 196 q 160 118 168 142 q 200 172 168 138 q 261 225 232 207 q 202 254 224 228 q 181 313 181 281 q 206 376 181 350 q 269 403 232 403 q 333 376 307 403 q 360 313 360 350 q 297 186 360 253 q 200 71 214 97 q 179 0 179 31 l 92 0 q 94 107 94 53 q 78 210 94 163 q 43 360 43 310 q 81 492 43 436 q 190 567 119 547 l 269 507 l 343 567 q 492 367 492 544 l 492 0 m 311 314 q 299 344 311 332 q 269 356 288 356 q 240 344 251 356 q 228 314 228 332 q 240 284 228 296 q 269 272 251 272 q 299 284 288 272 q 311 314 311 296 z "},"ถ":{"ha":543,"x_min":42,"x_max":472,"o":"m 472 0 l 386 0 l 386 368 q 351 458 386 425 q 260 492 317 492 q 133 421 176 492 q 226 358 199 408 q 156 258 156 317 l 156 193 q 182 199 165 199 q 255 169 225 199 q 285 94 285 139 q 254 19 285 50 q 179 -11 224 -11 q 101 21 133 -11 q 69 101 69 53 l 69 264 q 126 356 69 322 q 42 372 92 379 q 108 514 44 458 q 257 565 167 565 q 415 512 357 565 q 472 367 472 458 l 472 0 m 229 93 q 215 126 229 113 q 182 140 201 140 q 149 126 163 140 q 135 93 135 113 q 149 60 135 74 q 182 46 163 46 q 215 60 201 46 q 229 93 229 74 z "},"ท":{"ha":608,"x_min":14,"x_max":538,"o":"m 538 0 l 451 0 l 451 449 q 431 492 451 492 q 406 471 413 492 l 240 0 l 143 0 l 143 357 q 119 354 129 354 q 44 385 75 354 q 14 461 14 417 q 44 535 14 504 q 119 565 75 565 q 198 533 167 565 q 229 453 229 501 l 229 246 q 213 99 229 199 q 251 235 228 160 l 329 482 q 433 565 356 567 q 538 447 538 564 l 538 0 m 167 460 q 153 493 167 479 q 119 507 139 507 q 86 493 100 507 q 72 460 72 479 q 86 426 72 440 q 119 413 100 413 q 153 426 139 413 q 167 460 167 440 z "},"ธ":{"ha":497,"x_min":35,"x_max":463,"o":"m 417 118 q 243 -11 417 -11 q 71 118 71 -11 l 71 300 l 157 300 l 157 113 q 244 63 157 63 q 331 113 331 63 l 331 296 q 222 352 331 328 q 35 392 114 376 q 78 521 43 481 q 204 565 118 565 q 290 552 235 565 q 368 539 346 539 q 394 569 392 539 l 463 551 q 426 485 447 506 q 363 465 406 465 q 286 479 338 465 q 207 493 235 493 q 126 447 132 493 q 340 392 263 418 q 417 301 417 365 l 417 118 z "},"น":{"ha":601,"x_min":14,"x_max":556,"o":"m 531 263 q 501 186 531 207 q 556 93 556 156 q 525 19 556 49 q 451 -11 494 -11 q 382 15 411 -11 q 347 79 353 40 q 283 46 303 57 q 231 0 250 25 l 143 0 l 143 357 q 119 354 129 354 q 44 385 75 354 q 14 461 14 417 q 44 535 14 504 q 119 565 75 565 q 198 533 167 565 q 229 453 229 501 l 229 100 q 329 149 251 117 q 425 207 399 178 q 444 274 444 228 l 444 554 l 531 554 l 531 263 m 167 460 q 153 493 167 479 q 119 507 139 507 q 86 493 100 507 q 72 460 72 479 q 86 426 72 440 q 119 413 100 413 q 153 426 139 413 q 167 460 167 440 m 497 93 q 483 126 497 113 q 450 140 469 140 q 417 126 431 140 q 403 93 403 113 q 417 60 403 74 q 450 46 431 46 q 483 60 469 46 q 497 93 497 74 z "},"บ":{"ha":618,"x_min":14,"x_max":547,"o":"m 547 125 q 346 -11 547 -11 q 143 125 143 -11 l 143 357 q 119 354 129 354 q 44 385 75 354 q 14 461 14 417 q 44 535 14 504 q 119 565 75 565 q 198 533 167 565 q 229 453 229 501 l 229 124 q 267 79 229 96 q 346 63 304 63 q 424 79 386 63 q 461 124 461 96 l 461 554 l 547 554 l 547 125 m 167 460 q 153 493 167 479 q 119 507 139 507 q 86 493 100 507 q 72 460 72 479 q 86 426 72 440 q 119 413 100 413 q 153 426 139 413 q 167 460 167 440 z "},"ป":{"ha":618,"x_min":14,"x_max":547,"o":"m 547 125 q 346 -11 547 -11 q 143 125 143 -11 l 143 357 q 119 354 129 354 q 44 385 75 354 q 14 461 14 417 q 44 535 14 504 q 119 565 75 565 q 198 533 167 565 q 229 453 229 501 l 229 124 q 267 79 229 96 q 346 63 304 63 q 424 79 386 63 q 461 124 461 96 l 461 776 l 547 776 l 547 125 m 167 460 q 153 493 167 479 q 119 507 139 507 q 86 493 100 507 q 72 460 72 479 q 86 426 72 440 q 119 413 100 413 q 153 426 139 413 q 167 460 167 440 z "},"ผ":{"ha":575,"x_min":56,"x_max":504,"o":"m 504 0 l 418 0 l 279 222 l 140 0 l 56 0 l 56 453 q 88 533 56 501 q 167 565 121 565 q 242 534 211 565 q 272 460 272 503 q 242 385 272 415 q 167 354 211 354 q 142 356 147 354 l 142 118 l 251 289 l 307 289 l 418 117 l 418 554 l 504 554 l 504 0 m 214 460 q 200 493 214 479 q 167 507 186 507 q 133 493 147 507 q 119 460 119 479 q 133 426 119 440 q 167 413 147 413 q 200 426 186 413 q 214 460 214 440 z "},"ฝ":{"ha":575,"x_min":56,"x_max":504,"o":"m 504 0 l 418 0 l 279 222 l 140 0 l 56 0 l 56 453 q 88 533 56 501 q 167 565 121 565 q 242 534 211 565 q 272 460 272 503 q 242 385 272 415 q 167 354 211 354 q 142 356 147 354 l 142 118 l 251 289 l 307 289 l 418 117 l 418 776 l 504 776 l 504 0 m 214 460 q 200 493 214 479 q 167 507 186 507 q 133 493 147 507 q 119 460 119 479 q 133 426 119 440 q 167 413 147 413 q 200 426 186 413 q 214 460 214 440 z "},"พ":{"ha":669,"x_min":14,"x_max":599,"o":"m 599 0 l 501 0 l 371 431 l 236 0 l 143 0 l 143 357 q 119 354 129 354 q 44 385 75 354 q 14 461 14 417 q 44 535 14 504 q 119 565 75 565 q 198 533 167 565 q 229 453 229 501 l 229 246 q 213 99 229 210 q 247 235 243 225 l 344 531 l 397 531 l 494 235 q 529 99 497 226 q 513 246 513 210 l 513 554 l 599 554 l 599 0 m 167 460 q 153 493 167 479 q 119 507 139 507 q 86 493 100 507 q 72 460 72 479 q 86 426 72 440 q 119 413 100 413 q 153 426 139 413 q 167 460 167 440 z "},"ฟ":{"ha":669,"x_min":14,"x_max":599,"o":"m 599 0 l 501 0 l 371 431 l 236 0 l 143 0 l 143 357 q 119 354 129 354 q 44 385 75 354 q 14 461 14 417 q 44 535 14 504 q 119 565 75 565 q 198 533 167 565 q 229 453 229 501 l 229 246 q 213 99 229 210 q 247 235 243 225 l 344 531 l 397 531 l 494 235 q 529 99 497 226 q 513 246 513 210 l 513 776 l 599 776 l 599 0 m 167 460 q 153 493 167 479 q 119 507 139 507 q 86 493 100 507 q 72 460 72 479 q 86 426 72 440 q 119 413 100 413 q 153 426 139 413 q 167 460 167 440 z "},"ภ":{"ha":590,"x_min":11,"x_max":519,"o":"m 164 94 q 150 128 164 114 q 117 142 136 142 q 83 128 97 142 q 69 94 69 114 q 83 61 69 75 q 117 47 97 47 q 150 61 136 47 q 164 94 164 75 m 519 0 l 433 0 l 433 368 q 397 458 433 424 q 304 492 360 492 q 181 421 219 492 q 274 358 249 407 q 224 324 236 338 q 206 264 206 301 q 213 176 206 233 q 219 94 219 118 q 190 19 219 50 q 117 -11 160 -11 q 42 19 72 -11 q 11 94 11 50 q 42 168 11 138 q 114 199 72 199 q 135 194 131 199 l 126 281 q 174 356 126 329 q 89 372 136 379 q 153 514 90 458 q 303 565 213 565 q 460 511 400 565 q 519 367 519 457 l 519 0 z "},"ม":{"ha":579,"x_min":29,"x_max":508,"o":"m 508 0 l 422 0 q 260 101 342 72 l 260 94 q 226 19 260 50 q 149 -11 192 -11 q 69 22 103 -11 q 36 101 36 56 q 69 180 36 147 q 149 213 103 213 l 158 213 l 158 357 q 135 354 144 354 q 60 385 90 354 q 29 461 29 417 q 60 535 29 504 q 135 565 90 565 q 213 533 182 565 q 244 453 244 501 l 244 189 q 422 90 354 151 l 422 554 l 508 554 l 508 0 m 182 460 q 168 493 182 479 q 135 507 154 507 q 101 493 115 507 q 88 460 88 479 q 101 426 88 440 q 135 413 115 413 q 168 426 154 413 q 182 460 182 440 m 196 101 q 182 135 196 121 q 149 149 168 149 q 115 135 129 149 q 101 101 101 121 q 115 68 101 82 q 149 54 129 54 q 182 68 168 54 q 196 101 196 82 z "},"ย":{"ha":536,"x_min":49,"x_max":465,"o":"m 465 140 q 260 -11 465 -11 q 56 140 56 -11 l 56 204 q 113 299 56 271 q 49 425 49 342 q 83 526 49 486 q 176 565 117 565 q 247 540 218 565 q 276 472 276 514 q 250 407 276 435 q 181 379 224 379 q 142 386 158 379 q 192 333 153 333 l 290 333 l 290 265 l 192 265 q 156 246 169 265 q 142 201 142 226 l 142 138 q 260 63 142 63 q 379 138 379 63 l 379 554 l 465 554 l 465 140 m 225 471 q 213 503 225 490 q 181 515 200 515 q 149 503 161 515 q 136 471 136 490 q 149 439 136 451 q 181 426 161 426 q 213 439 200 426 q 225 471 225 451 z "},"ร":{"ha":457,"x_min":31,"x_max":426,"o":"m 376 93 q 345 19 376 49 q 269 -11 314 -11 q 194 19 225 -11 q 163 94 163 50 q 194 169 163 139 q 269 200 225 200 q 290 199 286 200 l 290 318 q 198 362 290 340 q 31 396 106 383 q 71 519 33 472 q 179 565 108 565 q 259 552 208 565 q 332 539 310 539 q 358 569 356 539 l 426 551 q 335 467 401 467 q 263 479 310 467 q 193 492 217 492 q 124 444 132 492 q 303 397 231 422 q 376 311 376 372 l 376 93 m 317 94 q 303 128 317 114 q 269 142 289 142 q 236 128 250 142 q 222 94 222 114 q 236 61 222 75 q 269 47 250 47 q 303 61 289 47 q 317 94 317 75 z "},"ฤ":{"ha":543,"x_min":42,"x_max":472,"o":"m 472 -194 l 386 -194 l 386 368 q 351 458 386 425 q 260 492 317 492 q 133 421 176 492 q 226 358 199 408 q 156 258 156 317 l 156 193 q 182 199 165 199 q 255 169 225 199 q 285 94 285 139 q 254 19 285 50 q 179 -11 224 -11 q 101 21 133 -11 q 69 101 69 53 l 69 264 q 126 356 69 322 q 42 372 92 379 q 108 514 44 458 q 257 565 167 565 q 415 512 357 565 q 472 367 472 458 l 472 -194 m 229 93 q 215 126 229 113 q 182 140 201 140 q 149 126 163 140 q 135 93 135 113 q 149 60 135 74 q 182 46 163 46 q 215 60 201 46 q 229 93 229 74 z "},"ล":{"ha":554,"x_min":32,"x_max":483,"o":"m 483 0 l 397 0 l 397 240 q 350 304 397 282 q 269 321 314 321 q 196 300 226 321 q 158 233 158 275 l 158 199 q 183 201 169 201 q 260 170 228 201 q 292 96 292 139 q 258 21 292 51 q 182 -10 225 -10 q 104 20 136 -10 q 72 96 72 50 l 72 224 q 133 351 72 306 q 268 392 188 392 q 397 344 354 392 l 397 407 q 347 474 397 450 q 260 492 308 492 q 167 467 206 492 q 115 392 124 439 l 32 392 q 106 522 40 476 q 263 565 167 565 q 411 525 349 565 q 483 397 483 479 l 483 0 m 231 96 q 217 129 231 115 q 183 143 203 143 q 150 129 164 143 q 136 96 136 115 q 150 63 136 76 q 183 49 164 49 q 217 63 203 49 q 231 96 231 76 z "},"ฦ":{"ha":590,"x_min":11,"x_max":519,"o":"m 164 94 q 150 128 164 114 q 117 142 136 142 q 83 128 97 142 q 69 94 69 114 q 83 61 69 75 q 117 47 97 47 q 150 61 136 47 q 164 94 164 75 m 519 -194 l 433 -194 l 433 368 q 397 458 433 424 q 304 492 360 492 q 181 421 219 492 q 274 358 249 407 q 224 324 236 338 q 206 264 206 301 q 213 176 206 233 q 219 94 219 118 q 190 19 219 50 q 117 -11 160 -11 q 42 19 72 -11 q 11 94 11 50 q 42 168 11 138 q 114 199 72 199 q 135 194 131 199 l 126 281 q 174 356 126 329 q 89 372 136 379 q 153 514 90 458 q 303 565 213 565 q 460 511 400 565 q 519 367 519 457 l 519 -194 z "},"ว":{"ha":526,"x_min":32,"x_max":456,"o":"m 456 101 q 424 22 456 53 q 344 -10 392 -10 q 269 21 300 -10 q 239 94 239 51 q 269 169 239 139 q 344 200 300 200 q 369 199 360 200 l 369 403 q 242 492 369 492 q 152 459 189 492 q 115 372 115 426 l 32 372 q 92 515 36 464 q 242 565 149 565 q 389 529 333 565 q 456 397 456 486 l 456 101 m 392 96 q 378 129 392 115 q 344 143 364 143 q 311 129 325 143 q 297 96 297 115 q 311 63 297 76 q 344 49 325 49 q 378 63 364 49 q 392 96 392 76 z "},"ศ":{"ha":560,"x_min":43,"x_max":508,"o":"m 489 0 l 403 0 l 403 379 q 360 463 403 429 q 267 492 319 492 q 167 449 204 492 q 129 351 129 407 q 135 301 129 336 q 142 239 142 265 l 142 203 q 145 231 142 208 q 153 274 149 253 q 194 372 167 332 q 279 421 232 421 q 344 394 317 421 q 372 331 372 368 q 344 267 372 294 q 279 240 317 240 q 217 265 244 240 q 175 0 175 139 l 89 0 l 89 89 q 66 231 89 154 q 43 353 43 308 q 113 508 43 449 q 274 565 178 565 q 379 543 328 565 q 411 610 411 567 l 508 610 q 444 497 492 533 q 489 376 489 446 l 489 0 m 321 331 q 308 361 321 349 q 278 374 296 374 q 248 361 260 374 q 236 331 236 349 q 248 301 236 313 q 278 289 260 289 q 308 301 296 289 q 321 331 321 313 z "},"ษ":{"ha":640,"x_min":14,"x_max":650,"o":"m 650 329 q 569 249 624 285 l 569 125 q 357 -11 569 -11 q 143 125 143 -11 l 143 357 q 119 354 129 354 q 44 385 75 354 q 14 461 14 417 q 44 535 14 504 q 119 565 75 565 q 198 533 167 565 q 229 453 229 501 l 229 129 q 262 82 229 101 q 356 63 294 63 q 451 82 418 63 q 483 129 483 101 l 483 213 q 425 206 451 206 q 256 321 256 206 q 281 387 256 360 q 350 414 307 414 q 415 388 390 414 q 440 326 440 363 q 411 261 440 282 q 483 275 449 264 l 483 554 l 569 554 l 569 324 q 604 375 592 344 l 650 329 m 167 460 q 153 493 167 479 q 119 507 139 507 q 86 493 100 507 q 72 460 72 479 q 86 426 72 440 q 119 413 100 413 q 153 426 139 413 q 167 460 167 440 m 389 325 q 377 356 389 343 q 347 368 365 368 q 317 356 329 368 q 306 325 306 343 q 317 294 306 307 q 347 282 329 282 q 377 294 365 282 q 389 325 389 307 z "},"ส":{"ha":554,"x_min":32,"x_max":501,"o":"m 483 0 l 397 0 l 397 240 q 350 304 397 282 q 269 321 314 321 q 196 300 226 321 q 158 233 158 275 l 158 199 q 183 201 178 201 q 260 170 228 201 q 292 96 292 139 q 258 21 292 51 q 182 -10 225 -10 q 104 20 136 -10 q 72 96 72 50 l 72 224 q 133 351 72 306 q 268 392 188 392 q 397 344 354 392 l 397 407 q 347 474 397 450 q 260 492 308 492 q 167 467 206 492 q 115 392 124 439 l 32 392 q 106 522 40 476 q 263 565 167 565 q 375 543 325 565 q 404 610 404 569 l 501 610 q 442 500 485 539 q 483 397 483 456 l 483 0 m 231 96 q 217 129 231 115 q 183 143 203 143 q 150 129 164 143 q 136 96 136 115 q 150 63 136 76 q 183 49 164 49 q 217 63 203 49 q 231 96 231 76 z "},"ห":{"ha":608,"x_min":14,"x_max":558,"o":"m 538 0 l 451 0 l 451 308 q 436 346 451 346 q 404 311 425 346 l 224 0 l 143 0 l 143 357 q 119 354 129 354 q 44 385 75 354 q 14 461 14 417 q 44 535 14 504 q 119 565 75 565 q 198 533 167 565 q 229 453 229 501 l 229 246 q 213 99 229 210 q 254 208 226 158 l 331 340 q 375 388 356 382 q 347 460 347 422 q 378 535 347 504 q 453 565 408 565 q 528 535 497 565 q 558 460 558 504 q 519 379 558 414 q 538 304 538 344 l 538 0 m 167 460 q 153 493 167 479 q 119 507 139 507 q 86 493 100 507 q 72 460 72 479 q 86 426 72 440 q 119 413 100 413 q 153 426 139 413 q 167 460 167 440 m 500 460 q 486 493 500 479 q 453 507 472 507 q 419 493 433 507 q 406 460 406 479 q 419 426 406 440 q 453 413 433 413 q 486 426 472 413 q 500 460 500 440 z "},"ฬ":{"ha":650,"x_min":14,"x_max":633,"o":"m 579 0 l 492 0 l 361 247 l 232 0 l 143 0 l 143 357 q 119 354 129 354 q 44 385 75 354 q 14 461 14 417 q 44 535 14 504 q 119 565 75 565 q 198 533 167 565 q 229 453 229 501 l 229 231 q 213 94 229 188 q 243 161 225 128 l 331 307 l 392 307 l 479 161 q 510 94 497 128 q 493 231 493 188 l 493 357 q 469 354 479 354 q 394 385 425 354 q 364 461 364 417 q 394 535 364 504 q 469 565 425 565 q 525 550 501 565 q 558 610 551 572 l 633 610 q 568 503 624 539 q 579 453 579 481 l 579 0 m 517 460 q 503 493 517 479 q 469 507 489 507 q 436 493 450 507 q 422 460 422 479 q 436 426 422 440 q 469 413 450 413 q 503 426 489 413 q 517 460 517 440 m 167 460 q 153 493 167 479 q 119 507 139 507 q 86 493 100 507 q 72 460 72 479 q 86 426 72 440 q 119 413 100 413 q 153 426 139 413 q 167 460 167 440 z "},"อ":{"ha":547,"x_min":32,"x_max":476,"o":"m 476 125 q 411 18 476 53 q 275 -11 358 -11 q 140 18 192 -11 q 78 125 78 53 l 78 265 q 106 349 78 315 q 185 383 133 383 q 260 353 229 383 q 290 279 290 324 q 260 206 290 236 q 185 175 229 175 q 164 178 172 175 l 164 135 q 276 63 164 63 q 390 136 390 63 l 390 403 q 347 472 390 449 q 258 492 311 492 q 115 424 126 492 l 32 424 q 251 565 50 564 q 404 531 344 565 q 476 397 476 486 l 476 125 m 232 279 q 218 313 232 299 q 185 326 204 326 q 151 313 165 326 q 138 279 138 299 q 151 246 138 260 q 185 232 165 232 q 218 246 204 232 q 232 279 232 260 z "},"ฮ":{"ha":535,"x_min":46,"x_max":515,"o":"m 360 467 q 238 504 318 504 q 126 469 126 504 q 229 447 126 447 q 360 467 313 447 m 464 125 q 399 18 464 53 q 263 -11 346 -11 q 128 18 179 -11 q 65 125 65 53 l 65 239 q 93 323 65 289 q 172 357 121 357 q 247 327 217 357 q 278 253 278 297 q 247 179 278 210 q 172 149 217 149 q 151 151 160 149 l 151 135 q 264 63 151 63 q 378 136 378 63 l 378 411 q 222 390 314 390 q 46 464 46 390 q 250 567 46 567 q 414 513 350 567 q 432 567 425 533 l 515 567 q 458 440 499 483 q 464 393 464 422 l 464 125 m 219 253 q 206 286 219 272 q 172 300 192 300 q 139 286 153 300 q 125 253 125 272 q 139 219 125 233 q 172 206 153 206 q 206 219 192 206 q 219 253 219 233 z "},"ฯ":{"ha":528,"x_min":33,"x_max":456,"o":"m 456 0 l 369 0 l 369 438 q 354 490 369 488 q 291 385 349 425 q 165 346 233 346 q 75 374 111 346 q 33 458 33 404 q 64 534 33 503 q 139 565 94 565 q 215 534 183 565 q 246 458 246 503 q 243 438 246 451 q 299 554 289 472 l 361 554 q 456 454 456 554 l 456 0 m 186 458 q 172 492 186 478 q 139 506 158 506 q 106 492 119 506 q 92 458 92 478 q 106 425 92 439 q 139 411 119 411 q 172 425 158 411 q 186 458 186 439 z "},"ะ":{"ha":472,"x_min":40,"x_max":419,"o":"m 419 551 q 213 331 413 331 q 85 365 129 331 q 40 451 40 399 q 68 519 40 492 q 136 547 96 547 q 206 519 179 547 q 233 451 233 490 q 213 396 233 414 q 342 551 342 401 l 419 551 m 178 451 q 165 482 178 469 q 135 494 153 494 q 105 482 117 494 q 93 451 93 469 q 105 422 93 433 q 135 410 117 410 q 165 422 153 410 q 178 451 178 433 m 419 236 q 213 15 413 15 q 85 49 129 15 q 40 136 40 83 q 68 204 40 176 q 136 232 96 232 q 206 203 179 232 q 233 136 233 175 q 213 81 233 99 q 342 236 342 86 l 419 236 m 178 136 q 165 167 178 154 q 135 179 153 179 q 105 167 117 179 q 93 136 93 154 q 105 106 93 118 q 135 94 117 94 q 165 106 153 94 q 178 136 178 118 z "},"ั":{"ha":0,"x_min":-353,"x_max":69,"o":"m 69 893 q -181 663 33 663 q -308 697 -264 663 q -353 783 -353 731 q -325 851 -353 824 q -257 879 -297 879 q -187 851 -214 879 q -160 783 -160 822 q -181 728 -160 746 q -12 893 -36 733 l 69 893 m -215 783 q -228 814 -215 801 q -258 826 -240 826 q -288 814 -276 826 q -300 783 -300 801 q -288 753 -300 765 q -258 742 -276 742 q -228 753 -240 742 q -215 783 -215 765 z "},"า":{"ha":467,"x_min":22,"x_max":396,"o":"m 396 0 l 310 0 l 310 404 q 283 467 310 443 q 211 492 257 492 q 136 461 165 492 q 106 383 107 431 l 22 383 q 77 516 26 467 q 211 565 128 565 q 342 526 289 565 q 396 406 396 486 l 396 0 z "},"ำ":{"ha":467,"x_min":-250,"x_max":396,"o":"m -15 763 q -49 680 -15 714 q -132 646 -83 646 q -216 680 -182 646 q -250 763 -250 714 q -215 846 -250 811 q -132 881 -181 881 q -49 847 -83 881 q -15 763 -15 813 m -76 763 q -92 803 -76 786 q -132 819 -108 819 q -172 803 -156 819 q -189 763 -189 786 q -172 723 -189 739 q -132 707 -156 707 q -92 723 -108 707 q -76 763 -76 739 m 396 0 l 310 0 l 310 404 q 283 467 310 443 q 211 492 257 492 q 136 461 165 492 q 106 383 107 431 l 22 383 q 77 516 26 467 q 211 565 128 565 q 342 526 289 565 q 396 406 396 486 l 396 0 z "},"ิ":{"ha":0,"x_min":-515,"x_max":-68,"o":"m -68 625 q -383 681 -240 681 q -515 672 -449 681 q -312 858 -499 858 q -143 794 -206 858 q -68 625 -81 729 m -157 707 q -207 772 -165 742 q -301 803 -249 803 q -387 783 -351 803 q -433 729 -424 763 q -360 735 -410 735 q -157 707 -257 735 z "},"ี":{"ha":0,"x_min":-515,"x_max":-68,"o":"m -68 625 q -383 681 -240 681 q -515 672 -449 681 q -312 858 -499 858 q -154 804 -214 858 l -154 900 l -71 900 l -71 644 q -68 625 -69 635 m -157 707 q -207 772 -165 742 q -301 803 -249 803 q -387 783 -351 803 q -433 729 -424 763 q -360 735 -410 735 q -157 707 -257 735 z "},"ึ":{"ha":0,"x_min":-515,"x_max":-53,"o":"m -157 707 q -207 772 -165 742 q -301 803 -249 803 q -387 783 -351 803 q -433 729 -424 763 q -360 735 -410 735 q -157 707 -257 735 m -96 831 q -108 859 -96 847 q -135 871 -119 871 q -162 859 -150 871 q -175 831 -175 847 q -162 803 -175 814 q -135 792 -150 792 q -108 803 -119 792 q -96 831 -96 814 m -53 831 q -69 781 -53 803 q -110 751 -85 758 q -68 625 -76 697 q -383 681 -240 681 q -515 672 -449 681 q -312 858 -499 858 q -215 842 -258 858 q -189 893 -211 872 q -135 914 -167 914 q -76 890 -100 914 q -53 831 -53 865 z "},"ื":{"ha":0,"x_min":-515,"x_max":-68,"o":"m -68 625 q -383 681 -240 681 q -515 672 -449 681 q -312 858 -499 858 q -274 856 -292 858 l -274 900 l -211 900 l -211 842 q -154 804 -181 829 l -154 900 l -71 900 l -71 644 l -68 625 m -157 707 q -207 772 -165 742 q -301 803 -249 803 q -387 783 -351 803 q -433 729 -424 763 q -360 735 -410 735 q -157 707 -257 735 z "},"ุ":{"ha":0,"x_min":-243,"x_max":-71,"o":"m -71 -326 l -154 -326 l -154 -221 l -160 -221 q -219 -197 -194 -221 q -243 -139 -243 -172 q -219 -79 -243 -104 q -158 -54 -194 -54 q -97 -76 -124 -54 q -71 -137 -71 -99 l -71 -326 m -119 -135 q -131 -108 -119 -119 q -157 -97 -142 -97 q -184 -108 -172 -97 q -196 -135 -196 -119 q -184 -162 -196 -150 q -157 -174 -172 -174 q -131 -162 -142 -174 q -119 -135 -119 -150 z "},"ู":{"ha":0,"x_min":-410,"x_max":-71,"o":"m -71 -253 q -110 -322 -71 -299 q -197 -343 -143 -343 q -279 -324 -244 -343 q -318 -262 -318 -301 l -318 -221 l -326 -221 q -385 -197 -361 -221 q -410 -139 -410 -172 q -385 -79 -410 -104 q -325 -54 -361 -54 q -264 -76 -290 -54 q -237 -137 -237 -99 l -237 -262 q -196 -283 -237 -283 q -151 -262 -151 -283 l -151 -67 l -71 -67 l -71 -253 m -286 -135 q -297 -108 -286 -119 q -324 -97 -308 -97 q -351 -108 -339 -97 q -362 -135 -362 -119 q -351 -162 -362 -150 q -324 -174 -339 -174 q -297 -162 -308 -174 q -286 -135 -286 -150 z "},"ฺ":{"ha":0,"x_min":-149,"x_max":-51,"o":"m -51 -106 q -66 -140 -51 -125 q -100 -154 -81 -154 q -134 -140 -119 -154 q -149 -106 -149 -125 q -134 -72 -149 -86 q -100 -57 -119 -57 q -66 -72 -81 -57 q -51 -106 -51 -86 z "},"฿":{"ha":540,"x_min":89,"x_max":465,"o":"m 465 210 q 294 35 465 61 l 294 -78 l 218 -78 l 218 29 q 89 43 169 29 l 89 614 q 218 633 169 632 l 218 725 l 294 725 l 294 629 q 443 475 443 606 q 378 350 443 399 q 465 210 465 299 m 386 208 q 233 310 386 310 l 171 310 l 171 107 q 224 103 194 103 q 333 126 289 103 q 386 208 386 154 m 361 474 q 225 560 361 560 q 171 553 217 560 l 171 386 l 247 386 q 331 411 300 386 q 361 474 361 436 z "},"เ":{"ha":289,"x_min":67,"x_max":283,"o":"m 283 94 q 252 19 283 50 q 178 -11 221 -11 q 99 21 131 -11 q 67 101 67 53 l 67 554 l 153 554 l 153 197 q 178 200 160 200 q 252 169 221 200 q 283 94 283 139 m 225 94 q 211 128 225 114 q 178 142 197 142 q 144 128 158 142 q 131 94 131 114 q 144 61 131 75 q 178 47 158 47 q 211 61 197 47 q 225 94 225 75 z "},"แ":{"ha":549,"x_min":67,"x_max":543,"o":"m 283 94 q 252 19 283 50 q 178 -11 221 -11 q 99 21 131 -11 q 67 101 67 53 l 67 554 l 153 554 l 153 197 q 178 200 160 200 q 252 169 221 200 q 283 94 283 139 m 543 94 q 512 19 543 50 q 438 -11 481 -11 q 358 21 390 -11 q 326 101 326 53 l 326 554 l 413 554 l 413 197 q 438 200 419 200 q 512 169 481 200 q 543 94 543 139 m 225 94 q 211 128 225 114 q 178 142 197 142 q 144 128 158 142 q 131 94 131 114 q 144 61 131 75 q 178 47 158 47 q 211 61 197 47 q 225 94 225 75 m 485 94 q 471 128 485 114 q 438 142 457 142 q 404 128 418 142 q 390 94 390 114 q 404 61 390 75 q 438 47 418 47 q 471 61 457 47 q 485 94 485 75 z "},"โ":{"ha":350,"x_min":-46,"x_max":344,"o":"m 344 94 q 313 19 344 50 q 239 -11 282 -11 q 160 21 192 -11 q 128 101 128 53 l 128 653 q 58 729 121 700 q -46 753 7 753 q 96 911 -39 911 q 177 888 132 911 q 240 865 222 865 q 271 907 256 865 l 335 890 q 251 796 308 796 q 176 819 225 796 q 96 842 128 842 q 32 807 47 842 q 214 646 214 760 l 214 197 q 239 200 221 200 q 313 169 282 200 q 344 94 344 139 m 286 94 q 272 128 286 114 q 239 142 258 142 q 206 128 219 142 q 192 94 192 114 q 206 61 192 75 q 239 47 219 47 q 272 61 258 47 q 286 94 286 75 z "},"ใ":{"ha":374,"x_min":-47,"x_max":368,"o":"m 368 94 q 337 19 368 50 q 263 -11 306 -11 q 183 21 215 -11 q 151 101 151 53 l 151 625 q 176 709 151 657 q 200 788 200 761 q 178 836 200 818 q 126 854 157 854 q 57 838 79 854 q 115 811 92 838 q 135 756 135 788 q 108 691 135 718 q 43 664 82 664 q -22 693 3 664 q -47 761 -47 722 q 3 878 -47 836 q 124 915 49 915 q 231 883 185 915 q 282 790 282 847 q 260 701 282 758 q 238 614 238 643 l 238 197 q 263 200 244 200 q 337 169 306 200 q 368 94 368 139 m 310 94 q 296 128 310 114 q 263 142 282 142 q 229 128 243 142 q 215 94 215 114 q 229 61 215 75 q 263 47 243 47 q 296 61 282 47 q 310 94 310 75 m 86 754 q 74 785 86 772 q 43 797 61 797 q 13 785 25 797 q 0 754 0 772 q 13 724 0 736 q 43 711 25 711 q 74 724 61 711 q 86 754 86 736 z "},"ไ":{"ha":350,"x_min":-50,"x_max":344,"o":"m 344 94 q 313 19 344 50 q 239 -11 282 -11 q 160 21 192 -11 q 128 101 128 53 l 128 788 l 44 665 l -11 682 q -50 925 -17 813 l 25 925 q 43 760 42 815 l 142 914 q 192 888 169 910 q 214 835 214 865 l 214 197 q 239 200 221 200 q 313 169 282 200 q 344 94 344 139 m 286 94 q 272 128 286 114 q 239 142 258 142 q 206 128 219 142 q 192 94 192 114 q 206 61 192 75 q 239 47 219 47 q 272 61 258 47 q 286 94 286 75 z "},"ๅ":{"ha":290,"x_min":-154,"x_max":219,"o":"m 219 -194 l 133 -194 l 133 404 q 107 467 133 443 q 35 492 81 492 q -40 461 -11 492 q -71 383 -69 431 l -154 383 q -99 516 -150 467 q 35 565 -49 565 q 166 526 113 565 q 219 406 219 486 l 219 -194 z "},"ๆ":{"ha":607,"x_min":100,"x_max":529,"o":"m 529 -194 l 443 -194 l 443 401 q 389 493 443 458 l 325 443 l 243 494 q 210 451 219 479 l 219 451 q 295 420 264 451 q 326 344 326 389 q 295 269 326 300 q 219 238 264 238 q 132 281 164 238 q 100 381 100 324 q 144 503 100 450 q 256 574 188 557 l 322 521 l 382 574 q 489 512 449 557 q 529 403 529 467 l 529 -194 m 268 344 q 253 381 268 365 q 217 396 238 396 q 181 381 196 396 q 165 344 165 365 q 181 308 165 324 q 217 293 196 293 q 253 308 238 293 q 268 344 268 324 z "},"็":{"ha":0,"x_min":-453,"x_max":-83,"o":"m -87 724 q -108 673 -87 694 q -160 651 -129 651 q -315 710 -228 651 q -355 683 -333 704 q -379 644 -376 661 q -453 763 -453 693 q -410 847 -453 817 q -312 875 -372 875 l -218 875 q -150 936 -150 875 l -150 968 l -83 968 l -83 938 q -121 850 -83 881 q -217 819 -158 819 l -318 819 q -358 805 -340 819 q -376 767 -376 790 q -368 731 -376 744 q -306 765 -347 763 q -229 729 -274 744 q -208 776 -229 757 q -160 796 -186 796 q -108 774 -129 796 q -87 724 -87 753 m -129 724 q -138 745 -129 736 q -160 754 -147 754 q -181 745 -172 754 q -190 724 -190 736 q -181 702 -190 711 q -160 693 -172 693 q -138 702 -147 693 q -129 724 -129 711 z "},"่":{"ha":0,"x_min":-154,"x_max":-71,"o":"m -71 940 l -154 940 l -154 1099 l -71 1099 l -71 940 z "},"้":{"ha":0,"x_min":-300,"x_max":31,"o":"m 31 1160 q -62 977 6 1028 q -258 926 -129 926 l -297 926 l -297 972 q -229 1013 -242 976 q -300 1094 -300 1031 q -276 1150 -300 1128 q -219 1172 -253 1172 q -160 1149 -182 1172 q -139 1090 -139 1126 q -200 975 -139 1036 q -89 1040 -132 989 q -42 1160 -46 1090 l 31 1160 m -185 1092 q -195 1117 -185 1107 q -221 1128 -206 1128 q -247 1117 -236 1128 q -257 1092 -257 1107 q -247 1066 -257 1076 q -221 1056 -236 1056 q -195 1066 -206 1056 q -185 1092 -185 1076 z "},"๊":{"ha":0,"x_min":-351,"x_max":50,"o":"m 50 1151 q -161 933 44 933 l -161 974 q -107 1057 -107 1000 q -147 1108 -107 1097 l -190 1064 l -235 1111 q -276 1081 -258 1106 q -220 1058 -243 1081 q -197 1003 -197 1036 q -219 950 -197 972 q -274 928 -242 928 q -329 949 -307 928 q -351 1008 -351 971 q -343 1058 -351 1033 q -319 1106 -335 1083 q -278 1142 -303 1128 q -221 1161 -254 1157 l -189 1125 l -157 1161 q -85 1132 -114 1160 q -57 1061 -57 1104 q -74 992 -57 1022 q -8 1151 -8 1032 l 50 1151 m -240 1003 q -250 1028 -240 1018 q -275 1039 -260 1039 q -301 1028 -290 1039 q -311 1003 -311 1018 q -301 978 -311 988 q -275 968 -290 968 q -250 978 -260 968 q -240 1003 -240 988 z "},"๋":{"ha":0,"x_min":-217,"x_max":-1,"o":"m -1 1001 l -74 1001 l -74 940 l -150 940 l -150 1001 l -217 1001 l -217 1058 l -150 1058 l -150 1117 l -74 1117 l -74 1058 l -1 1058 l -1 1001 z "},"์":{"ha":0,"x_min":-249,"x_max":-14,"o":"m -14 1160 q -49 1082 -18 1108 q -128 1044 -72 1060 q -82 971 -82 1022 q -106 912 -82 936 q -165 888 -131 888 q -224 913 -200 888 q -249 972 -249 938 q -154 1090 -249 1060 q -99 1113 -111 1104 q -71 1160 -71 1129 l -14 1160 m -129 971 q -139 997 -129 986 q -164 1007 -149 1007 q -190 997 -179 1007 q -200 971 -200 986 q -190 946 -200 956 q -164 936 -179 936 q -139 946 -149 936 q -129 971 -129 956 z "},"ํ":{"ha":0,"x_min":-250,"x_max":-15,"o":"m -15 763 q -49 680 -15 714 q -132 646 -83 646 q -216 680 -182 646 q -250 763 -250 714 q -215 846 -250 811 q -132 881 -181 881 q -49 847 -83 881 q -15 763 -15 813 m -76 763 q -92 803 -76 786 q -132 819 -108 819 q -172 803 -156 819 q -189 763 -189 786 q -172 723 -189 739 q -132 707 -156 707 q -92 723 -108 707 q -76 763 -76 739 z "},"๎":{"ha":0,"x_min":-304,"x_max":-54,"o":"m -142 644 q -211 632 -169 632 q -276 655 -249 632 q -304 714 -304 678 q -283 772 -304 747 q -229 801 -261 796 q -243 844 -243 822 q -207 914 -243 890 q -129 933 -175 933 q -54 919 -90 933 l -75 868 q -131 878 -103 878 q -182 844 -182 878 q -110 800 -182 807 l -132 747 q -176 757 -158 757 q -246 713 -246 757 q -193 685 -246 685 q -142 697 -172 685 l -142 644 z "},"๏":{"ha":625,"x_min":78,"x_max":547,"o":"m 401 226 q 376 289 401 263 q 313 315 350 315 q 249 289 275 315 q 224 226 224 263 q 249 163 224 189 q 313 138 275 138 q 376 163 350 138 q 401 226 401 189 m 450 226 q 410 128 450 169 q 313 88 369 88 q 215 128 256 88 q 175 226 175 169 q 215 324 175 283 q 313 364 256 364 q 410 324 369 364 q 450 226 450 283 m 499 226 q 444 358 499 304 q 313 413 390 413 q 181 358 236 413 q 126 226 126 304 q 181 94 126 149 q 313 39 236 39 q 444 94 389 39 q 499 226 499 150 m 547 226 q 478 60 547 129 q 313 -8 410 -8 q 147 60 215 -8 q 78 226 78 129 q 147 392 78 324 q 313 461 215 461 q 477 391 407 461 q 547 226 547 321 z "},"๐":{"ha":633,"x_min":71,"x_max":561,"o":"m 469 203 q 424 304 469 267 q 317 342 379 342 q 209 304 254 342 q 164 203 164 267 q 209 101 164 139 q 317 64 254 64 q 424 101 379 64 q 469 203 469 139 m 561 203 q 482 44 561 107 q 317 -12 410 -12 q 150 44 222 -12 q 71 203 71 107 q 150 361 71 299 q 317 418 222 418 q 482 361 410 418 q 561 203 561 299 z "},"๑":{"ha":633,"x_min":65,"x_max":567,"o":"m 567 165 q 493 -28 567 54 l 390 -28 q 485 165 485 63 q 438 292 485 244 q 313 340 392 340 q 197 298 244 340 q 149 193 149 256 q 179 99 149 138 q 261 61 210 61 q 303 68 282 61 q 225 101 254 68 q 199 169 199 131 q 231 242 199 213 q 304 272 263 272 q 386 238 356 272 q 417 151 417 203 q 369 35 417 81 q 247 -10 321 -10 q 116 49 167 -10 q 65 190 65 108 q 140 353 65 289 q 315 417 215 417 q 497 343 426 417 q 567 165 567 269 m 353 169 q 339 203 353 189 q 306 217 325 217 q 272 203 286 217 q 258 169 258 189 q 272 136 258 150 q 306 122 286 122 q 339 136 325 122 q 353 169 353 150 z "},"๒":{"ha":633,"x_min":15,"x_max":585,"o":"m 585 97 q 492 0 585 0 l 132 0 q 54 90 54 0 l 54 483 q 40 507 54 501 q 15 510 39 507 l 15 581 q 104 563 76 581 q 139 482 139 540 l 139 117 q 178 72 139 72 l 464 72 q 500 106 500 72 l 500 293 q 469 343 500 343 q 425 263 425 343 l 369 263 q 304 346 354 346 q 270 328 283 346 q 256 288 257 310 l 267 288 q 334 260 307 288 q 361 194 361 233 q 334 127 361 154 q 267 100 307 100 q 158 225 158 100 q 193 360 158 307 q 304 419 232 419 q 393 365 372 419 q 475 419 417 419 q 556 382 526 419 q 585 296 585 344 l 585 97 m 308 193 q 297 223 308 211 q 267 235 285 235 q 238 223 249 235 q 226 193 226 211 q 238 164 226 175 q 267 153 249 153 q 297 164 285 153 q 308 193 308 175 z "},"๓":{"ha":633,"x_min":36,"x_max":578,"o":"m 578 0 l 497 0 l 497 264 q 442 343 497 343 q 394 317 414 343 q 375 260 375 290 l 375 0 l 293 0 l 293 260 q 204 342 293 342 q 131 282 154 342 q 114 182 114 239 q 163 194 136 194 q 236 166 206 194 q 267 93 267 138 q 239 24 267 51 q 161 -10 210 -8 q 61 54 94 -11 q 36 179 36 106 q 76 340 36 274 q 208 418 124 418 q 332 356 290 418 q 444 418 371 419 q 543 374 508 418 q 578 265 578 331 l 578 0 m 208 89 q 195 122 208 108 q 163 135 182 135 q 131 122 143 135 q 118 89 118 108 q 131 57 118 69 q 163 44 143 44 q 195 57 182 44 q 208 89 208 69 z "},"๔":{"ha":633,"x_min":26,"x_max":671,"o":"m 558 -12 q 429 25 481 25 q 329 8 394 25 q 231 -10 264 -10 q 82 50 139 -10 q 26 192 26 106 q 324 421 26 421 q 492 439 442 421 q 592 581 574 468 l 671 581 q 554 379 640 429 q 343 344 494 344 q 189 325 236 344 q 113 197 113 292 q 149 102 113 143 q 228 61 186 61 q 333 76 236 61 q 206 210 206 110 q 236 285 206 256 q 308 314 267 314 q 381 283 353 314 q 408 211 408 251 q 367 129 408 163 q 426 111 389 118 q 503 97 465 106 q 599 53 542 88 l 558 -12 m 347 213 q 335 242 347 231 q 306 254 324 254 q 276 242 288 254 q 264 213 264 231 q 276 183 264 194 q 306 171 288 171 q 335 183 324 171 q 347 213 347 194 z "},"๕":{"ha":633,"x_min":26,"x_max":671,"o":"m 558 -12 q 429 25 481 25 q 329 8 394 25 q 231 -10 264 -10 q 82 50 139 -10 q 26 192 26 106 q 274 419 26 401 q 247 486 247 446 q 275 553 247 526 q 342 581 303 581 q 409 553 382 581 q 436 486 436 526 q 413 422 436 450 q 492 439 458 426 q 592 581 574 469 l 671 581 q 554 379 640 429 q 343 344 494 344 q 189 325 236 344 q 113 197 113 292 q 149 102 113 143 q 228 61 186 61 q 333 76 236 61 q 206 210 206 110 q 236 285 206 256 q 308 314 267 314 q 381 283 353 314 q 408 211 408 251 q 367 129 408 163 q 426 111 389 118 q 506 96 471 104 q 599 53 542 88 l 558 -12 m 347 213 q 335 242 347 231 q 306 254 324 254 q 276 242 288 254 q 264 213 264 231 q 276 183 264 194 q 306 171 288 171 q 335 183 324 171 q 347 213 347 194 m 383 485 q 372 515 383 503 q 342 526 360 526 q 312 515 324 526 q 300 485 300 503 q 312 455 300 467 q 342 443 324 443 q 372 455 360 443 q 383 485 383 467 z "},"๖":{"ha":633,"x_min":15,"x_max":593,"o":"m 593 213 q 507 40 593 101 q 326 -12 433 -12 q 189 7 236 -12 q 96 125 96 44 q 124 201 96 171 q 199 232 153 232 q 275 201 244 232 q 306 128 306 171 q 288 67 306 89 q 319 65 297 65 q 449 99 397 65 q 510 210 510 136 q 457 310 510 275 q 344 340 411 340 q 129 253 193 340 l 100 253 q 85 424 96 367 q 15 581 65 515 l 110 581 q 167 381 160 490 q 342 418 226 418 q 515 369 447 418 q 593 213 593 314 m 247 128 q 234 160 247 147 q 201 174 221 174 q 169 160 182 174 q 157 128 157 147 q 169 96 157 108 q 201 83 182 83 q 234 96 221 83 q 247 128 247 108 z "},"๗":{"ha":633,"x_min":19,"x_max":640,"o":"m 607 321 q 557 82 607 156 q 353 -4 497 -4 q 410 261 410 150 q 400 313 410 288 q 364 346 386 346 q 324 314 339 346 q 313 260 313 288 l 313 204 l 229 204 l 229 257 q 167 346 229 346 q 115 299 133 346 q 101 210 101 261 l 101 194 q 146 206 126 206 q 221 174 189 206 q 253 97 253 143 q 222 24 253 53 q 146 -6 192 -6 q 44 64 78 -6 q 19 196 19 117 q 49 340 19 281 q 164 418 88 418 q 269 364 239 418 q 358 418 301 418 q 461 364 426 418 q 490 249 490 319 q 469 99 490 176 q 528 304 528 138 q 556 581 528 521 l 640 581 q 606 432 606 529 q 607 321 607 335 m 192 100 q 177 134 192 119 q 143 149 163 149 q 110 134 124 149 q 96 100 96 119 q 110 67 96 81 q 143 53 124 53 q 177 67 163 53 q 192 100 192 81 z "},"๘":{"ha":633,"x_min":32,"x_max":600,"o":"m 592 108 q 557 25 592 61 q 474 -11 522 -11 q 260 94 374 -11 q 194 45 229 83 q 153 -22 158 7 q 32 208 32 60 q 107 382 32 336 q 314 418 167 418 q 463 438 421 418 q 518 547 518 465 l 518 560 l 599 560 q 600 529 600 549 q 500 368 600 407 q 283 344 440 344 q 111 206 111 344 q 150 97 111 122 q 207 153 165 129 q 283 178 249 178 q 360 117 315 136 q 396 194 361 163 q 474 226 431 226 q 558 192 524 226 q 592 108 592 157 m 524 108 q 509 143 524 128 q 474 158 494 158 q 438 143 453 158 q 424 108 424 128 q 438 73 424 88 q 474 58 453 58 q 509 73 494 58 q 524 108 524 88 z "},"๙":{"ha":633,"x_min":33,"x_max":619,"o":"m 553 -14 q 363 242 451 65 q 346 278 354 260 q 321 310 338 297 q 228 342 278 342 q 147 299 178 342 q 115 206 115 256 q 139 117 115 157 q 236 190 160 190 q 306 161 276 190 q 335 90 335 132 q 306 20 335 50 q 236 -10 276 -10 q 89 56 147 -10 q 33 204 33 117 q 92 356 33 294 q 236 418 151 418 q 364 372 314 418 q 422 417 379 417 q 474 397 442 417 q 526 376 507 376 q 553 456 553 376 q 536 576 553 525 l 604 576 q 619 442 619 507 q 539 301 619 301 q 488 322 521 301 q 443 343 456 343 q 418 317 418 343 q 492 164 418 268 q 610 39 565 60 l 553 -14 m 281 89 q 267 122 281 108 q 235 135 254 135 q 203 122 215 135 q 190 89 190 108 q 203 57 190 69 q 235 44 215 44 q 267 57 254 44 q 281 89 281 69 z "},"๚":{"ha":729,"x_min":33,"x_max":665,"o":"m 665 0 l 579 0 l 579 438 q 564 490 579 488 q 456 361 556 399 l 456 0 l 369 0 l 369 438 q 354 490 369 488 q 291 385 349 425 q 165 346 233 346 q 72 375 111 346 q 33 458 33 404 q 64 534 33 503 q 139 565 94 565 q 215 534 183 565 q 246 458 246 503 q 243 438 246 451 q 299 554 289 472 l 361 554 q 456 454 456 554 l 456 439 q 508 554 500 475 l 571 554 q 665 454 665 554 l 665 0 m 186 458 q 172 492 186 478 q 139 506 158 506 q 106 492 119 506 q 92 458 92 478 q 106 425 92 439 q 139 411 119 411 q 172 425 158 411 q 186 458 186 439 z "},"๛":{"ha":968,"x_min":107,"x_max":929,"o":"m 261 444 l 261 453 l 265 453 q 269 449 269 453 q 265 444 269 444 l 261 444 m 261 435 l 261 443 l 265 443 q 272 449 272 443 q 265 454 272 454 l 258 454 l 258 435 l 261 435 m 301 444 l 301 453 l 306 453 q 310 449 310 453 q 306 444 310 444 l 301 444 m 256 435 l 256 438 l 246 438 l 246 454 l 243 454 l 243 435 l 256 435 m 218 442 q 213 436 218 436 q 207 444 207 436 q 213 453 207 453 q 218 447 217 453 l 221 447 q 213 454 218 454 q 204 444 204 454 q 213 435 204 435 q 221 442 221 435 l 218 442 m 294 449 q 289 454 294 454 q 282 449 282 454 q 293 440 286 444 q 289 436 293 436 q 285 442 285 436 l 282 442 q 289 435 282 435 q 296 440 296 435 q 285 449 292 444 q 289 453 285 453 q 292 449 292 450 l 294 449 m 239 435 l 239 454 l 236 454 l 236 446 l 226 446 l 226 454 l 224 454 l 224 435 l 226 435 l 226 444 l 236 444 l 236 435 l 239 435 m 331 435 l 324 446 l 331 454 l 326 454 l 319 444 l 319 454 l 317 454 l 317 435 l 319 435 l 319 442 l 322 444 l 326 435 l 331 435 m 301 435 l 301 443 l 306 443 q 313 449 313 443 q 306 454 313 454 l 299 454 l 299 435 l 301 435 m 297 217 q 336 256 336 217 q 297 294 336 294 q 258 256 258 294 q 297 217 258 217 m 929 249 q 872 233 901 233 q 792 268 826 233 q 753 192 783 201 q 725 238 740 192 q 696 306 706 296 q 658 178 696 178 q 635 228 650 178 q 606 299 618 283 q 553 163 597 163 q 529 217 544 163 q 500 299 510 286 q 293 33 500 33 q 157 93 207 33 q 107 254 107 153 q 150 415 107 358 q 271 472 193 472 q 369 434 333 472 q 406 329 406 396 q 382 229 406 269 q 297 179 353 179 q 244 202 267 179 q 222 256 222 225 q 244 310 222 288 q 297 332 265 332 q 357 304 333 332 l 357 307 l 360 340 q 275 429 367 429 q 188 381 218 429 q 157 247 157 332 q 195 125 157 171 q 293 79 233 79 q 419 139 375 79 q 463 308 463 199 q 458 374 463 351 q 563 226 536 358 q 575 304 575 267 q 564 371 575 331 q 665 250 622 354 q 672 301 672 285 q 665 353 672 314 q 754 236 725 336 q 768 285 768 254 q 764 322 768 301 q 824 283 771 321 q 922 249 871 249 l 929 249 z "},"‌":{"ha":0,"x_min":-24,"x_max":25,"o":"m 25 -347 l -24 -347 l -24 399 l 25 399 l 25 -347 z "},"‍":{"ha":0,"x_min":-75,"x_max":76,"o":"m 25 -347 l -24 -347 l -24 275 l -51 247 l -75 271 l -24 322 l -75 376 l -50 399 l 0 347 l 51 399 l 76 376 l 25 322 l 76 271 l 51 247 l 25 275 l 25 -347 z "},"‎":{"ha":0,"x_min":-24,"x_max":231,"o":"m 25 -347 l -24 -347 l -24 350 l 160 350 l 136 375 l 158 397 l 231 325 l 158 253 l 136 276 l 160 301 l 25 301 l 25 -347 z "},"‏":{"ha":0,"x_min":-229,"x_max":25,"o":"m 25 -347 l -24 -347 l -24 301 l -158 301 l -135 276 l -157 253 l -229 325 l -157 397 q -147 386 -154 393 q -135 375 -140 379 l -158 350 l 25 350 l 25 -347 z "},"–":{"ha":465,"x_min":13,"x_max":453,"o":"m 453 218 l 13 218 l 13 293 l 453 293 l 453 218 z "},"—":{"ha":963,"x_min":13,"x_max":950,"o":"m 950 218 l 13 218 l 13 293 l 950 293 l 950 218 z "},"‘":{"ha":351,"x_min":100,"x_max":233,"o":"m 228 518 q 209 474 228 492 q 164 456 190 456 q 119 474 138 456 q 100 518 101 492 q 141 652 101 601 q 213 715 181 703 l 233 692 q 151 581 163 646 q 158 581 154 581 q 164 582 161 582 q 209 563 190 582 q 228 518 228 544 z "},"’":{"ha":351,"x_min":118,"x_max":251,"o":"m 251 633 q 210 499 250 550 q 139 436 171 449 l 118 460 q 200 571 189 506 q 194 570 197 571 q 188 569 190 569 q 142 588 161 569 q 124 633 124 607 q 142 678 124 660 q 188 696 161 696 q 232 678 214 696 q 251 633 250 660 z "},"‚":{"ha":351,"x_min":118,"x_max":251,"o":"m 251 58 q 210 -76 250 -25 q 139 -139 171 -126 l 118 -115 q 200 -4 189 -69 q 194 -5 197 -4 q 188 -6 190 -6 q 142 13 161 -6 q 124 58 124 32 q 142 103 124 85 q 188 121 161 121 q 232 103 214 121 q 251 58 250 85 z "},"“":{"ha":533,"x_min":100,"x_max":415,"o":"m 228 518 q 209 474 228 492 q 164 456 190 456 q 119 474 138 456 q 100 518 101 492 q 141 652 101 601 q 213 715 181 703 l 233 692 q 151 581 163 646 q 158 581 154 581 q 164 582 161 582 q 209 563 190 582 q 228 518 228 544 m 410 518 q 391 474 410 492 q 346 456 372 456 q 301 474 319 456 q 282 518 283 492 q 323 652 283 601 q 394 715 363 703 l 415 692 q 333 581 344 646 q 340 581 336 581 q 346 582 343 582 q 391 563 372 582 q 410 518 410 544 z "},"”":{"ha":533,"x_min":118,"x_max":433,"o":"m 251 633 q 210 499 250 550 q 139 436 171 449 l 118 460 q 200 571 189 506 q 194 570 197 571 q 188 569 190 569 q 142 588 161 569 q 124 633 124 607 q 142 678 124 660 q 188 696 161 696 q 232 678 214 696 q 251 633 250 660 m 433 633 q 392 499 432 550 q 321 436 353 449 l 300 460 q 382 571 371 506 q 376 570 379 571 q 369 569 372 569 q 324 588 343 569 q 306 633 306 607 q 324 678 306 660 q 369 696 343 696 q 414 678 396 696 q 433 633 432 660 z "},"„":{"ha":533,"x_min":118,"x_max":433,"o":"m 251 58 q 210 -76 250 -25 q 139 -139 171 -126 l 118 -115 q 200 -4 189 -69 q 194 -5 197 -4 q 188 -6 190 -6 q 142 13 161 -6 q 124 58 124 32 q 142 103 124 85 q 188 121 161 121 q 232 103 214 121 q 251 58 250 85 m 433 58 q 392 -76 432 -25 q 321 -139 353 -126 l 300 -115 q 382 -4 371 -69 q 376 -5 379 -4 q 369 -6 372 -6 q 324 13 343 -6 q 306 58 306 32 q 324 103 306 85 q 369 121 343 121 q 414 103 396 121 q 433 58 432 85 z "},"†":{"ha":528,"x_min":54,"x_max":474,"o":"m 299 -46 l 229 -46 l 229 394 l 54 389 l 54 456 l 229 450 l 229 660 l 299 660 l 299 450 l 474 456 l 474 389 l 299 394 l 299 -46 z "},"‡":{"ha":528,"x_min":54,"x_max":474,"o":"m 299 -46 l 229 -46 l 229 156 l 54 151 l 54 217 l 229 211 l 229 394 l 54 389 l 54 456 l 229 450 l 229 660 l 299 660 l 299 450 l 474 456 l 474 389 l 299 394 l 299 211 l 474 217 l 474 151 l 299 156 l 299 -46 z "},"•":{"ha":314,"x_min":40,"x_max":274,"o":"m 274 278 q 240 195 274 229 q 157 161 206 161 q 74 195 108 161 q 40 278 40 229 q 74 360 40 326 q 157 394 107 394 q 240 360 206 394 q 274 278 274 325 z "},"…":{"ha":700,"x_min":53,"x_max":647,"o":"m 186 54 q 167 7 186 26 q 119 -12 147 -12 q 72 7 92 -12 q 53 54 53 26 q 72 101 53 82 q 119 121 92 121 q 167 101 147 121 q 186 54 186 82 m 417 54 q 397 7 417 26 q 350 -12 378 -12 q 303 7 322 -12 q 283 54 283 26 q 303 101 283 82 q 350 121 322 121 q 397 101 378 121 q 417 54 417 82 m 647 54 q 628 7 647 26 q 581 -12 608 -12 q 533 7 553 -12 q 514 54 514 26 q 533 101 514 82 q 581 121 553 121 q 628 101 608 121 q 647 54 647 82 z "},"‰":{"ha":1350,"x_min":54,"x_max":1296,"o":"m 301 -12 l 217 -12 l 640 661 l 725 661 l 301 -12 m 383 469 q 218 267 383 267 q 54 469 54 267 q 218 674 54 674 q 383 469 383 674 m 301 469 q 218 600 301 600 q 138 469 138 600 q 218 342 138 342 q 301 469 301 342 m 901 193 q 735 -11 901 -11 q 569 193 569 -11 q 735 396 569 396 q 901 193 901 396 m 818 193 q 735 324 818 324 q 653 193 653 324 q 735 64 653 64 q 818 193 818 64 m 1296 193 q 1129 -11 1296 -11 q 964 193 964 -11 q 1129 396 964 396 q 1296 193 1296 396 m 1213 193 q 1129 324 1213 324 q 1047 193 1047 324 q 1129 64 1047 64 q 1213 193 1213 64 z "},"′":{"ha":182,"x_min":25,"x_max":154,"o":"m 63 515 l 25 515 l 78 661 l 154 661 l 63 515 z "},"″":{"ha":306,"x_min":25,"x_max":278,"o":"m 63 515 l 25 515 l 78 661 l 154 661 l 63 515 m 186 515 l 149 515 l 201 661 l 278 661 l 186 515 z "},"‹":{"ha":325,"x_min":42,"x_max":283,"o":"m 283 65 l 200 65 l 42 249 l 197 438 l 282 438 l 125 249 l 283 65 z "},"›":{"ha":325,"x_min":42,"x_max":283,"o":"m 125 65 l 42 65 l 200 250 l 43 438 l 126 438 l 283 249 l 125 65 z "},"⁄":{"ha":204,"x_min":-75,"x_max":283,"o":"m 8 0 l -75 0 l 201 663 l 283 663 l 8 0 z "},"€":{"ha":719,"x_min":40,"x_max":678,"o":"m 678 35 q 571 0 631 13 q 453 -12 511 -12 q 354 3 403 -12 q 262 47 306 18 q 183 114 218 75 q 125 199 147 153 l 40 199 l 40 274 l 106 274 q 106 375 101 325 l 40 375 l 40 449 l 125 449 q 267 613 174 553 q 476 672 360 672 q 674 631 571 672 l 647 553 q 479 596 569 596 q 315 558 382 596 q 214 449 247 519 l 556 449 l 556 375 l 190 375 q 192 274 185 325 l 556 274 l 556 199 l 217 199 q 316 103 251 140 q 469 65 381 65 q 559 74 515 65 q 644 103 603 83 l 678 35 z "},"ℓ":{"ha":353,"x_min":14,"x_max":308,"o":"m 296 61 q 235 11 268 29 q 174 -7 203 -7 q 117 19 140 -7 q 94 104 94 46 l 94 254 l 47 222 l 14 278 l 94 328 l 94 499 q 126 594 94 563 q 201 625 158 625 q 277 594 246 625 q 308 508 308 563 q 296 440 308 472 q 264 382 283 408 q 220 335 244 356 q 174 297 196 314 l 174 110 q 178 81 174 97 q 201 65 182 65 q 232 78 214 65 q 274 118 250 90 l 296 61 m 231 500 q 224 538 231 522 q 199 553 218 553 q 178 540 182 553 q 174 499 174 526 l 174 389 q 211 437 192 404 q 231 500 231 469 z "},"™":{"ha":844,"x_min":29,"x_max":808,"o":"m 231 250 l 168 250 l 168 601 l 29 601 l 29 660 l 369 660 l 369 601 l 231 601 l 231 250 m 808 250 l 744 250 l 728 543 l 613 250 l 565 250 l 454 543 l 433 250 l 372 250 l 397 660 l 465 660 l 590 338 l 715 660 l 782 660 l 808 250 z "},"Ω":{"ha":661,"x_min":44,"x_max":618,"o":"m 618 0 l 378 0 l 378 182 q 513 374 513 242 q 461 505 513 453 q 332 557 410 557 q 202 505 254 557 q 150 374 150 453 q 285 182 150 242 l 285 0 l 44 0 l 44 75 l 208 75 l 208 129 q 107 224 151 157 q 63 369 63 292 q 136 564 63 496 q 332 632 210 632 q 526 563 453 632 q 600 369 600 494 q 556 219 600 285 q 454 129 513 154 l 454 75 l 618 75 l 618 0 z "},"℮":{"ha":485,"x_min":53,"x_max":429,"o":"m 344 328 q 242 465 329 465 q 138 328 154 465 l 344 328 m 425 168 q 242 -10 385 -10 q 53 281 53 -10 q 106 473 53 410 q 242 536 158 536 q 380 464 333 536 q 429 257 426 392 l 135 257 q 167 109 140 156 q 242 63 193 63 q 304 91 278 63 q 346 168 331 119 l 425 168 z "},"∂":{"ha":485,"x_min":47,"x_max":438,"o":"m 438 390 q 379 139 438 256 q 183 -7 307 -7 q 88 34 128 -7 q 47 150 47 75 q 142 344 47 272 q 340 407 225 407 l 353 407 q 293 550 346 550 q 208 450 242 550 l 132 492 q 292 632 196 632 q 438 390 438 632 m 350 329 l 340 329 q 192 271 247 329 q 142 150 142 221 q 199 79 142 79 q 307 174 263 79 q 350 329 339 240 z "},"∆":{"ha":667,"x_min":4,"x_max":663,"o":"m 546 65 l 333 501 l 121 65 l 546 65 m 663 0 l 4 0 l 333 656 l 663 0 z "},"∏":{"ha":685,"x_min":74,"x_max":610,"o":"m 610 -104 l 522 -104 l 522 586 l 163 586 l 163 -104 l 74 -104 l 74 661 l 610 661 l 610 -104 z "},"∑":{"ha":579,"x_min":35,"x_max":564,"o":"m 564 -104 l 35 -104 l 35 -22 l 292 296 l 35 581 l 35 661 l 543 661 l 543 586 l 124 586 l 374 325 l 374 276 l 124 -29 l 564 -29 l 564 -104 z "},"−":{"ha":579,"x_min":88,"x_max":490,"o":"m 490 218 l 88 218 l 88 293 l 490 293 l 490 218 z "},"√":{"ha":538,"x_min":33,"x_max":529,"o":"m 274 -14 l 208 -14 l 108 307 l 33 307 l 33 374 l 169 374 l 246 107 l 444 656 l 529 656 l 274 -14 z "},"∞":{"ha":878,"x_min":65,"x_max":813,"o":"m 388 306 q 242 393 304 393 q 168 367 193 393 q 143 307 143 342 q 243 213 143 213 q 388 306 319 213 m 813 294 q 769 186 813 231 q 636 142 725 142 q 435 251 538 142 q 242 142 351 142 q 114 187 163 142 q 65 310 65 232 q 108 418 65 374 q 240 463 151 463 q 442 354 333 463 q 635 463 526 463 q 764 417 715 463 q 813 294 813 372 m 735 297 q 633 392 735 392 q 490 299 553 392 q 635 211 575 211 q 709 237 683 211 q 735 297 735 263 z "},"∫":{"ha":344,"x_min":-76,"x_max":357,"o":"m 136 -1 q 0 -136 114 -136 q -76 -126 -29 -136 l -61 -53 q -22 -58 -39 -58 q 56 6 44 -58 l 149 538 q 289 671 171 672 q 357 663 322 671 l 343 592 q 296 599 318 599 q 226 532 238 599 l 136 -1 z "},"≈":{"ha":579,"x_min":53,"x_max":524,"o":"m 524 365 q 489 265 524 301 q 399 228 454 228 q 285 271 365 228 q 182 314 206 314 q 131 228 133 314 l 54 228 l 54 254 q 91 351 54 315 q 182 388 128 388 q 297 347 219 388 q 401 306 375 306 q 449 388 444 306 l 524 388 l 524 365 m 522 156 q 488 55 522 92 q 397 18 453 18 q 284 61 364 18 q 181 104 204 104 q 129 18 132 104 l 53 18 l 53 44 q 90 142 53 106 q 181 178 126 178 q 296 137 218 178 q 400 96 374 96 q 447 178 443 96 l 522 178 l 522 156 z "},"≠":{"ha":579,"x_min":63,"x_max":515,"o":"m 515 135 l 265 135 q 231 67 249 103 q 197 0 213 32 l 107 0 l 174 135 l 63 135 l 63 208 l 210 208 q 237 258 225 236 q 264 310 249 279 l 63 310 l 63 383 l 300 383 l 381 538 l 474 538 l 394 383 l 515 383 l 515 310 l 356 310 q 331 260 343 283 q 303 208 318 238 l 515 208 l 515 135 z "},"≤":{"ha":579,"x_min":43,"x_max":535,"o":"m 535 21 l 43 21 l 43 93 l 535 93 l 535 21 m 497 122 l 65 294 l 65 378 l 497 550 l 497 464 l 161 335 l 497 207 l 497 122 z "},"≥":{"ha":579,"x_min":43,"x_max":535,"o":"m 535 21 l 43 21 l 43 93 l 535 93 l 535 21 m 497 294 l 65 122 l 65 207 l 401 335 l 65 464 l 65 550 l 497 378 l 497 294 z "},"◊":{"ha":563,"x_min":39,"x_max":524,"o":"m 524 306 l 319 0 l 243 0 l 39 306 l 243 613 l 319 613 l 524 306 m 440 306 l 282 543 l 122 306 l 282 68 l 440 306 z "},"◌":{"ha":564,"x_min":28,"x_max":535,"o":"m 307 511 q 299 492 307 500 q 281 485 292 485 q 262 492 269 485 q 254 511 254 500 q 262 530 254 522 q 281 538 269 538 q 299 530 292 538 q 307 511 307 522 m 307 57 q 299 38 307 46 q 281 31 292 31 q 262 38 269 31 q 254 57 254 46 q 262 76 254 68 q 281 83 269 83 q 299 76 292 83 q 307 57 307 68 m 79 285 q 72 267 79 274 q 53 260 64 260 q 35 267 42 260 q 28 285 28 274 q 35 303 28 296 q 53 311 42 311 q 72 303 64 311 q 79 285 79 296 m 535 285 q 527 267 535 274 q 508 260 519 260 q 490 267 497 260 q 483 285 483 274 q 490 303 483 296 q 508 311 497 311 q 527 303 519 311 q 535 285 535 296 m 97 369 q 90 351 97 358 q 71 344 82 344 q 53 351 60 344 q 46 369 46 358 q 53 388 46 381 q 71 396 60 396 q 90 388 82 396 q 97 369 97 381 m 146 446 q 138 428 146 435 q 119 421 131 421 q 101 428 108 421 q 94 446 94 435 q 101 465 94 457 q 119 472 108 472 q 138 465 131 472 q 146 446 146 457 m 219 494 q 212 476 219 483 q 193 469 204 469 q 175 476 182 469 q 168 494 168 483 q 175 513 168 506 q 193 521 182 521 q 212 513 204 521 q 219 494 219 506 m 515 369 q 508 351 515 358 q 490 344 501 344 q 472 351 479 344 q 464 369 464 358 q 472 388 464 381 q 490 396 479 396 q 508 388 501 396 q 515 369 515 381 m 467 446 q 460 428 467 435 q 442 421 453 421 q 423 428 431 421 q 415 446 415 435 q 423 465 415 457 q 442 472 431 472 q 460 465 453 472 q 467 446 467 457 m 393 494 q 386 476 393 483 q 368 469 379 469 q 349 476 357 469 q 342 494 342 483 q 349 513 342 506 q 368 521 357 521 q 386 513 379 521 q 393 494 393 506 m 97 199 q 90 180 97 188 q 71 172 82 172 q 53 180 60 172 q 46 199 46 188 q 53 217 46 210 q 71 224 60 224 q 90 217 82 224 q 97 199 97 210 m 146 122 q 138 103 146 111 q 119 96 131 96 q 101 103 108 96 q 94 122 94 111 q 101 140 94 133 q 119 147 108 147 q 138 140 131 147 q 146 122 146 133 m 219 74 q 212 55 219 63 q 193 47 204 47 q 175 55 182 47 q 168 74 168 63 q 175 92 168 85 q 193 99 182 99 q 212 92 204 99 q 219 74 219 85 m 510 179 q 492 172 503 172 q 473 180 481 172 q 465 199 465 188 q 473 217 465 210 q 492 224 481 224 q 510 217 503 224 q 517 199 517 210 q 510 179 517 188 m 461 103 q 443 96 454 96 q 424 103 432 96 q 417 122 417 111 q 424 140 417 133 q 443 147 432 147 q 461 140 454 147 q 468 122 468 133 q 461 103 468 111 m 388 54 q 369 47 381 47 q 351 55 358 47 q 343 74 343 63 q 351 92 343 85 q 369 99 358 99 q 388 92 381 99 q 394 74 394 85 q 388 54 394 63 z "},"":{"ha":517,"x_min":47,"x_max":486,"o":"m 436 115 q 304 -11 436 -11 q 176 108 176 -11 l 176 154 q 157 151 165 151 q 90 178 117 151 q 64 244 64 206 q 94 311 64 285 q 161 338 124 338 q 233 312 203 338 q 263 246 263 286 l 263 111 q 306 61 263 61 q 350 111 350 61 l 350 311 q 219 369 350 340 q 47 393 107 393 q 113 528 56 482 q 229 565 160 565 q 308 551 256 565 q 389 538 360 538 q 415 571 410 538 l 486 553 q 385 457 461 457 q 308 474 358 457 q 229 492 257 492 q 181 481 208 492 q 146 454 154 469 q 382 393 306 428 q 436 319 436 368 l 436 115 m 197 244 q 185 273 197 261 q 157 285 174 285 q 128 273 140 285 q 117 244 117 261 q 128 216 117 228 q 157 204 140 204 q 185 216 174 204 q 197 244 197 228 z "},"":{"ha":0,"x_min":-647,"x_max":-200,"o":"m -200 625 q -515 681 -372 681 q -647 672 -581 681 q -444 858 -631 858 q -275 794 -337 858 q -200 625 -212 729 m -289 707 q -339 772 -297 742 q -433 803 -381 803 q -519 783 -483 803 q -565 729 -556 763 q -492 735 -542 735 q -289 707 -389 735 z "},"":{"ha":0,"x_min":-647,"x_max":-200,"o":"m -200 625 q -515 681 -372 681 q -647 672 -581 681 q -444 858 -631 858 q -286 804 -346 858 l -286 900 l -203 900 l -203 644 q -200 625 -201 635 m -289 707 q -339 772 -297 742 q -433 803 -381 803 q -519 783 -483 803 q -565 729 -556 763 q -492 735 -542 735 q -289 707 -389 735 z "},"":{"ha":0,"x_min":-647,"x_max":-185,"o":"m -289 707 q -339 772 -297 742 q -433 803 -381 803 q -519 783 -483 803 q -565 729 -556 763 q -492 735 -542 735 q -289 707 -389 735 m -228 831 q -240 859 -228 847 q -267 871 -251 871 q -294 859 -282 871 q -307 831 -307 847 q -294 803 -307 814 q -267 792 -282 792 q -240 803 -251 792 q -228 831 -228 814 m -185 831 q -201 781 -185 803 q -242 751 -217 758 q -200 625 -208 697 q -515 681 -372 681 q -647 672 -581 681 q -444 858 -631 858 q -347 842 -390 858 q -321 893 -343 872 q -267 914 -299 914 q -208 890 -232 914 q -185 831 -185 865 z "},"":{"ha":0,"x_min":-647,"x_max":-200,"o":"m -200 625 q -515 681 -372 681 q -647 672 -581 681 q -444 858 -631 858 q -406 856 -424 858 l -406 900 l -343 900 l -343 842 q -286 804 -312 829 l -286 900 l -203 900 l -203 644 l -200 625 m -289 707 q -339 772 -297 742 q -433 803 -381 803 q -519 783 -483 803 q -565 729 -556 763 q -492 735 -542 735 q -289 707 -389 735 z "},"":{"ha":0,"x_min":-324,"x_max":-237,"o":"m -237 644 l -324 644 l -324 840 l -237 840 l -237 644 z "},"":{"ha":0,"x_min":-458,"x_max":-112,"o":"m -112 872 q -142 758 -118 804 q -204 682 -165 711 q -297 640 -243 653 q -414 626 -350 626 l -456 626 l -456 679 q -410 698 -428 681 q -389 732 -393 715 q -439 763 -419 739 q -458 819 -458 788 q -433 879 -458 856 q -374 903 -408 903 q -310 878 -333 903 q -287 814 -287 853 q -307 742 -287 779 q -346 685 -326 706 q -238 751 -279 699 q -194 872 -197 803 l -112 872 m -340 817 q -350 842 -340 832 q -375 851 -360 851 q -399 842 -389 851 q -408 817 -408 832 q -399 793 -408 803 q -375 783 -389 783 q -350 793 -360 783 q -340 817 -340 803 z "},"":{"ha":0,"x_min":-549,"x_max":-112,"o":"m -112 874 q -342 636 -119 636 l -342 681 q -283 771 -283 710 q -326 826 -283 815 l -374 779 l -422 831 q -447 817 -433 828 q -467 797 -460 807 q -406 773 -431 797 q -381 713 -381 749 q -406 654 -381 678 q -464 631 -431 631 q -524 653 -499 631 q -549 718 -549 676 q -542 774 -549 746 q -518 824 -535 801 q -474 864 -501 847 q -407 885 -447 881 l -372 844 l -337 885 q -259 853 -289 883 q -229 775 -229 822 q -247 700 -229 732 q -196 765 -215 719 q -176 874 -176 811 l -112 874 m -428 713 q -439 740 -428 728 q -465 751 -450 751 q -492 740 -481 751 q -504 713 -504 728 q -492 686 -504 697 q -465 675 -481 675 q -439 686 -450 675 q -428 713 -428 697 z "},"":{"ha":0,"x_min":-439,"x_max":-203,"o":"m -203 714 l -282 714 l -282 644 l -360 644 l -360 714 l -439 714 l -439 771 l -360 771 l -360 838 l -282 838 l -282 771 l -203 771 l -203 714 z "},"":{"ha":0,"x_min":-406,"x_max":-150,"o":"m -150 926 q -187 842 -156 868 q -274 801 -219 817 q -238 769 -251 790 q -225 721 -225 747 q -251 657 -225 683 q -315 631 -278 631 q -379 657 -353 631 q -406 722 -406 683 q -303 851 -406 822 q -228 890 -244 867 q -212 926 -212 914 l -150 926 m -275 721 q -287 748 -275 736 q -314 760 -299 760 q -341 748 -329 760 q -353 721 -353 736 q -341 694 -353 706 q -314 682 -329 682 q -287 694 -299 682 q -275 721 -275 706 z "},"":{"ha":0,"x_min":-157,"x_max":-71,"o":"m -71 644 l -157 644 l -157 840 l -71 840 l -71 644 z "},"":{"ha":0,"x_min":-349,"x_max":14,"o":"m 14 885 q -25 761 0 811 q -89 681 -50 711 q -180 639 -128 651 q -300 626 -232 626 l -346 626 l -346 682 q -299 701 -318 683 q -274 738 -281 719 q -328 768 -308 743 q -349 829 -349 793 q -322 892 -349 867 q -258 917 -294 917 q -193 890 -217 917 q -169 824 -169 864 q -189 746 -169 783 q -229 688 -208 708 q -116 755 -160 700 q -69 885 -72 810 l 14 885 m -224 826 q -234 852 -224 842 q -260 863 -244 863 q -285 852 -275 863 q -294 826 -294 842 q -285 801 -294 811 q -260 790 -275 790 q -234 801 -244 790 q -224 826 -224 811 z "},"":{"ha":0,"x_min":-465,"x_max":-29,"o":"m -29 874 q -258 636 -36 636 l -258 681 q -200 771 -200 710 q -243 826 -200 815 l -290 779 l -339 831 q -363 817 -350 828 q -383 797 -376 807 q -322 773 -347 797 q -297 713 -297 749 q -322 654 -297 678 q -381 631 -347 631 q -440 653 -415 631 q -465 718 -465 676 q -458 774 -465 746 q -435 824 -451 801 q -391 864 -418 847 q -324 885 -364 881 l -289 844 l -254 885 q -176 853 -206 883 q -146 775 -146 822 q -164 700 -146 732 q -112 765 -132 719 q -93 874 -93 811 l -29 874 m -344 713 q -356 740 -344 728 q -382 751 -367 751 q -409 740 -397 751 q -421 713 -421 728 q -409 686 -421 697 q -382 675 -397 675 q -356 686 -367 675 q -344 713 -344 697 z "},"":{"ha":0,"x_min":-232,"x_max":4,"o":"m 4 714 l -75 714 l -75 644 l -153 644 l -153 714 l -232 714 l -232 771 l -153 771 l -153 838 l -75 838 l -75 771 l 4 771 l 4 714 z "},"":{"ha":0,"x_min":-269,"x_max":-14,"o":"m -14 926 q -51 842 -19 868 q -137 801 -83 817 q -102 769 -115 790 q -89 721 -89 747 q -115 657 -89 683 q -179 631 -142 631 q -243 657 -217 631 q -269 722 -269 683 q -167 851 -269 822 q -92 890 -108 867 q -76 926 -76 914 l -14 926 m -139 721 q -151 748 -139 736 q -178 760 -162 760 q -205 748 -193 760 q -217 721 -217 736 q -205 694 -217 706 q -178 682 -193 682 q -151 694 -162 682 q -139 721 -139 706 z "},"":{"ha":785,"x_min":42,"x_max":714,"o":"m 228 96 q 214 129 228 115 q 181 143 200 143 q 147 129 161 143 q 133 96 133 115 q 147 63 133 76 q 181 49 161 49 q 214 63 200 49 q 228 96 228 76 m 714 131 q 660 22 714 61 q 542 -11 613 -11 q 425 22 469 -11 q 374 131 374 60 l 374 368 q 340 456 374 422 q 256 490 306 490 q 135 421 171 490 q 226 358 189 417 q 156 258 156 319 l 156 199 q 179 200 167 200 q 254 169 224 200 q 285 94 285 139 q 254 19 285 50 q 179 -11 224 -11 q 101 21 133 -11 q 69 101 69 53 l 69 264 q 126 356 69 322 q 42 367 92 379 q 106 514 44 458 q 251 565 163 565 q 402 513 344 565 q 460 367 460 460 l 460 118 q 485 76 460 89 q 543 63 510 63 q 601 76 575 63 q 628 118 628 89 l 628 554 l 714 554 l 714 131 z "},"":{"ha":0,"x_min":-497,"x_max":-75,"o":"m -75 893 q -325 663 -111 663 q -453 697 -408 663 q -497 783 -497 731 q -469 851 -497 824 q -401 879 -442 879 q -331 851 -358 879 q -304 783 -304 822 q -325 728 -304 746 q -157 893 -181 733 l -75 893 m -360 783 q -372 814 -360 801 q -403 826 -385 826 q -433 814 -421 826 q -444 783 -444 801 q -433 753 -444 765 q -403 742 -421 742 q -372 753 -385 742 q -360 783 -360 765 z "},"":{"ha":0,"x_min":-453,"x_max":-218,"o":"m -218 763 q -252 680 -218 714 q -335 646 -286 646 q -419 680 -385 646 q -453 763 -453 714 q -418 846 -453 811 q -335 881 -383 881 q -252 847 -286 881 q -218 763 -218 813 m -279 763 q -295 803 -279 786 q -335 819 -311 819 q -375 803 -358 819 q -392 763 -392 786 q -375 723 -392 739 q -335 707 -358 707 q -295 723 -311 707 q -279 763 -279 739 z "},"":{"ha":0,"x_min":-560,"x_max":-190,"o":"m -194 724 q -215 673 -194 694 q -267 651 -236 651 q -422 710 -335 651 q -462 683 -440 704 q -486 644 -483 661 q -560 763 -560 693 q -517 847 -560 817 q -419 875 -479 875 l -325 875 q -257 936 -257 875 l -257 968 l -190 968 l -190 938 q -228 850 -190 881 q -324 819 -265 819 l -425 819 q -465 805 -447 819 q -483 767 -483 790 q -475 731 -483 744 q -412 765 -454 763 q -336 729 -381 744 q -315 776 -336 757 q -267 796 -293 796 q -215 774 -236 796 q -194 724 -194 753 m -236 724 q -245 745 -236 736 q -267 754 -254 754 q -288 745 -279 754 q -297 724 -297 736 q -288 702 -297 711 q -267 693 -279 693 q -245 702 -254 693 q -236 724 -236 711 z "},"":{"ha":0,"x_min":-286,"x_max":-203,"o":"m -203 940 l -286 940 l -286 1099 l -203 1099 l -203 940 z "},"":{"ha":0,"x_min":-432,"x_max":-101,"o":"m -101 1160 q -194 977 -126 1028 q -390 926 -261 926 l -429 926 l -429 972 q -361 1013 -374 976 q -432 1094 -432 1031 q -408 1150 -432 1128 q -351 1172 -385 1172 q -292 1149 -314 1172 q -271 1090 -271 1126 q -332 975 -271 1036 q -221 1040 -264 989 q -174 1160 -178 1090 l -101 1160 m -317 1092 q -327 1117 -317 1107 q -353 1128 -337 1128 q -378 1117 -368 1128 q -389 1092 -389 1107 q -378 1066 -389 1076 q -353 1056 -368 1056 q -327 1066 -337 1056 q -317 1092 -317 1076 z "},"":{"ha":0,"x_min":-493,"x_max":-92,"o":"m -92 1151 q -303 933 -97 933 l -303 974 q -249 1057 -249 1000 q -289 1108 -249 1097 l -332 1064 l -376 1111 q -418 1081 -400 1106 q -362 1058 -385 1081 q -339 1003 -339 1036 q -361 950 -339 972 q -415 928 -383 928 q -471 949 -449 928 q -493 1008 -493 971 q -485 1058 -493 1033 q -460 1106 -476 1083 q -420 1142 -444 1128 q -362 1161 -396 1157 l -331 1125 l -299 1161 q -227 1132 -256 1160 q -199 1061 -199 1104 q -215 992 -199 1022 q -150 1151 -150 1032 l -92 1151 m -382 1003 q -392 1028 -382 1018 q -417 1039 -401 1039 q -442 1028 -432 1039 q -453 1003 -453 1018 q -442 978 -453 988 q -417 968 -432 968 q -392 978 -401 968 q -382 1003 -382 988 z "},"":{"ha":0,"x_min":-349,"x_max":-133,"o":"m -133 1001 l -206 1001 l -206 940 l -282 940 l -282 1001 l -349 1001 l -349 1058 l -282 1058 l -282 1117 l -206 1117 l -206 1058 l -133 1058 l -133 1001 z "},"":{"ha":0,"x_min":-381,"x_max":-146,"o":"m -146 1160 q -181 1082 -150 1108 q -260 1044 -204 1060 q -214 971 -214 1022 q -238 912 -214 936 q -297 888 -262 888 q -356 913 -332 888 q -381 972 -381 938 q -286 1090 -381 1060 q -231 1113 -243 1104 q -203 1160 -203 1129 l -146 1160 m -261 971 q -271 997 -261 986 q -296 1007 -281 1007 q -322 997 -311 1007 q -332 971 -332 986 q -322 946 -332 956 q -296 936 -311 936 q -271 946 -281 936 q -261 971 -261 956 z "},"":{"ha":0,"x_min":-243,"x_max":-71,"o":"m -119 -426 q -131 -400 -119 -411 q -158 -389 -143 -389 q -185 -400 -174 -389 q -196 -426 -196 -411 q -185 -453 -196 -442 q -158 -464 -174 -464 q -131 -453 -143 -464 q -119 -426 -119 -442 m -71 -618 l -154 -618 l -154 -512 l -160 -512 q -219 -488 -194 -512 q -243 -431 -243 -464 q -219 -371 -243 -396 q -158 -346 -194 -346 q -99 -367 -126 -346 q -71 -429 -71 -389 l -71 -618 z "},"":{"ha":0,"x_min":-410,"x_max":-71,"o":"m -71 -544 q -110 -614 -71 -590 q -197 -635 -143 -635 q -279 -615 -244 -635 q -318 -554 -318 -593 l -318 -512 l -326 -512 q -385 -488 -361 -512 q -410 -431 -410 -464 q -385 -371 -410 -396 q -325 -346 -361 -346 q -264 -368 -290 -346 q -237 -429 -237 -390 l -237 -554 q -196 -575 -237 -575 q -151 -554 -151 -575 l -151 -358 l -71 -358 l -71 -544 m -286 -426 q -297 -400 -286 -411 q -324 -389 -308 -389 q -351 -400 -339 -389 q -362 -426 -362 -411 q -351 -453 -362 -442 q -324 -465 -339 -465 q -297 -453 -308 -465 q -286 -426 -286 -442 z "},"":{"ha":0,"x_min":-160,"x_max":-62,"o":"m -62 -397 q -77 -431 -62 -417 q -111 -446 -92 -446 q -145 -431 -131 -446 q -160 -397 -160 -417 q -145 -363 -160 -378 q -111 -349 -131 -349 q -77 -363 -92 -349 q -62 -397 -62 -378 z "},"":{"ha":590,"x_min":11,"x_max":519,"o":"m 175 -190 q 136 -183 161 -183 q 92 -221 92 -183 q 128 -256 92 -256 q 175 -190 175 -256 m 164 94 q 150 128 164 114 q 117 142 136 142 q 83 128 97 142 q 69 94 69 114 q 83 61 69 75 q 117 47 97 47 q 150 61 136 47 q 164 94 164 75 m 519 -321 l 442 -321 l 369 -226 l 301 -321 l 238 -233 q 201 -299 232 -272 q 135 -326 171 -326 q 58 -297 89 -326 q 28 -222 28 -267 q 146 -119 28 -119 q 183 -124 172 -119 q 256 -43 200 -72 l 304 -101 q 247 -158 253 -115 l 301 -225 l 368 -140 l 433 -215 l 433 368 q 397 458 433 424 q 304 492 360 492 q 181 421 219 492 q 274 358 249 407 q 224 324 236 338 q 206 264 206 301 q 213 176 206 233 q 219 94 219 118 q 190 19 219 50 q 117 -11 160 -11 q 42 19 72 -11 q 11 94 11 50 q 42 168 11 138 q 114 199 72 199 q 135 194 131 199 l 126 281 q 174 356 126 329 q 89 372 136 379 q 153 514 90 458 q 303 565 213 565 q 460 511 400 565 q 519 367 519 457 l 519 -321 z "},"":{"ha":660,"x_min":14,"x_max":633,"o":"m 579 0 l 492 0 l 361 247 l 232 0 l 143 0 l 143 357 q 119 354 129 354 q 44 385 75 354 q 14 461 14 417 q 44 535 14 504 q 119 565 75 565 q 198 533 167 565 q 229 453 229 501 l 229 231 q 213 94 229 188 q 243 161 225 128 l 331 307 l 392 307 l 479 161 q 510 94 497 128 q 493 231 493 188 l 493 357 q 469 354 479 354 q 394 385 425 354 q 364 461 364 417 q 394 535 364 504 q 469 565 425 565 q 525 550 501 565 q 558 610 551 572 l 633 610 q 568 503 624 539 q 579 453 579 481 l 579 0 m 517 460 q 503 493 517 479 q 469 507 489 507 q 436 493 450 507 q 422 460 422 479 q 436 426 422 440 q 469 413 450 413 q 503 426 489 413 q 517 460 517 440 m 167 460 q 153 493 167 479 q 119 507 139 507 q 86 493 100 507 q 72 460 72 479 q 86 426 72 440 q 119 413 100 413 q 153 426 139 413 q 167 460 167 440 z "},"ﬁ":{"ha":563,"x_min":24,"x_max":497,"o":"m 497 472 l 497 0 l 410 0 l 410 400 l 190 400 l 190 0 l 103 0 l 103 400 l 24 400 l 24 472 l 104 472 q 164 647 104 585 q 319 710 224 710 q 483 635 419 710 l 438 572 q 317 635 383 635 q 231 593 267 635 q 190 472 190 547 l 497 472 z "},"ﬂ":{"ha":632,"x_min":24,"x_max":626,"o":"m 626 68 l 617 -11 q 410 243 410 -1 l 410 600 q 317 635 368 635 q 231 593 267 635 q 190 472 190 547 l 354 472 l 354 400 l 190 400 l 190 0 l 103 0 l 103 400 l 24 400 l 24 472 l 104 472 q 164 647 104 585 q 319 710 224 710 q 497 621 431 710 l 497 263 q 531 111 497 156 q 626 68 560 74 z "},"Ạ":{"ha":626,"x_min":-1,"x_max":628,"o":"m 628 0 l 532 0 l 444 221 l 179 221 l 93 0 l -1 0 l 276 671 l 351 671 l 628 0 m 411 296 l 314 571 l 211 296 l 411 296 m 3903 -133 q 3883 -181 3903 -161 q 3838 -200 3864 -200 q 3792 -181 3811 -200 q 3772 -133 3772 -161 q 3792 -86 3772 -106 q 3838 -67 3811 -67 q 3883 -86 3864 -67 q 3903 -133 3903 -106 z "},"ạ":{"ha":510,"x_min":36,"x_max":493,"o":"m 458 4 l 376 -12 l 363 49 q 203 -12 292 -12 q 85 26 132 -12 q 36 129 38 64 q 351 310 36 306 q 238 414 338 414 q 72 379 163 414 l 63 458 q 242 486 157 486 q 439 283 439 486 l 439 126 q 458 4 439 74 m 351 150 l 351 233 q 125 138 125 229 q 207 64 125 64 q 299 86 253 64 q 351 150 351 113 m 3844 -133 q 3825 -181 3844 -161 q 3779 -200 3806 -200 q 3733 -181 3753 -200 q 3714 -133 3714 -161 q 3733 -86 3714 -106 q 3779 -67 3753 -67 q 3825 -86 3806 -67 q 3844 -133 3844 -106 z "},"Ả":{"ha":626,"x_min":-1,"x_max":628,"o":"m 628 0 l 532 0 l 444 221 l 179 221 l 93 0 l -1 0 l 276 671 l 351 671 l 628 0 m 411 296 l 314 571 l 211 296 l 411 296 m 12017 4200 q 12004 4158 12017 4176 q 11977 4122 11992 4139 q 11951 4090 11963 4106 q 11939 4056 11939 4074 l 11876 4056 q 11889 4096 11876 4078 q 11917 4130 11901 4114 q 11944 4161 11932 4146 q 11957 4193 11957 4176 q 11947 4224 11957 4217 q 11918 4232 11936 4232 q 11876 4217 11894 4232 q 11853 4193 11858 4201 l 11817 4224 q 11854 4266 11828 4246 q 11925 4286 11881 4286 q 11991 4265 11965 4286 q 12017 4200 12017 4244 z "},"ả":{"ha":510,"x_min":36,"x_max":835,"o":"m 458 4 l 376 -12 l 363 49 q 203 -12 292 -12 q 85 26 132 -12 q 36 129 38 64 q 351 310 36 306 q 238 414 338 414 q 72 379 163 414 l 63 458 q 242 486 157 486 q 439 283 439 486 l 439 126 q 458 4 439 74 m 351 150 l 351 233 q 125 138 125 229 q 207 64 125 64 q 299 86 253 64 q 351 150 351 113 m 11949 4011 q 11936 3969 11949 3988 q 11909 3933 11924 3950 q 11883 3901 11894 3917 q 11871 3867 11871 3885 l 11808 3867 q 11821 3907 11808 3889 q 11849 3941 11833 3925 q 11876 3972 11864 3957 q 11889 4004 11889 3988 q 11878 4035 11889 4028 q 11850 4043 11868 4043 q 11808 4028 11826 4043 q 11785 4004 11790 4013 l 11749 4035 q 11786 4077 11760 4057 q 11857 4097 11813 4097 q 11923 4076 11897 4097 q 11949 4011 11949 4056 z "},"Ấ":{"ha":626,"x_min":-1,"x_max":6049,"o":"m 628 0 l 532 0 l 444 221 l 179 221 l 93 0 l -1 0 l 276 671 l 351 671 l 628 0 m 411 296 l 314 571 l 211 296 l 411 296 m 1515 1668 l 1440 1668 l 1383 1767 l 1328 1668 l 1251 1668 l 1360 1828 l 1408 1828 l 1515 1668 m 14140 4546 l 14219 4521 l 14103 4386 l 14036 4386 l 14140 4546 z "},"ấ":{"ha":510,"x_min":36,"x_max":6690,"o":"m 458 4 l 376 -12 l 363 49 q 203 -12 292 -12 q 85 26 132 -12 q 36 129 38 64 q 351 310 36 306 q 238 414 338 414 q 72 379 163 414 l 63 458 q 242 486 157 486 q 439 283 439 486 l 439 126 q 458 4 439 74 m 351 150 l 351 233 q 125 138 125 229 q 207 64 125 64 q 299 86 253 64 q 351 150 351 113 m 1457 1479 l 1382 1479 l 1325 1578 l 1269 1479 l 1193 1479 l 1301 1639 l 1350 1639 l 1457 1479 m 14086 4368 l 14165 4343 l 14049 4208 l 13982 4208 l 14086 4368 z "},"Ầ":{"ha":626,"x_min":-1,"x_max":4792,"o":"m 628 0 l 532 0 l 444 221 l 179 221 l 93 0 l -1 0 l 276 671 l 351 671 l 628 0 m 411 296 l 314 571 l 211 296 l 411 296 m 1515 1668 l 1440 1668 l 1383 1767 l 1328 1668 l 1251 1668 l 1360 1828 l 1408 1828 l 1515 1668 m 12000 4176 l 11933 4176 l 11817 4311 l 11896 4336 l 12000 4176 z "},"ầ":{"ha":510,"x_min":36,"x_max":5339,"o":"m 458 4 l 376 -12 l 363 49 q 203 -12 292 -12 q 85 26 132 -12 q 36 129 38 64 q 351 310 36 306 q 238 414 338 414 q 72 379 163 414 l 63 458 q 242 486 157 486 q 439 283 439 486 l 439 126 q 458 4 439 74 m 351 150 l 351 233 q 125 138 125 229 q 207 64 125 64 q 299 86 253 64 q 351 150 351 113 m 1457 1479 l 1382 1479 l 1325 1578 l 1269 1479 l 1193 1479 l 1301 1639 l 1350 1639 l 1457 1479 m 11917 3999 l 11850 3999 l 11733 4133 l 11813 4158 l 11917 3999 z "},"Ẩ":{"ha":626,"x_min":-1,"x_max":2043,"o":"m 628 0 l 532 0 l 444 221 l 179 221 l 93 0 l -1 0 l 276 671 l 351 671 l 628 0 m 411 296 l 314 571 l 211 296 l 411 296 m 1515 1668 l 1440 1668 l 1383 1767 l 1328 1668 l 1251 1668 l 1360 1828 l 1408 1828 l 1515 1668 m 12182 4322 q 12169 4280 12182 4299 q 12142 4244 12157 4261 q 12116 4212 12128 4228 q 12104 4178 12104 4196 l 12042 4178 q 12054 4218 12042 4200 q 12082 4252 12067 4236 q 12110 4283 12097 4268 q 12122 4315 12122 4299 q 12112 4347 12122 4339 q 12083 4354 12101 4354 q 12042 4339 12060 4354 q 12018 4315 12024 4324 l 11982 4346 q 12019 4388 11993 4368 q 12090 4408 12046 4408 q 12156 4388 12131 4408 q 12182 4322 12182 4367 z "},"ẩ":{"ha":510,"x_min":36,"x_max":2146,"o":"m 458 4 l 376 -12 l 363 49 q 203 -12 292 -12 q 85 26 132 -12 q 36 129 38 64 q 351 310 36 306 q 238 414 338 414 q 72 379 163 414 l 63 458 q 242 486 157 486 q 439 283 439 486 l 439 126 q 458 4 439 74 m 351 150 l 351 233 q 125 138 125 229 q 207 64 125 64 q 299 86 253 64 q 351 150 351 113 m 1457 1479 l 1382 1479 l 1325 1578 l 1269 1479 l 1193 1479 l 1301 1639 l 1350 1639 l 1457 1479 m 12110 4142 q 12097 4099 12110 4118 q 12070 4064 12085 4081 q 12044 4031 12056 4047 q 12032 3997 12032 4015 l 11969 3997 q 11982 4038 11969 4019 q 12010 4072 11994 4056 q 12038 4103 12025 4088 q 12050 4135 12050 4118 q 12040 4166 12050 4158 q 12011 4174 12029 4174 q 11969 4158 11988 4174 q 11946 4135 11951 4143 l 11910 4165 q 11947 4208 11921 4188 q 12018 4228 11974 4228 q 12084 4207 12058 4228 q 12110 4142 12110 4186 z "},"Ẫ":{"ha":626,"x_min":-1,"x_max":3368,"o":"m 628 0 l 532 0 l 444 221 l 179 221 l 93 0 l -1 0 l 276 671 l 351 671 l 628 0 m 411 296 l 314 571 l 211 296 l 411 296 m 1515 1668 l 1440 1668 l 1383 1767 l 1328 1668 l 1251 1668 l 1360 1828 l 1408 1828 l 1515 1668 m 12469 5144 q 12448 5067 12468 5096 q 12388 5039 12428 5039 q 12360 5045 12376 5039 q 12327 5059 12344 5051 q 12294 5073 12310 5067 q 12269 5079 12279 5079 q 12256 5069 12258 5079 q 12253 5046 12253 5058 l 12192 5046 q 12212 5116 12192 5088 q 12269 5144 12232 5144 q 12298 5139 12282 5144 q 12329 5126 12314 5133 q 12359 5113 12344 5118 q 12383 5107 12374 5107 q 12410 5144 12410 5107 l 12469 5144 z "},"ẫ":{"ha":510,"x_min":36,"x_max":3803,"o":"m 458 4 l 376 -12 l 363 49 q 203 -12 292 -12 q 85 26 132 -12 q 36 129 38 64 q 351 310 36 306 q 238 414 338 414 q 72 379 163 414 l 63 458 q 242 486 157 486 q 439 283 439 486 l 439 126 q 458 4 439 74 m 351 150 l 351 233 q 125 138 125 229 q 207 64 125 64 q 299 86 253 64 q 351 150 351 113 m 1457 1479 l 1382 1479 l 1325 1578 l 1269 1479 l 1193 1479 l 1301 1639 l 1350 1639 l 1457 1479 m 12411 4939 q 12390 4862 12410 4890 q 12329 4833 12369 4833 q 12302 4840 12318 4833 q 12269 4853 12286 4846 q 12236 4867 12251 4861 q 12211 4874 12221 4874 q 12197 4863 12200 4874 q 12194 4840 12194 4853 l 12133 4840 q 12153 4910 12133 4882 q 12211 4939 12174 4939 q 12240 4933 12224 4939 q 12271 4920 12256 4928 q 12301 4907 12286 4913 q 12325 4901 12315 4901 q 12351 4939 12351 4901 l 12411 4939 z "},"Ậ":{"ha":626,"x_min":-1,"x_max":2571,"o":"m 628 0 l 532 0 l 444 221 l 179 221 l 93 0 l -1 0 l 276 671 l 351 671 l 628 0 m 411 296 l 314 571 l 211 296 l 411 296 m 3903 -133 q 3883 -181 3903 -161 q 3838 -200 3864 -200 q 3792 -181 3811 -200 q 3772 -133 3772 -161 q 3792 -86 3772 -106 q 3838 -67 3811 -67 q 3883 -86 3864 -67 q 3903 -133 3903 -106 m 1515 1668 l 1440 1668 l 1383 1767 l 1328 1668 l 1251 1668 l 1360 1828 l 1408 1828 l 1515 1668 z "},"ậ":{"ha":510,"x_min":36,"x_max":2674,"o":"m 458 4 l 376 -12 l 363 49 q 203 -12 292 -12 q 85 26 132 -12 q 36 129 38 64 q 351 310 36 306 q 238 414 338 414 q 72 379 163 414 l 63 458 q 242 486 157 486 q 439 283 439 486 l 439 126 q 458 4 439 74 m 351 150 l 351 233 q 125 138 125 229 q 207 64 125 64 q 299 86 253 64 q 351 150 351 113 m 3844 -133 q 3825 -181 3844 -161 q 3779 -200 3806 -200 q 3733 -181 3753 -200 q 3714 -133 3714 -161 q 3733 -86 3714 -106 q 3779 -67 3753 -67 q 3825 -86 3806 -67 q 3844 -133 3844 -106 m 1457 1479 l 1382 1479 l 1325 1578 l 1269 1479 l 1193 1479 l 1301 1639 l 1350 1639 l 1457 1479 z "},"Ắ":{"ha":626,"x_min":-1,"x_max":7253,"o":"m 628 0 l 532 0 l 444 221 l 179 221 l 93 0 l -1 0 l 276 671 l 351 671 l 628 0 m 411 296 l 314 571 l 211 296 l 411 296 m 476 871 q 421 753 463 792 q 313 715 379 715 q 204 753 246 715 q 149 871 163 792 l 224 871 q 252 809 231 836 q 313 782 274 782 q 374 809 351 782 q 403 871 396 836 l 476 871 m 14007 4604 l 14086 4579 l 13969 4444 l 13903 4444 l 14007 4604 z "},"ắ":{"ha":510,"x_min":36,"x_max":7756,"o":"m 458 4 l 376 -12 l 363 49 q 203 -12 292 -12 q 85 26 132 -12 q 36 129 38 64 q 351 310 36 306 q 238 414 338 414 q 72 379 163 414 l 63 458 q 242 486 157 486 q 439 283 439 486 l 439 126 q 458 4 439 74 m 351 150 l 351 233 q 125 138 125 229 q 207 64 125 64 q 299 86 253 64 q 351 150 351 113 m 418 682 q 363 565 404 603 q 254 526 321 526 q 146 565 188 526 q 90 682 104 603 l 165 682 q 194 620 172 647 q 254 593 215 593 q 315 620 293 593 q 344 682 338 647 l 418 682 m 13947 4415 l 14026 4390 l 13910 4256 l 13843 4256 l 13947 4415 z "},"Ằ":{"ha":626,"x_min":-1,"x_max":5764,"o":"m 628 0 l 532 0 l 444 221 l 179 221 l 93 0 l -1 0 l 276 671 l 351 671 l 628 0 m 411 296 l 314 571 l 211 296 l 411 296 m 476 871 q 421 753 463 792 q 313 715 379 715 q 204 753 246 715 q 149 871 163 792 l 224 871 q 252 809 231 836 q 313 782 274 782 q 374 809 351 782 q 403 871 396 836 l 476 871 m 11794 4219 l 11728 4219 l 11611 4354 l 11690 4379 l 11794 4219 z "},"ằ":{"ha":510,"x_min":36,"x_max":6132,"o":"m 458 4 l 376 -12 l 363 49 q 203 -12 292 -12 q 85 26 132 -12 q 36 129 38 64 q 351 310 36 306 q 238 414 338 414 q 72 379 163 414 l 63 458 q 242 486 157 486 q 439 283 439 486 l 439 126 q 458 4 439 74 m 351 150 l 351 233 q 125 138 125 229 q 207 64 125 64 q 299 86 253 64 q 351 150 351 113 m 418 682 q 363 565 404 603 q 254 526 321 526 q 146 565 188 526 q 90 682 104 603 l 165 682 q 194 620 172 647 q 254 593 215 593 q 315 620 293 593 q 344 682 338 647 l 418 682 m 11738 4033 l 11671 4033 l 11554 4168 l 11633 4193 l 11738 4033 z "},"Ẳ":{"ha":626,"x_min":-1,"x_max":2531,"o":"m 628 0 l 532 0 l 444 221 l 179 221 l 93 0 l -1 0 l 276 671 l 351 671 l 628 0 m 411 296 l 314 571 l 211 296 l 411 296 m 476 871 q 421 753 463 792 q 313 715 379 715 q 204 753 246 715 q 149 871 163 792 l 224 871 q 252 809 231 836 q 313 782 274 782 q 374 809 351 782 q 403 871 396 836 l 476 871 m 12013 4369 q 12000 4327 12013 4346 q 11973 4292 11988 4308 q 11947 4259 11958 4275 q 11935 4225 11935 4243 l 11872 4225 q 11885 4265 11872 4247 q 11913 4299 11897 4283 q 11940 4331 11928 4315 q 11953 4363 11953 4346 q 11942 4394 11953 4386 q 11914 4401 11932 4401 q 11872 4386 11890 4401 q 11849 4363 11854 4371 l 11813 4393 q 11850 4435 11824 4415 q 11921 4456 11876 4456 q 11987 4435 11961 4456 q 12013 4369 12013 4414 z "},"ẳ":{"ha":510,"x_min":36,"x_max":2953,"o":"m 458 4 l 376 -12 l 363 49 q 203 -12 292 -12 q 85 26 132 -12 q 36 129 38 64 q 351 310 36 306 q 238 414 338 414 q 72 379 163 414 l 63 458 q 242 486 157 486 q 439 283 439 486 l 439 126 q 458 4 439 74 m 351 150 l 351 233 q 125 138 125 229 q 207 64 125 64 q 299 86 253 64 q 351 150 351 113 m 418 682 q 363 565 404 603 q 254 526 321 526 q 146 565 188 526 q 90 682 104 603 l 165 682 q 194 620 172 647 q 254 593 215 593 q 315 620 293 593 q 344 682 338 647 l 418 682 m 11958 4172 q 11946 4130 11958 4149 q 11919 4094 11933 4111 q 11892 4062 11904 4078 q 11881 4028 11881 4046 l 11818 4028 q 11831 4068 11818 4050 q 11858 4102 11843 4086 q 11886 4133 11874 4118 q 11899 4165 11899 4149 q 11888 4197 11899 4189 q 11860 4204 11878 4204 q 11818 4189 11836 4204 q 11794 4165 11800 4174 l 11758 4196 q 11796 4238 11769 4218 q 11867 4258 11822 4258 q 11933 4238 11907 4258 q 11958 4172 11958 4217 z "},"Ẵ":{"ha":626,"x_min":-1,"x_max":4296,"o":"m 628 0 l 532 0 l 444 221 l 179 221 l 93 0 l -1 0 l 276 671 l 351 671 l 628 0 m 411 296 l 314 571 l 211 296 l 411 296 m 476 871 q 421 753 463 792 q 313 715 379 715 q 204 753 246 715 q 149 871 163 792 l 224 871 q 252 809 231 836 q 313 782 274 782 q 374 809 351 782 q 403 871 396 836 l 476 871 m 12469 5144 q 12448 5067 12468 5096 q 12388 5039 12428 5039 q 12360 5045 12376 5039 q 12327 5059 12344 5051 q 12294 5073 12310 5067 q 12269 5079 12279 5079 q 12256 5069 12258 5079 q 12253 5046 12253 5058 l 12192 5046 q 12212 5116 12192 5088 q 12269 5144 12232 5144 q 12298 5139 12282 5144 q 12329 5126 12314 5133 q 12359 5113 12344 5118 q 12383 5107 12374 5107 q 12410 5144 12410 5107 l 12469 5144 z "},"ẵ":{"ha":510,"x_min":36,"x_max":4731,"o":"m 458 4 l 376 -12 l 363 49 q 203 -12 292 -12 q 85 26 132 -12 q 36 129 38 64 q 351 310 36 306 q 238 414 338 414 q 72 379 163 414 l 63 458 q 242 486 157 486 q 439 283 439 486 l 439 126 q 458 4 439 74 m 351 150 l 351 233 q 125 138 125 229 q 207 64 125 64 q 299 86 253 64 q 351 150 351 113 m 418 682 q 363 565 404 603 q 254 526 321 526 q 146 565 188 526 q 90 682 104 603 l 165 682 q 194 620 172 647 q 254 593 215 593 q 315 620 293 593 q 344 682 338 647 l 418 682 m 12411 4933 q 12390 4856 12410 4885 q 12329 4828 12369 4828 q 12302 4834 12318 4828 q 12269 4848 12286 4840 q 12236 4862 12251 4856 q 12211 4868 12221 4868 q 12197 4858 12200 4868 q 12194 4835 12194 4847 l 12133 4835 q 12153 4905 12133 4876 q 12211 4933 12174 4933 q 12240 4928 12224 4933 q 12271 4915 12256 4922 q 12301 4901 12286 4907 q 12325 4896 12315 4896 q 12351 4933 12351 4896 l 12411 4933 z "},"Ặ":{"ha":626,"x_min":-1,"x_max":956,"o":"m 628 0 l 532 0 l 444 221 l 179 221 l 93 0 l -1 0 l 276 671 l 351 671 l 628 0 m 411 296 l 314 571 l 211 296 l 411 296 m 3903 -133 q 3883 -181 3903 -161 q 3838 -200 3864 -200 q 3792 -181 3811 -200 q 3772 -133 3772 -161 q 3792 -86 3772 -106 q 3838 -67 3811 -67 q 3883 -86 3864 -67 q 3903 -133 3903 -106 m 476 871 q 421 753 463 792 q 313 715 379 715 q 204 753 246 715 q 149 871 163 792 l 224 871 q 252 809 231 836 q 313 782 274 782 q 374 809 351 782 q 403 871 396 836 l 476 871 z "},"ặ":{"ha":510,"x_min":36,"x_max":1071,"o":"m 458 4 l 376 -12 l 363 49 q 203 -12 292 -12 q 85 26 132 -12 q 36 129 38 64 q 351 310 36 306 q 238 414 338 414 q 72 379 163 414 l 63 458 q 242 486 157 486 q 439 283 439 486 l 439 126 q 458 4 439 74 m 351 150 l 351 233 q 125 138 125 229 q 207 64 125 64 q 299 86 253 64 q 351 150 351 113 m 3844 -133 q 3825 -181 3844 -161 q 3779 -200 3806 -200 q 3733 -181 3753 -200 q 3714 -133 3714 -161 q 3733 -86 3714 -106 q 3779 -67 3753 -67 q 3825 -86 3806 -67 q 3844 -133 3844 -106 m 418 682 q 363 565 404 603 q 254 526 321 526 q 146 565 188 526 q 90 682 104 603 l 165 682 q 194 620 172 647 q 254 593 215 593 q 315 620 293 593 q 344 682 338 647 l 418 682 z "},"Ẹ":{"ha":497,"x_min":69,"x_max":1181,"o":"m 463 0 l 69 0 l 69 661 l 463 661 l 463 586 l 157 586 l 157 386 l 429 386 l 429 311 l 157 311 l 157 75 l 463 75 l 463 0 m 3839 -133 q 3819 -181 3839 -161 q 3774 -200 3800 -200 q 3728 -181 3747 -200 q 3708 -133 3708 -161 q 3728 -86 3708 -106 q 3774 -67 3747 -67 q 3819 -86 3800 -67 q 3839 -133 3839 -106 z "},"ẹ":{"ha":543,"x_min":36,"x_max":1313,"o":"m 488 25 q 294 -12 386 -12 q 109 55 182 -12 q 36 229 36 122 q 108 421 36 347 q 289 490 179 490 q 507 222 503 490 l 122 222 q 176 106 128 147 q 300 65 224 65 q 478 101 378 65 l 488 25 m 421 296 q 376 384 414 350 q 281 418 339 418 q 181 384 225 418 q 128 296 138 350 l 421 296 m 3861 -133 q 3842 -181 3861 -161 q 3796 -200 3822 -200 q 3750 -181 3769 -200 q 3731 -133 3731 -161 q 3750 -86 3731 -106 q 3796 -67 3769 -67 q 3842 -86 3822 -67 q 3861 -133 3861 -106 z "},"Ẻ":{"ha":497,"x_min":69,"x_max":3372,"o":"m 463 0 l 69 0 l 69 661 l 463 661 l 463 586 l 157 586 l 157 386 l 429 386 l 429 311 l 157 311 l 157 75 l 463 75 l 463 0 m 11956 4200 q 11943 4158 11956 4176 q 11916 4122 11931 4139 q 11890 4090 11901 4106 q 11878 4056 11878 4074 l 11815 4056 q 11828 4096 11815 4078 q 11856 4130 11840 4114 q 11883 4161 11871 4146 q 11896 4193 11896 4176 q 11885 4224 11896 4217 q 11857 4232 11875 4232 q 11815 4217 11833 4232 q 11792 4193 11797 4201 l 11756 4224 q 11793 4266 11767 4246 q 11864 4286 11819 4286 q 11930 4265 11904 4286 q 11956 4200 11956 4244 z "},"ẻ":{"ha":543,"x_min":36,"x_max":3815,"o":"m 488 25 q 294 -12 386 -12 q 109 55 182 -12 q 36 229 36 122 q 108 421 36 347 q 289 490 179 490 q 507 222 503 490 l 122 222 q 176 106 128 147 q 300 65 224 65 q 478 101 378 65 l 488 25 m 421 296 q 376 384 414 350 q 281 418 339 418 q 181 384 225 418 q 128 296 138 350 l 421 296 m 11979 4011 q 11967 3969 11979 3988 q 11940 3933 11954 3950 q 11913 3901 11925 3917 q 11901 3867 11901 3885 l 11839 3867 q 11851 3907 11839 3889 q 11879 3941 11864 3925 q 11907 3972 11894 3957 q 11919 4004 11919 3988 q 11909 4035 11919 4028 q 11881 4043 11899 4043 q 11839 4028 11857 4043 q 11815 4004 11821 4013 l 11779 4035 q 11817 4077 11790 4057 q 11888 4097 11843 4097 q 11953 4076 11928 4097 q 11979 4011 11979 4056 z "},"Ẽ":{"ha":497,"x_min":69,"x_max":5160,"o":"m 463 0 l 69 0 l 69 661 l 463 661 l 463 586 l 157 586 l 157 386 l 429 386 l 429 311 l 157 311 l 157 75 l 463 75 l 463 0 m 12406 4928 q 12384 4851 12404 4879 q 12324 4822 12364 4822 q 12297 4828 12313 4822 q 12263 4842 12281 4835 q 12231 4856 12246 4850 q 12206 4863 12215 4863 q 12192 4852 12194 4863 q 12189 4829 12189 4842 l 12128 4829 q 12148 4899 12128 4871 q 12206 4928 12168 4928 q 12234 4922 12218 4928 q 12265 4909 12250 4917 q 12295 4896 12281 4901 q 12319 4890 12310 4890 q 12346 4928 12346 4890 l 12406 4928 z "},"ẽ":{"ha":543,"x_min":36,"x_max":5611,"o":"m 488 25 q 294 -12 386 -12 q 109 55 182 -12 q 36 229 36 122 q 108 421 36 347 q 289 490 179 490 q 507 222 503 490 l 122 222 q 176 106 128 147 q 300 65 224 65 q 478 101 378 65 l 488 25 m 421 296 q 376 384 414 350 q 281 418 339 418 q 181 384 225 418 q 128 296 138 350 l 421 296 m 12428 4739 q 12406 4662 12426 4690 q 12346 4633 12386 4633 q 12319 4640 12335 4633 q 12285 4653 12303 4646 q 12253 4667 12268 4661 q 12228 4674 12238 4674 q 12214 4663 12217 4674 q 12211 4640 12211 4653 l 12150 4640 q 12170 4710 12150 4682 q 12228 4739 12190 4739 q 12256 4733 12240 4739 q 12288 4720 12272 4728 q 12317 4707 12303 4713 q 12342 4701 12332 4701 q 12368 4739 12368 4701 l 12428 4739 z "},"Ế":{"ha":497,"x_min":69,"x_max":8386,"o":"m 463 0 l 69 0 l 69 661 l 463 661 l 463 586 l 157 586 l 157 386 l 429 386 l 429 311 l 157 311 l 157 75 l 463 75 l 463 0 m 1451 1668 l 1376 1668 l 1319 1767 l 1264 1668 l 1188 1668 l 1296 1828 l 1344 1828 l 1451 1668 m 14075 4567 l 14154 4542 l 14038 4407 l 13971 4407 l 14075 4567 z "},"ế":{"ha":543,"x_min":36,"x_max":9039,"o":"m 488 25 q 294 -12 386 -12 q 109 55 182 -12 q 36 229 36 122 q 108 421 36 347 q 289 490 179 490 q 507 222 503 490 l 122 222 q 176 106 128 147 q 300 65 224 65 q 478 101 378 65 l 488 25 m 421 296 q 376 384 414 350 q 281 418 339 418 q 181 384 225 418 q 128 296 138 350 l 421 296 m 1474 1479 l 1399 1479 l 1342 1578 l 1286 1479 l 1210 1479 l 1318 1639 l 1367 1639 l 1474 1479 m 14097 4382 l 14176 4357 l 14060 4222 l 13993 4222 l 14097 4382 z "},"Ề":{"ha":497,"x_min":69,"x_max":6668,"o":"m 463 0 l 69 0 l 69 661 l 463 661 l 463 586 l 157 586 l 157 386 l 429 386 l 429 311 l 157 311 l 157 75 l 463 75 l 463 0 m 1451 1668 l 1376 1668 l 1319 1767 l 1264 1668 l 1188 1668 l 1296 1828 l 1344 1828 l 1451 1668 m 11906 4219 l 11839 4219 l 11722 4354 l 11801 4379 l 11906 4219 z "},"ề":{"ha":543,"x_min":36,"x_max":7249,"o":"m 488 25 q 294 -12 386 -12 q 109 55 182 -12 q 36 229 36 122 q 108 421 36 347 q 289 490 179 490 q 507 222 503 490 l 122 222 q 176 106 128 147 q 300 65 224 65 q 478 101 378 65 l 488 25 m 421 296 q 376 384 414 350 q 281 418 339 418 q 181 384 225 418 q 128 296 138 350 l 421 296 m 1474 1479 l 1399 1479 l 1342 1578 l 1286 1479 l 1210 1479 l 1318 1639 l 1367 1639 l 1474 1479 m 11950 3997 l 11883 3997 l 11767 4132 l 11846 4157 l 11950 3997 z "},"Ể":{"ha":497,"x_min":69,"x_max":4382,"o":"m 463 0 l 69 0 l 69 661 l 463 661 l 463 586 l 157 586 l 157 386 l 429 386 l 429 311 l 157 311 l 157 75 l 463 75 l 463 0 m 1451 1668 l 1376 1668 l 1319 1767 l 1264 1668 l 1188 1668 l 1296 1828 l 1344 1828 l 1451 1668 m 12103 4321 q 12090 4278 12103 4297 q 12063 4243 12078 4260 q 12037 4210 12049 4226 q 12025 4176 12025 4194 l 11963 4176 q 11975 4217 11963 4199 q 12003 4251 11988 4235 q 12031 4282 12018 4267 q 12043 4314 12043 4297 q 12033 4345 12043 4338 q 12004 4353 12022 4353 q 11963 4338 11981 4353 q 11939 4314 11944 4322 l 11903 4344 q 11940 4387 11914 4367 q 12011 4407 11967 4407 q 12077 4386 12051 4407 q 12103 4321 12103 4365 z "},"ể":{"ha":543,"x_min":36,"x_max":4993,"o":"m 488 25 q 294 -12 386 -12 q 109 55 182 -12 q 36 229 36 122 q 108 421 36 347 q 289 490 179 490 q 507 222 503 490 l 122 222 q 176 106 128 147 q 300 65 224 65 q 478 101 378 65 l 488 25 m 421 296 q 376 384 414 350 q 281 418 339 418 q 181 384 225 418 q 128 296 138 350 l 421 296 m 1474 1479 l 1399 1479 l 1342 1578 l 1286 1479 l 1210 1479 l 1318 1639 l 1367 1639 l 1474 1479 m 12147 4125 q 12135 4083 12147 4101 q 12108 4047 12122 4064 q 12081 4015 12093 4031 q 12069 3981 12069 3999 l 12007 3981 q 12019 4021 12007 4003 q 12047 4055 12032 4039 q 12075 4086 12063 4071 q 12088 4118 12088 4101 q 12077 4149 12088 4142 q 12049 4157 12067 4157 q 12007 4142 12025 4157 q 11983 4118 11989 4126 l 11947 4149 q 11985 4191 11958 4171 q 12056 4211 12011 4211 q 12122 4190 12096 4211 q 12147 4125 12147 4169 z "},"Ễ":{"ha":497,"x_min":69,"x_max":6040,"o":"m 463 0 l 69 0 l 69 661 l 463 661 l 463 586 l 157 586 l 157 386 l 429 386 l 429 311 l 157 311 l 157 75 l 463 75 l 463 0 m 1451 1668 l 1376 1668 l 1319 1767 l 1264 1668 l 1188 1668 l 1296 1828 l 1344 1828 l 1451 1668 m 12406 5143 q 12384 5066 12404 5094 q 12324 5038 12364 5038 q 12297 5044 12313 5038 q 12263 5058 12281 5050 q 12231 5072 12246 5065 q 12206 5078 12215 5078 q 12192 5067 12194 5078 q 12189 5044 12189 5057 l 12128 5044 q 12148 5115 12128 5086 q 12206 5143 12168 5143 q 12234 5138 12218 5143 q 12265 5124 12250 5132 q 12295 5111 12281 5117 q 12319 5106 12310 5106 q 12346 5143 12346 5106 l 12406 5143 z "},"ễ":{"ha":543,"x_min":36,"x_max":6492,"o":"m 488 25 q 294 -12 386 -12 q 109 55 182 -12 q 36 229 36 122 q 108 421 36 347 q 289 490 179 490 q 507 222 503 490 l 122 222 q 176 106 128 147 q 300 65 224 65 q 478 101 378 65 l 488 25 m 421 296 q 376 384 414 350 q 281 418 339 418 q 181 384 225 418 q 128 296 138 350 l 421 296 m 1474 1479 l 1399 1479 l 1342 1578 l 1286 1479 l 1210 1479 l 1318 1639 l 1367 1639 l 1474 1479 m 12428 4929 q 12406 4852 12426 4881 q 12346 4824 12386 4824 q 12319 4830 12335 4824 q 12285 4844 12303 4836 q 12253 4858 12268 4851 q 12228 4864 12238 4864 q 12214 4853 12217 4864 q 12211 4831 12211 4843 l 12150 4831 q 12170 4901 12150 4872 q 12228 4929 12190 4929 q 12256 4924 12240 4929 q 12288 4910 12272 4918 q 12317 4897 12303 4903 q 12342 4892 12332 4892 q 12368 4929 12368 4892 l 12428 4929 z "},"Ệ":{"ha":497,"x_min":69,"x_max":3638,"o":"m 463 0 l 69 0 l 69 661 l 463 661 l 463 586 l 157 586 l 157 386 l 429 386 l 429 311 l 157 311 l 157 75 l 463 75 l 463 0 m 3839 -133 q 3819 -181 3839 -161 q 3774 -200 3800 -200 q 3728 -181 3747 -200 q 3708 -133 3708 -161 q 3728 -86 3708 -106 q 3774 -67 3747 -67 q 3819 -86 3800 -67 q 3839 -133 3839 -106 m 1451 1668 l 1376 1668 l 1319 1767 l 1264 1668 l 1188 1668 l 1296 1828 l 1344 1828 l 1451 1668 z "},"ệ":{"ha":543,"x_min":36,"x_max":3757,"o":"m 488 25 q 294 -12 386 -12 q 109 55 182 -12 q 36 229 36 122 q 108 421 36 347 q 289 490 179 490 q 507 222 503 490 l 122 222 q 176 106 128 147 q 300 65 224 65 q 478 101 378 65 l 488 25 m 421 296 q 376 384 414 350 q 281 418 339 418 q 181 384 225 418 q 128 296 138 350 l 421 296 m 3861 -133 q 3842 -181 3861 -161 q 3796 -200 3822 -200 q 3750 -181 3769 -200 q 3731 -133 3731 -161 q 3750 -86 3731 -106 q 3796 -67 3769 -67 q 3842 -86 3822 -67 q 3861 -133 3861 -106 m 1474 1479 l 1399 1479 l 1342 1578 l 1286 1479 l 1210 1479 l 1318 1639 l 1367 1639 l 1474 1479 z "},"Ỉ":{"ha":226,"x_min":69,"x_max":5271,"o":"m 157 0 l 69 0 l 69 661 l 157 661 l 157 0 m 11814 4200 q 11801 4158 11814 4176 q 11774 4122 11789 4139 q 11748 4090 11760 4106 q 11736 4056 11736 4074 l 11674 4056 q 11686 4096 11674 4078 q 11714 4130 11699 4114 q 11742 4161 11729 4146 q 11754 4193 11754 4176 q 11744 4224 11754 4217 q 11715 4232 11733 4232 q 11674 4217 11692 4232 q 11650 4193 11656 4201 l 11614 4224 q 11651 4266 11625 4246 q 11722 4286 11678 4286 q 11788 4265 11763 4286 q 11814 4200 11814 4244 z "},"ỉ":{"ha":226,"x_min":69,"x_max":5550,"o":"m 11815 4011 q 11803 3969 11815 3988 q 11776 3933 11790 3950 q 11749 3901 11761 3917 q 11738 3867 11738 3885 l 11675 3867 q 11688 3907 11675 3889 q 11715 3941 11700 3925 q 11743 3972 11731 3957 q 11756 4004 11756 3988 q 11745 4035 11756 4028 q 11717 4043 11735 4043 q 11675 4028 11693 4043 q 11651 4004 11657 4013 l 11615 4035 q 11653 4077 11626 4057 q 11724 4097 11679 4097 q 11790 4076 11764 4097 q 11815 4011 11815 4056 m 157 0 l 69 0 l 69 472 l 157 472 l 157 0 z "},"Ị":{"ha":226,"x_min":69,"x_max":1538,"o":"m 157 0 l 69 0 l 69 661 l 157 661 l 157 0 m 3713 -133 q 3693 -181 3713 -161 q 3647 -200 3674 -200 q 3601 -181 3621 -200 q 3582 -133 3582 -161 q 3601 -86 3582 -106 q 3647 -67 3621 -67 q 3693 -86 3674 -67 q 3713 -133 3713 -106 z "},"ị":{"ha":226,"x_min":44,"x_max":1521,"o":"m 157 0 l 69 0 l 69 472 l 157 472 l 157 0 m 178 611 q 158 564 178 583 q 111 544 139 544 q 64 564 83 544 q 44 611 44 583 q 64 658 44 639 q 111 678 83 678 q 158 658 139 678 q 178 611 178 639 m 3713 -133 q 3693 -181 3713 -161 q 3647 -200 3674 -200 q 3601 -181 3621 -200 q 3582 -133 3582 -161 q 3601 -86 3582 -106 q 3647 -67 3621 -67 q 3693 -86 3674 -67 q 3713 -133 3713 -106 z "},"Ọ":{"ha":719,"x_min":36,"x_max":1742,"o":"m 597 331 q 532 522 597 444 q 360 599 467 599 q 188 522 253 599 q 122 331 122 444 q 188 140 122 217 q 360 63 253 63 q 532 140 467 63 q 597 331 597 217 m 683 329 q 593 85 683 183 q 360 -14 503 -14 q 126 85 217 -14 q 36 329 36 183 q 126 574 36 475 q 360 674 217 674 q 593 574 503 674 q 683 329 683 475 m 3950 -133 q 3931 -181 3950 -161 q 3885 -200 3911 -200 q 3839 -181 3858 -200 q 3819 -133 3819 -161 q 3839 -86 3819 -106 q 3885 -67 3858 -67 q 3931 -86 3911 -67 q 3950 -133 3950 -106 z "},"ọ":{"ha":572,"x_min":36,"x_max":1889,"o":"m 536 239 q 465 61 536 133 q 286 -11 394 -11 q 107 61 178 -11 q 36 239 36 133 q 107 417 36 344 q 286 490 178 490 q 465 417 394 490 q 536 239 536 344 m 450 239 q 404 365 450 314 q 286 415 358 415 q 168 365 214 415 q 122 239 122 314 q 168 113 122 164 q 286 63 214 63 q 404 113 358 63 q 450 239 450 164 m 3876 -133 q 3857 -181 3876 -161 q 3811 -200 3838 -200 q 3765 -181 3785 -200 q 3746 -133 3746 -161 q 3765 -86 3746 -106 q 3811 -67 3785 -67 q 3857 -86 3838 -67 q 3876 -133 3876 -106 z "},"Ỏ":{"ha":719,"x_min":36,"x_max":6068,"o":"m 597 331 q 532 522 597 444 q 360 599 467 599 q 188 522 253 599 q 122 331 122 444 q 188 140 122 217 q 360 63 253 63 q 532 140 467 63 q 597 331 597 217 m 683 329 q 593 85 683 183 q 360 -14 503 -14 q 126 85 217 -14 q 36 329 36 183 q 126 574 36 475 q 360 674 217 674 q 593 574 503 674 q 683 329 683 475 m 12054 4200 q 12042 4158 12054 4176 q 12015 4122 12029 4139 q 11988 4090 12000 4106 q 11976 4056 11976 4074 l 11914 4056 q 11926 4096 11914 4078 q 11954 4130 11939 4114 q 11982 4161 11969 4146 q 11994 4193 11994 4176 q 11984 4224 11994 4217 q 11956 4232 11974 4232 q 11914 4217 11932 4232 q 11890 4193 11896 4201 l 11854 4224 q 11892 4266 11865 4246 q 11963 4286 11918 4286 q 12028 4265 12003 4286 q 12054 4200 12054 4244 z "},"ỏ":{"ha":572,"x_min":36,"x_max":6513,"o":"m 536 239 q 465 61 536 133 q 286 -11 394 -11 q 107 61 178 -11 q 36 239 36 133 q 107 417 36 344 q 286 490 178 490 q 465 417 394 490 q 536 239 536 344 m 450 239 q 404 365 450 314 q 286 415 358 415 q 168 365 214 415 q 122 239 122 314 q 168 113 122 164 q 286 63 214 63 q 404 113 358 63 q 450 239 450 164 m 11981 4011 q 11968 3969 11981 3988 q 11941 3933 11956 3950 q 11915 3901 11926 3917 q 11903 3867 11903 3885 l 11840 3867 q 11853 3907 11840 3889 q 11881 3941 11865 3925 q 11908 3972 11896 3957 q 11921 4004 11921 3988 q 11910 4035 11921 4028 q 11882 4043 11900 4043 q 11840 4028 11858 4043 q 11817 4004 11822 4013 l 11781 4035 q 11818 4077 11792 4057 q 11889 4097 11844 4097 q 11955 4076 11929 4097 q 11981 4011 11981 4056 z "},"Ố":{"ha":719,"x_min":36,"x_max":9826,"o":"m 597 331 q 532 522 597 444 q 360 599 467 599 q 188 522 253 599 q 122 331 122 444 q 188 140 122 217 q 360 63 253 63 q 532 140 467 63 q 597 331 597 217 m 683 329 q 593 85 683 183 q 360 -14 503 -14 q 126 85 217 -14 q 36 329 36 183 q 126 574 36 475 q 360 674 217 674 q 593 574 503 674 q 683 329 683 475 m 1563 1668 l 1488 1668 l 1431 1767 l 1375 1668 l 1299 1668 l 1407 1828 l 1456 1828 l 1563 1668 m 14232 4526 l 14311 4501 l 14194 4367 l 14128 4367 l 14232 4526 z "},"ố":{"ha":600,"x_min":50,"x_max":10526,"o":"m 550 239 q 479 61 550 133 q 300 -11 408 -11 q 121 61 192 -11 q 50 239 50 133 q 121 417 50 344 q 300 490 192 490 q 479 417 408 490 q 550 239 550 344 m 464 239 q 418 365 464 314 q 300 415 372 415 q 182 365 228 415 q 136 239 136 314 q 182 113 136 164 q 300 63 228 63 q 418 113 372 63 q 464 239 464 164 m 1503 1479 l 1428 1479 l 1371 1578 l 1315 1479 l 1239 1479 l 1347 1639 l 1396 1639 l 1503 1479 m 14144 4360 l 14224 4335 l 14107 4200 l 14040 4200 l 14144 4360 z "},"Ồ":{"ha":719,"x_min":36,"x_max":7947,"o":"m 597 331 q 532 522 597 444 q 360 599 467 599 q 188 522 253 599 q 122 331 122 444 q 188 140 122 217 q 360 63 253 63 q 532 140 467 63 q 597 331 597 217 m 683 329 q 593 85 683 183 q 360 -14 503 -14 q 126 85 217 -14 q 36 329 36 183 q 126 574 36 475 q 360 674 217 674 q 593 574 503 674 q 683 329 683 475 m 1563 1668 l 1488 1668 l 1431 1767 l 1375 1668 l 1299 1668 l 1407 1828 l 1456 1828 l 1563 1668 m 12068 4157 l 12001 4157 l 11885 4292 l 11964 4317 l 12068 4157 z "},"ồ":{"ha":600,"x_min":64,"x_max":8571,"o":"m 550 239 q 479 61 550 133 q 300 -11 408 -11 q 121 61 192 -11 q 50 239 50 133 q 121 417 50 344 q 300 490 192 490 q 479 417 408 490 q 550 239 550 344 m 464 239 q 418 365 464 314 q 300 415 372 415 q 182 365 228 415 q 136 239 136 314 q 182 113 136 164 q 300 63 228 63 q 418 113 372 63 q 464 239 464 164 m 1503 1479 l 1428 1479 l 1371 1578 l 1315 1479 l 1239 1479 l 1347 1639 l 1396 1639 l 1503 1479 m 11993 3990 l 11926 3990 l 11810 4125 l 11889 4150 l 11993 3990 z "},"Ổ":{"ha":719,"x_min":36,"x_max":7207,"o":"m 597 331 q 532 522 597 444 q 360 599 467 599 q 188 522 253 599 q 122 331 122 444 q 188 140 122 217 q 360 63 253 63 q 532 140 467 63 q 597 331 597 217 m 683 329 q 593 85 683 183 q 360 -14 503 -14 q 126 85 217 -14 q 36 329 36 183 q 126 574 36 475 q 360 674 217 674 q 593 574 503 674 q 683 329 683 475 m 1563 1668 l 1488 1668 l 1431 1767 l 1375 1668 l 1299 1668 l 1407 1828 l 1456 1828 l 1563 1668 m 12231 4322 q 12218 4280 12231 4299 q 12191 4244 12206 4261 q 12165 4212 12176 4228 q 12153 4178 12153 4196 l 12090 4178 q 12103 4218 12090 4200 q 12131 4252 12115 4236 q 12158 4283 12146 4268 q 12171 4315 12171 4299 q 12160 4347 12171 4339 q 12132 4354 12150 4354 q 12090 4339 12108 4354 q 12067 4315 12072 4324 l 12031 4346 q 12068 4388 12042 4368 q 12139 4408 12094 4408 q 12205 4388 12179 4408 q 12231 4322 12231 4367 z "},"ổ":{"ha":600,"x_min":78,"x_max":7838,"o":"m 550 239 q 479 61 550 133 q 300 -11 408 -11 q 121 61 192 -11 q 50 239 50 133 q 121 417 50 344 q 300 490 192 490 q 479 417 408 490 q 550 239 550 344 m 464 239 q 418 365 464 314 q 300 415 372 415 q 182 365 228 415 q 136 239 136 314 q 182 113 136 164 q 300 63 228 63 q 418 113 372 63 q 464 239 464 164 m 1503 1479 l 1428 1479 l 1371 1578 l 1315 1479 l 1239 1479 l 1347 1639 l 1396 1639 l 1503 1479 m 12167 4142 q 12154 4099 12167 4118 q 12127 4064 12142 4081 q 12101 4031 12113 4047 q 12089 3997 12089 4015 l 12026 3997 q 12039 4038 12026 4019 q 12067 4072 12051 4056 q 12094 4103 12082 4088 q 12107 4135 12107 4118 q 12097 4166 12107 4158 q 12068 4174 12086 4174 q 12026 4158 12044 4174 q 12003 4135 12008 4143 l 11967 4165 q 12004 4208 11978 4188 q 12075 4228 12031 4228 q 12141 4207 12115 4228 q 12167 4142 12167 4186 z "},"Ỗ":{"ha":719,"x_min":36,"x_max":7032,"o":"m 597 331 q 532 522 597 444 q 360 599 467 599 q 188 522 253 599 q 122 331 122 444 q 188 140 122 217 q 360 63 253 63 q 532 140 467 63 q 597 331 597 217 m 683 329 q 593 85 683 183 q 360 -14 503 -14 q 126 85 217 -14 q 36 329 36 183 q 126 574 36 475 q 360 674 217 674 q 593 574 503 674 q 683 329 683 475 m 1563 1668 l 1488 1668 l 1431 1767 l 1375 1668 l 1299 1668 l 1407 1828 l 1456 1828 l 1563 1668 m 12517 5144 q 12495 5067 12515 5096 q 12435 5039 12475 5039 q 12408 5045 12424 5039 q 12374 5059 12392 5051 q 12342 5073 12357 5067 q 12317 5079 12326 5079 q 12303 5069 12306 5079 q 12300 5046 12300 5058 l 12239 5046 q 12259 5116 12239 5088 q 12317 5144 12279 5144 q 12345 5139 12329 5144 q 12376 5126 12361 5133 q 12406 5113 12392 5118 q 12431 5107 12421 5107 q 12457 5144 12457 5107 l 12517 5144 z "},"ỗ":{"ha":600,"x_min":92,"x_max":7513,"o":"m 550 239 q 479 61 550 133 q 300 -11 408 -11 q 121 61 192 -11 q 50 239 50 133 q 121 417 50 344 q 300 490 192 490 q 479 417 408 490 q 550 239 550 344 m 464 239 q 418 365 464 314 q 300 415 372 415 q 182 365 228 415 q 136 239 136 314 q 182 113 136 164 q 300 63 228 63 q 418 113 372 63 q 464 239 464 164 m 1503 1479 l 1428 1479 l 1371 1578 l 1315 1479 l 1239 1479 l 1347 1639 l 1396 1639 l 1503 1479 m 12457 4939 q 12435 4862 12456 4890 q 12375 4833 12415 4833 q 12348 4840 12364 4833 q 12315 4853 12332 4846 q 12282 4867 12297 4861 q 12257 4874 12267 4874 q 12243 4863 12246 4874 q 12240 4840 12240 4853 l 12179 4840 q 12199 4910 12179 4882 q 12257 4939 12219 4939 q 12285 4933 12269 4939 q 12317 4920 12301 4928 q 12347 4907 12332 4913 q 12371 4901 12361 4901 q 12397 4939 12397 4901 l 12457 4939 z "},"Ộ":{"ha":719,"x_min":36,"x_max":5393,"o":"m 597 331 q 532 522 597 444 q 360 599 467 599 q 188 522 253 599 q 122 331 122 444 q 188 140 122 217 q 360 63 253 63 q 532 140 467 63 q 597 331 597 217 m 683 329 q 593 85 683 183 q 360 -14 503 -14 q 126 85 217 -14 q 36 329 36 183 q 126 574 36 475 q 360 674 217 674 q 593 574 503 674 q 683 329 683 475 m 3950 -133 q 3931 -181 3950 -161 q 3885 -200 3911 -200 q 3839 -181 3858 -200 q 3819 -133 3819 -161 q 3839 -86 3819 -106 q 3885 -67 3858 -67 q 3931 -86 3911 -67 q 3950 -133 3950 -106 m 1563 1668 l 1488 1668 l 1431 1767 l 1375 1668 l 1299 1668 l 1407 1828 l 1456 1828 l 1563 1668 z "},"ộ":{"ha":572,"x_min":92,"x_max":5528,"o":"m 536 239 q 465 61 536 133 q 286 -11 394 -11 q 107 61 178 -11 q 36 239 36 133 q 107 417 36 344 q 286 490 178 490 q 465 417 394 490 q 536 239 536 344 m 450 239 q 404 365 450 314 q 286 415 358 415 q 168 365 214 415 q 122 239 122 314 q 168 113 122 164 q 286 63 214 63 q 404 113 358 63 q 450 239 450 164 m 3876 -133 q 3857 -181 3876 -161 q 3811 -200 3838 -200 q 3765 -181 3785 -200 q 3746 -133 3746 -161 q 3765 -86 3746 -106 q 3811 -67 3785 -67 q 3857 -86 3838 -67 q 3876 -133 3876 -106 m 1489 1479 l 1414 1479 l 1357 1578 l 1301 1479 l 1225 1479 l 1333 1639 l 1382 1639 l 1489 1479 z "},"Ớ":{"ha":719,"x_min":36,"x_max":11082,"o":"m 683 329 q 593 85 683 183 q 360 -14 503 -14 q 126 85 217 -14 q 36 329 36 183 q 126 574 36 475 q 360 674 217 674 q 538 622 460 674 q 574 732 574 668 l 649 732 q 589 578 649 651 q 683 329 683 479 m 597 331 q 532 522 597 444 q 360 599 467 599 q 188 522 253 599 q 122 331 122 444 q 188 140 122 217 q 360 63 253 63 q 532 140 467 63 q 597 331 597 217 m 14000 4429 l 14079 4404 l 13963 4269 l 13896 4269 l 14000 4429 z "},"ớ":{"ha":600,"x_min":36,"x_max":11578,"o":"m 536 239 q 465 61 536 133 q 286 -11 394 -11 q 107 61 178 -11 q 36 239 36 133 q 107 417 36 344 q 286 490 178 490 q 453 428 383 490 q 481 526 481 474 l 556 526 q 497 375 556 450 q 536 239 536 314 m 450 239 q 404 365 450 314 q 286 415 358 415 q 168 365 214 415 q 122 239 122 314 q 168 113 122 164 q 286 63 214 63 q 404 113 358 63 q 450 239 450 164 m 13940 4240 l 14019 4215 l 13903 4081 l 13836 4081 l 13940 4240 z "},"Ờ":{"ha":719,"x_min":36,"x_max":9096,"o":"m 683 329 q 593 85 683 183 q 360 -14 503 -14 q 126 85 217 -14 q 36 329 36 183 q 126 574 36 475 q 360 674 217 674 q 538 622 460 674 q 574 732 574 668 l 649 732 q 589 578 649 651 q 683 329 683 479 m 597 331 q 532 522 597 444 q 360 599 467 599 q 188 522 253 599 q 122 331 122 444 q 188 140 122 217 q 360 63 253 63 q 532 140 467 63 q 597 331 597 217 m 11894 4060 l 11828 4060 l 11711 4194 l 11790 4219 l 11894 4060 z "},"ờ":{"ha":600,"x_min":36,"x_max":9561,"o":"m 536 239 q 465 61 536 133 q 286 -11 394 -11 q 107 61 178 -11 q 36 239 36 133 q 107 417 36 344 q 286 490 178 490 q 453 428 383 490 q 481 526 481 474 l 556 526 q 497 375 556 450 q 536 239 536 314 m 450 239 q 404 365 450 314 q 286 415 358 415 q 168 365 214 415 q 122 239 122 314 q 168 113 122 164 q 286 63 214 63 q 404 113 358 63 q 450 239 450 164 m 11835 3871 l 11768 3871 l 11651 4006 l 11731 4031 l 11835 3871 z "},"Ở":{"ha":719,"x_min":36,"x_max":8356,"o":"m 683 329 q 593 85 683 183 q 360 -14 503 -14 q 126 85 217 -14 q 36 329 36 183 q 126 574 36 475 q 360 674 217 674 q 538 622 460 674 q 574 732 574 668 l 649 732 q 589 578 649 651 q 683 329 683 479 m 597 331 q 532 522 597 444 q 360 599 467 599 q 188 522 253 599 q 122 331 122 444 q 188 140 122 217 q 360 63 253 63 q 532 140 467 63 q 597 331 597 217 m 12054 4206 q 12042 4163 12054 4182 q 12015 4128 12029 4144 q 11988 4095 12000 4111 q 11976 4061 11976 4079 l 11914 4061 q 11926 4101 11914 4083 q 11954 4135 11939 4119 q 11982 4167 11969 4151 q 11994 4199 11994 4182 q 11984 4230 11994 4222 q 11956 4238 11974 4238 q 11914 4222 11932 4238 q 11890 4199 11896 4207 l 11854 4229 q 11892 4272 11865 4251 q 11963 4292 11918 4292 q 12028 4271 12003 4292 q 12054 4206 12054 4250 z "},"ở":{"ha":600,"x_min":36,"x_max":8814,"o":"m 536 239 q 465 61 536 133 q 286 -11 394 -11 q 107 61 178 -11 q 36 239 36 133 q 107 417 36 344 q 286 490 178 490 q 453 428 383 490 q 481 526 481 474 l 556 526 q 497 375 556 450 q 536 239 536 314 m 450 239 q 404 365 450 314 q 286 415 358 415 q 168 365 214 415 q 122 239 122 314 q 168 113 122 164 q 286 63 214 63 q 404 113 358 63 q 450 239 450 164 m 11994 4017 q 11982 3974 11994 3993 q 11955 3939 11969 3956 q 11928 3906 11940 3922 q 11917 3872 11917 3890 l 11854 3872 q 11867 3913 11854 3894 q 11894 3947 11879 3931 q 11922 3978 11910 3963 q 11935 4010 11935 3993 q 11924 4041 11935 4033 q 11896 4049 11914 4049 q 11854 4033 11872 4049 q 11831 4010 11836 4018 l 11794 4040 q 11832 4083 11806 4063 q 11903 4103 11858 4103 q 11969 4082 11943 4103 q 11994 4017 11994 4061 z "},"Ỡ":{"ha":719,"x_min":36,"x_max":8053,"o":"m 683 329 q 593 85 683 183 q 360 -14 503 -14 q 126 85 217 -14 q 36 329 36 183 q 126 574 36 475 q 360 674 217 674 q 538 622 460 674 q 574 732 574 668 l 649 732 q 589 578 649 651 q 683 329 683 479 m 597 331 q 532 522 597 444 q 360 599 467 599 q 188 522 253 599 q 122 331 122 444 q 188 140 122 217 q 360 63 253 63 q 532 140 467 63 q 597 331 597 217 m 12517 4928 q 12495 4851 12515 4879 q 12435 4822 12475 4822 q 12408 4828 12424 4822 q 12374 4842 12392 4835 q 12342 4856 12357 4850 q 12317 4863 12326 4863 q 12303 4852 12306 4863 q 12300 4829 12300 4842 l 12239 4829 q 12259 4899 12239 4871 q 12317 4928 12279 4928 q 12345 4922 12329 4928 q 12376 4909 12361 4917 q 12406 4896 12392 4901 q 12431 4890 12421 4890 q 12457 4928 12457 4890 l 12517 4928 z "},"ỡ":{"ha":600,"x_min":36,"x_max":8533,"o":"m 536 239 q 465 61 536 133 q 286 -11 394 -11 q 107 61 178 -11 q 36 239 36 133 q 107 417 36 344 q 286 490 178 490 q 453 428 383 490 q 481 526 481 474 l 556 526 q 497 375 556 450 q 536 239 536 314 m 450 239 q 404 365 450 314 q 286 415 358 415 q 168 365 214 415 q 122 239 122 314 q 168 113 122 164 q 286 63 214 63 q 404 113 358 63 q 450 239 450 164 m 12457 4739 q 12435 4662 12456 4690 q 12375 4633 12415 4633 q 12348 4640 12364 4633 q 12315 4653 12332 4646 q 12282 4667 12297 4661 q 12257 4674 12267 4674 q 12243 4663 12246 4674 q 12240 4640 12240 4653 l 12179 4640 q 12199 4710 12179 4682 q 12257 4739 12219 4739 q 12285 4733 12269 4739 q 12317 4720 12301 4728 q 12347 4707 12332 4713 q 12371 4701 12361 4701 q 12397 4739 12397 4701 l 12457 4739 z "},"Ợ":{"ha":719,"x_min":36,"x_max":2478,"o":"m 683 329 q 593 85 683 183 q 360 -14 503 -14 q 126 85 217 -14 q 36 329 36 183 q 126 574 36 475 q 360 674 217 674 q 538 622 460 674 q 574 732 574 668 l 649 732 q 589 578 649 651 q 683 329 683 479 m 597 331 q 532 522 597 444 q 360 599 467 599 q 188 522 253 599 q 122 331 122 444 q 188 140 122 217 q 360 63 253 63 q 532 140 467 63 q 597 331 597 217 m 3950 -133 q 3931 -181 3950 -161 q 3885 -200 3911 -200 q 3839 -181 3858 -200 q 3819 -133 3819 -161 q 3839 -86 3819 -106 q 3885 -67 3858 -67 q 3931 -86 3911 -67 q 3950 -133 3950 -106 z "},"ợ":{"ha":600,"x_min":36,"x_max":2639,"o":"m 536 239 q 465 61 536 133 q 286 -11 394 -11 q 107 61 178 -11 q 36 239 36 133 q 107 417 36 344 q 286 490 178 490 q 453 428 383 490 q 481 526 481 474 l 556 526 q 497 375 556 450 q 536 239 536 314 m 450 239 q 404 365 450 314 q 286 415 358 415 q 168 365 214 415 q 122 239 122 314 q 168 113 122 164 q 286 63 214 63 q 404 113 358 63 q 450 239 450 164 m 3890 -133 q 3871 -181 3890 -161 q 3825 -200 3851 -200 q 3779 -181 3799 -200 q 3760 -133 3760 -161 q 3779 -86 3760 -106 q 3825 -67 3799 -67 q 3871 -86 3851 -67 q 3890 -133 3890 -106 z "},"Ụ":{"ha":669,"x_min":69,"x_max":2835,"o":"m 600 282 q 335 -12 600 -12 q 69 282 69 -12 l 69 661 l 158 661 l 158 282 q 335 63 158 63 q 511 282 511 63 l 511 661 l 600 661 l 600 282 m 3925 -133 q 3906 -181 3925 -161 q 3860 -200 3886 -200 q 3814 -181 3833 -200 q 3794 -133 3794 -161 q 3814 -86 3794 -106 q 3860 -67 3833 -67 q 3906 -86 3886 -67 q 3925 -133 3925 -106 z "},"ụ":{"ha":581,"x_min":69,"x_max":2986,"o":"m 540 6 l 456 -11 q 431 69 442 22 q 265 -12 347 -12 q 69 214 69 -12 l 69 472 l 157 472 l 157 222 q 276 65 157 65 q 375 103 326 65 q 424 193 424 142 l 424 472 l 511 472 l 511 126 q 540 6 511 79 m 3881 -133 q 3861 -181 3881 -161 q 3815 -200 3842 -200 q 3769 -181 3789 -200 q 3750 -133 3750 -161 q 3769 -86 3750 -106 q 3815 -67 3789 -67 q 3861 -86 3842 -67 q 3881 -133 3881 -106 z "},"Ủ":{"ha":669,"x_min":69,"x_max":9307,"o":"m 600 282 q 335 -12 600 -12 q 69 282 69 -12 l 69 661 l 158 661 l 158 282 q 335 63 158 63 q 511 282 511 63 l 511 661 l 600 661 l 600 282 m 12029 4200 q 12017 4158 12029 4176 q 11990 4122 12004 4139 q 11963 4090 11975 4106 q 11951 4056 11951 4074 l 11889 4056 q 11901 4096 11889 4078 q 11929 4130 11914 4114 q 11957 4161 11944 4146 q 11969 4193 11969 4176 q 11959 4224 11969 4217 q 11931 4232 11949 4232 q 11889 4217 11907 4232 q 11865 4193 11871 4201 l 11829 4224 q 11867 4266 11840 4246 q 11938 4286 11893 4286 q 12003 4265 11978 4286 q 12029 4200 12029 4244 z "},"ủ":{"ha":581,"x_min":69,"x_max":9756,"o":"m 540 6 l 456 -11 q 431 69 442 22 q 265 -12 347 -12 q 69 214 69 -12 l 69 472 l 157 472 l 157 222 q 276 65 157 65 q 375 103 326 65 q 424 193 424 142 l 424 472 l 511 472 l 511 126 q 540 6 511 79 m 11985 4011 q 11972 3969 11985 3988 q 11945 3933 11960 3950 q 11919 3901 11931 3917 q 11907 3867 11907 3885 l 11844 3867 q 11857 3907 11844 3889 q 11885 3941 11869 3925 q 11913 3972 11900 3957 q 11925 4004 11925 3988 q 11915 4035 11925 4028 q 11886 4043 11904 4043 q 11844 4028 11863 4043 q 11821 4004 11826 4013 l 11785 4035 q 11822 4077 11796 4057 q 11893 4097 11849 4097 q 11959 4076 11933 4097 q 11985 4011 11985 4056 z "},"Ứ":{"ha":669,"x_min":69,"x_max":12108,"o":"m 600 282 q 335 -12 600 -12 q 69 282 69 -12 l 69 661 l 158 661 l 158 282 q 335 63 158 63 q 511 282 511 63 l 511 661 l 600 661 l 600 606 q 649 659 631 622 q 668 732 668 696 l 743 732 q 698 606 739 667 q 600 525 657 546 l 600 282 m 13975 4429 l 14054 4404 l 13938 4269 l 13871 4269 l 13975 4429 z "},"ứ":{"ha":575,"x_min":65,"x_max":12592,"o":"m 536 6 l 451 -11 q 431 56 439 15 q 261 -12 343 -12 q 65 214 65 -12 l 65 472 l 153 472 l 153 222 q 272 65 153 65 q 371 103 322 65 q 419 193 419 142 l 419 472 l 507 472 l 507 388 q 556 441 535 403 q 578 515 578 479 l 653 515 q 613 399 653 461 q 507 308 568 331 l 507 126 q 536 6 507 79 m 13928 4240 l 14007 4215 l 13890 4081 l 13824 4081 l 13928 4240 z "},"Ừ":{"ha":669,"x_min":69,"x_max":10061,"o":"m 600 282 q 335 -12 600 -12 q 69 282 69 -12 l 69 661 l 158 661 l 158 282 q 335 63 158 63 q 511 282 511 63 l 511 661 l 600 661 l 600 606 q 649 659 631 622 q 668 732 668 696 l 743 732 q 698 606 739 667 q 600 525 657 546 l 600 282 m 11869 4060 l 11803 4060 l 11686 4194 l 11765 4219 l 11869 4060 z "},"ừ":{"ha":575,"x_min":65,"x_max":10514,"o":"m 536 6 l 451 -11 q 431 56 439 15 q 261 -12 343 -12 q 65 214 65 -12 l 65 472 l 153 472 l 153 222 q 272 65 153 65 q 371 103 322 65 q 419 193 419 142 l 419 472 l 507 472 l 507 388 q 556 441 535 403 q 578 515 578 479 l 653 515 q 613 399 653 461 q 507 308 568 331 l 507 126 q 536 6 507 79 m 11822 3871 l 11756 3871 l 11639 4006 l 11718 4031 l 11822 3871 z "},"Ử":{"ha":669,"x_min":69,"x_max":10249,"o":"m 600 282 q 335 -12 600 -12 q 69 282 69 -12 l 69 661 l 158 661 l 158 282 q 335 63 158 63 q 511 282 511 63 l 511 661 l 600 661 l 600 606 q 649 659 631 622 q 668 732 668 696 l 743 732 q 698 606 739 667 q 600 525 657 546 l 600 282 m 12029 4200 q 12017 4158 12029 4176 q 11990 4122 12004 4139 q 11963 4090 11975 4106 q 11951 4056 11951 4074 l 11889 4056 q 11901 4096 11889 4078 q 11929 4130 11914 4114 q 11957 4161 11944 4146 q 11969 4193 11969 4176 q 11959 4224 11969 4217 q 11931 4232 11949 4232 q 11889 4217 11907 4232 q 11865 4193 11871 4201 l 11829 4224 q 11867 4266 11840 4246 q 11938 4286 11893 4286 q 12003 4265 11978 4286 q 12029 4200 12029 4244 z "},"ử":{"ha":575,"x_min":65,"x_max":10694,"o":"m 536 6 l 451 -11 q 431 56 439 15 q 261 -12 343 -12 q 65 214 65 -12 l 65 472 l 153 472 l 153 222 q 272 65 153 65 q 371 103 322 65 q 419 193 419 142 l 419 472 l 507 472 l 507 388 q 556 441 535 403 q 578 515 578 479 l 653 515 q 613 399 653 461 q 507 308 568 331 l 507 126 q 536 6 507 79 m 11982 4011 q 11969 3969 11982 3988 q 11942 3933 11957 3950 q 11916 3901 11928 3917 q 11904 3867 11904 3885 l 11842 3867 q 11854 3907 11842 3889 q 11882 3941 11867 3925 q 11910 3972 11897 3957 q 11922 4004 11922 3988 q 11912 4035 11922 4028 q 11883 4043 11901 4043 q 11842 4028 11860 4043 q 11818 4004 11824 4013 l 11782 4035 q 11819 4077 11793 4057 q 11890 4097 11846 4097 q 11956 4076 11931 4097 q 11982 4011 11982 4056 z "},"Ữ":{"ha":669,"x_min":69,"x_max":9049,"o":"m 600 282 q 335 -12 600 -12 q 69 282 69 -12 l 69 661 l 158 661 l 158 282 q 335 63 158 63 q 511 282 511 63 l 511 661 l 600 661 l 600 606 q 649 659 631 622 q 668 732 668 696 l 743 732 q 698 606 739 667 q 600 525 657 546 l 600 282 m 12492 4928 q 12470 4851 12490 4879 q 12410 4822 12450 4822 q 12383 4828 12399 4822 q 12349 4842 12367 4835 q 12317 4856 12332 4850 q 12292 4863 12301 4863 q 12278 4852 12281 4863 q 12275 4829 12275 4842 l 12214 4829 q 12234 4899 12214 4871 q 12292 4928 12254 4928 q 12320 4922 12304 4928 q 12351 4909 12336 4917 q 12381 4896 12367 4901 q 12406 4890 12396 4890 q 12432 4928 12432 4890 l 12492 4928 z "},"ữ":{"ha":575,"x_min":65,"x_max":9517,"o":"m 536 6 l 451 -11 q 431 56 439 15 q 261 -12 343 -12 q 65 214 65 -12 l 65 472 l 153 472 l 153 222 q 272 65 153 65 q 371 103 322 65 q 419 193 419 142 l 419 472 l 507 472 l 507 388 q 556 441 535 403 q 578 515 578 479 l 653 515 q 613 399 653 461 q 507 308 568 331 l 507 126 q 536 6 507 79 m 12444 4739 q 12423 4662 12443 4690 q 12363 4633 12403 4633 q 12335 4640 12351 4633 q 12302 4653 12319 4646 q 12269 4667 12285 4661 q 12244 4674 12254 4674 q 12231 4663 12233 4674 q 12228 4640 12228 4653 l 12167 4640 q 12187 4710 12167 4682 q 12244 4739 12207 4739 q 12273 4733 12257 4739 q 12304 4720 12289 4728 q 12334 4707 12319 4713 q 12358 4701 12349 4701 q 12385 4739 12385 4701 l 12444 4739 z "},"Ự":{"ha":669,"x_min":69,"x_max":3182,"o":"m 600 282 q 335 -12 600 -12 q 69 282 69 -12 l 69 661 l 158 661 l 158 282 q 335 63 158 63 q 511 282 511 63 l 511 661 l 600 661 l 600 606 q 649 659 631 622 q 668 732 668 696 l 743 732 q 698 606 739 667 q 600 525 657 546 l 600 282 m 3925 -133 q 3906 -181 3925 -161 q 3860 -200 3886 -200 q 3814 -181 3833 -200 q 3794 -133 3794 -161 q 3814 -86 3794 -106 q 3860 -67 3833 -67 q 3906 -86 3886 -67 q 3925 -133 3925 -106 z "},"ự":{"ha":575,"x_min":65,"x_max":3331,"o":"m 536 6 l 451 -11 q 431 56 439 15 q 261 -12 343 -12 q 65 214 65 -12 l 65 472 l 153 472 l 153 222 q 272 65 153 65 q 371 103 322 65 q 419 193 419 142 l 419 472 l 507 472 l 507 388 q 556 441 535 403 q 578 515 578 479 l 653 515 q 613 399 653 461 q 507 308 568 331 l 507 126 q 536 6 507 79 m 3878 -133 q 3858 -181 3878 -161 q 3813 -200 3839 -200 q 3767 -181 3786 -200 q 3747 -133 3747 -161 q 3767 -86 3747 -106 q 3813 -67 3786 -67 q 3858 -86 3839 -67 q 3878 -133 3878 -106 z "},"Ỳ":{"ha":550,"x_min":-8,"x_max":10954,"o":"m 319 0 l 233 0 l 233 289 l -8 661 l 93 661 l 276 364 l 458 661 l 558 661 l 319 290 l 319 0 m 11810 4060 l 11743 4060 l 11626 4194 l 11706 4219 l 11810 4060 z "},"ỳ":{"ha":501,"x_min":-6,"x_max":11369,"o":"m 44 -210 l 22 -137 q 204 35 146 -110 l -6 472 l 90 472 l 254 122 l 410 472 l 506 472 l 289 10 q 44 -210 201 -175 m 11785 3871 l 11718 3871 l 11601 4006 l 11681 4031 l 11785 3871 z "},"Ỵ":{"ha":550,"x_min":-8,"x_max":3467,"o":"m 319 0 l 233 0 l 233 289 l -8 661 l 93 661 l 276 364 l 458 661 l 558 661 l 319 290 l 319 0 m 3865 -133 q 3846 -181 3865 -161 q 3800 -200 3826 -200 q 3754 -181 3774 -200 q 3735 -133 3735 -161 q 3754 -86 3735 -106 q 3800 -67 3774 -67 q 3846 -86 3826 -67 q 3865 -133 3865 -106 z "},"ỵ":{"ha":501,"x_min":-6,"x_max":3729,"o":"m 44 -210 l 22 -137 q 204 35 146 -110 l -6 472 l 90 472 l 254 122 l 410 472 l 506 472 l 289 10 q 44 -210 201 -175 m 3992 -133 q 3972 -181 3992 -161 q 3926 -200 3953 -200 q 3881 -181 3900 -200 q 3861 -133 3861 -161 q 3881 -86 3861 -106 q 3926 -67 3900 -67 q 3972 -86 3953 -67 q 3992 -133 3992 -106 z "},"Ỷ":{"ha":550,"x_min":-8,"x_max":11128,"o":"m 319 0 l 233 0 l 233 289 l -8 661 l 93 661 l 276 364 l 458 661 l 558 661 l 319 290 l 319 0 m 11969 4200 q 11957 4158 11969 4176 q 11930 4122 11944 4139 q 11903 4090 11915 4106 q 11892 4056 11892 4074 l 11829 4056 q 11842 4096 11829 4078 q 11869 4130 11854 4114 q 11897 4161 11885 4146 q 11910 4193 11910 4176 q 11899 4224 11910 4217 q 11871 4232 11889 4232 q 11829 4217 11847 4232 q 11806 4193 11811 4201 l 11769 4224 q 11807 4266 11781 4246 q 11878 4286 11833 4286 q 11944 4265 11918 4286 q 11969 4200 11969 4244 z "},"ỷ":{"ha":501,"x_min":-6,"x_max":11536,"o":"m 44 -210 l 22 -137 q 204 35 146 -110 l -6 472 l 90 472 l 254 122 l 410 472 l 506 472 l 289 10 q 44 -210 201 -175 m 11944 4011 q 11932 3969 11944 3988 q 11905 3933 11919 3950 q 11878 3901 11890 3917 q 11867 3867 11867 3885 l 11804 3867 q 11817 3907 11804 3889 q 11844 3941 11829 3925 q 11872 3972 11860 3957 q 11885 4004 11885 3988 q 11874 4035 11885 4028 q 11846 4043 11864 4043 q 11804 4028 11822 4043 q 11781 4004 11786 4013 l 11744 4035 q 11782 4077 11756 4057 q 11853 4097 11808 4097 q 11919 4076 11893 4097 q 11944 4011 11944 4056 z "},"Ỹ":{"ha":550,"x_min":-8,"x_max":9972,"o":"m 319 0 l 233 0 l 233 289 l -8 661 l 93 661 l 276 364 l 458 661 l 558 661 l 319 290 l 319 0 m 12432 4928 q 12410 4851 12431 4879 q 12350 4822 12390 4822 q 12323 4828 12339 4822 q 12290 4842 12307 4835 q 12257 4856 12272 4850 q 12232 4863 12242 4863 q 12218 4852 12221 4863 q 12215 4829 12215 4842 l 12154 4829 q 12174 4899 12154 4871 q 12232 4928 12194 4928 q 12260 4922 12244 4928 q 12292 4909 12276 4917 q 12322 4896 12307 4901 q 12346 4890 12336 4890 q 12372 4928 12372 4890 l 12432 4928 z "},"ỹ":{"ha":501,"x_min":-6,"x_max":10403,"o":"m 44 -210 l 22 -137 q 204 35 146 -110 l -6 472 l 90 472 l 254 122 l 410 472 l 506 472 l 289 10 q 44 -210 201 -175 m 12407 4739 q 12385 4662 12406 4690 q 12325 4633 12365 4633 q 12298 4640 12314 4633 q 12265 4653 12282 4646 q 12232 4667 12247 4661 q 12207 4674 12217 4674 q 12193 4663 12196 4674 q 12190 4640 12190 4653 l 12129 4640 q 12149 4710 12129 4682 q 12207 4739 12169 4739 q 12235 4733 12219 4739 q 12267 4720 12251 4728 q 12297 4707 12282 4713 q 12321 4701 12311 4701 q 12347 4739 12347 4701 l 12407 4739 z "},"₣":{"ha":546,"x_min":8,"x_max":493,"o":"m 367 125 l 189 125 l 189 0 l 106 0 l 106 125 l 8 125 l 8 197 l 106 197 l 106 663 l 493 663 l 493 588 l 189 588 l 189 379 l 474 379 l 474 304 l 189 304 l 189 197 l 367 197 l 367 125 z "},"₫":{"ha":604,"x_min":36,"x_max":610,"o":"m 535 0 l 451 0 q 447 51 447 15 q 279 -12 382 -12 q 106 60 176 -12 q 36 246 36 133 q 103 420 36 350 q 272 490 171 490 q 442 425 376 490 l 442 569 l 306 569 l 306 631 l 442 631 l 442 700 l 529 700 l 529 631 l 610 631 l 610 569 l 529 569 l 529 126 q 535 0 529 68 m 442 179 l 442 288 q 390 379 442 340 q 281 418 339 418 q 165 369 208 418 q 122 246 122 321 q 165 113 122 161 q 286 64 208 64 q 399 95 356 64 q 442 179 442 126 m 576 -143 l 47 -143 l 47 -62 l 576 -62 l 576 -143 z "},"Ă":{"ha":626,"x_min":-1,"x_max":935,"o":"m 628 0 l 532 0 l 444 221 l 179 221 l 93 0 l -1 0 l 276 671 l 351 671 l 628 0 m 411 296 l 314 571 l 211 296 l 411 296 m 476 871 q 421 753 463 792 q 313 715 379 715 q 204 753 246 715 q 149 871 163 792 l 224 871 q 252 809 231 836 q 313 782 274 782 q 374 809 351 782 q 403 871 396 836 l 476 871 z "},"ă":{"ha":510,"x_min":36,"x_max":951,"o":"m 458 4 l 376 -12 l 363 49 q 203 -12 292 -12 q 85 26 132 -12 q 36 129 38 64 q 351 310 36 306 q 238 414 338 414 q 72 379 163 414 l 63 458 q 242 486 157 486 q 439 283 439 486 l 439 126 q 458 4 439 74 m 351 150 l 351 233 q 125 138 125 229 q 207 64 125 64 q 299 86 253 64 q 351 150 351 113 m 418 682 q 363 565 404 603 q 254 526 321 526 q 146 565 188 526 q 90 682 104 603 l 165 682 q 194 620 172 647 q 254 593 215 593 q 315 620 293 593 q 344 682 338 647 l 418 682 z "},"Ć":{"ha":600,"x_min":36,"x_max":13088,"o":"m 569 35 q 328 -10 468 -10 q 116 84 196 -10 q 36 329 36 178 q 114 571 36 479 q 354 671 200 671 q 569 631 472 671 l 542 561 q 357 596 458 596 q 169 501 229 596 q 125 326 125 432 q 174 157 125 229 q 346 65 235 65 q 546 107 461 65 l 569 35 m 13940 4429 l 14019 4404 l 13903 4269 l 13836 4269 l 13940 4429 z "},"ć":{"ha":482,"x_min":36,"x_max":13524,"o":"m 447 29 q 285 -12 381 -12 q 104 58 172 -12 q 36 239 36 128 q 104 421 36 351 q 285 490 172 490 q 447 449 379 490 l 417 376 q 282 417 351 417 q 168 367 211 417 q 125 239 125 318 q 168 110 125 158 q 282 61 211 61 q 417 101 351 61 l 447 29 m 13881 4240 l 13960 4215 l 13843 4081 l 13776 4081 l 13881 4240 z "}}}
